<svg width="783" height="542" viewBox="0 0 783 542" fill="none" xmlns="http://www.w3.org/2000/svg">
<path d="M132.137 540.725C131.077 540.726 130.034 540.47 129.094 539.979C128.155 539.489 127.348 538.779 126.743 537.91C126.137 537.041 125.75 536.038 125.616 534.987C125.481 533.937 125.602 532.869 125.969 531.875L142.094 488.185H167.739L137.76 537.598C137.169 538.557 136.341 539.348 135.356 539.896C134.372 540.444 133.263 540.729 132.137 540.725Z" fill="black"/>
<path d="M360.412 540.725C361.471 540.726 362.515 540.47 363.454 539.979C364.393 539.489 365.2 538.779 365.806 537.91C366.411 537.041 366.798 536.038 366.933 534.987C367.067 533.937 366.946 532.869 366.579 531.875L350.454 488.185H324.81L354.789 537.598C355.38 538.557 356.208 539.348 357.192 539.896C358.177 540.444 359.285 540.729 360.412 540.725Z" fill="black"/>
<path d="M385.758 358.366H106.793V504.103H385.758V358.366Z" fill="#8960FF"/>
<path d="M366.991 377.13H125.556V485.338H366.991V377.13Z" fill="#FFBE21"/>
<path d="M367.304 431.404H125.556" stroke="#8960FF" stroke-width="2.80528" stroke-miterlimit="10"/>
<path d="M246.274 412.327C250.074 412.327 253.154 409.246 253.154 405.446C253.154 401.646 250.074 398.566 246.274 398.566C242.474 398.566 239.394 401.646 239.394 405.446C239.394 409.246 242.474 412.327 246.274 412.327Z" fill="#151414"/>
<path d="M246.274 464.867C250.074 464.867 253.154 461.787 253.154 457.987C253.154 454.187 250.074 451.107 246.274 451.107C242.474 451.107 239.394 454.187 239.394 457.987C239.394 461.787 242.474 464.867 246.274 464.867Z" fill="#151414"/>
<path d="M328.144 309.96H445.178V540.732H277.549V360.549C277.55 347.132 282.882 334.264 292.37 324.777C301.858 315.29 314.726 309.96 328.144 309.96Z" fill="white"/>
<path d="M457.618 184.827H622.889C636.306 184.828 649.174 190.16 658.661 199.648C668.148 209.136 673.477 222.004 673.477 235.422V540.726H407.022V235.422C407.022 222.003 412.353 209.134 421.841 199.646C431.33 190.157 444.199 184.827 457.618 184.827Z" fill="white"/>
<path d="M407.022 540.725V308.809" stroke="#8960FF" stroke-width="2.80528" stroke-miterlimit="10"/>
<path d="M398.199 371.583H622.89C636.307 371.584 649.173 376.915 658.66 386.402C668.147 395.888 673.478 408.755 673.479 422.171V540.725H347.604V422.171C347.605 408.754 352.936 395.886 362.425 386.399C371.913 376.912 384.781 371.583 398.199 371.583Z" fill="white"/>
<path d="M622.89 371.583H398.199C384.781 371.583 371.913 376.912 362.425 386.399C352.936 395.886 347.605 408.754 347.604 422.171V540.725" stroke="#8960FF" stroke-width="2.80528" stroke-miterlimit="10"/>
<path d="M504.599 427.651L345.727 427.651" stroke="#8960FF" stroke-width="2.80528" stroke-miterlimit="10"/>
<path d="M347.604 422.171V540.725" stroke="#8960FF" stroke-width="2.80528" stroke-miterlimit="10"/>
<path d="M556.445 309.96H673.479V540.732H505.85V360.549C505.851 347.132 511.183 334.264 520.671 324.777C530.159 315.29 543.027 309.96 556.445 309.96Z" fill="white"/>
<path d="M673.479 309.96H556.445C543.027 309.96 530.159 315.29 520.671 324.777C511.183 334.264 505.851 347.132 505.85 360.549V540.732" stroke="#8960FF" stroke-width="2.80528" stroke-miterlimit="10"/>
<path d="M64.572 449.855C50.1859 449.855 38.4519 441.23 38.0078 430.466V540.55H91.1737V430.466C90.6921 441.23 78.9768 449.855 64.572 449.855Z" fill="#7847DF"/>
<path d="M38.9971 515.637C56.448 513.76 77.2327 501.563 73.3297 472.685C70.2023 449.542 47.3723 456.11 60.5074 478.002C68.2258 490.868 80.9168 499.631 90.0676 504.666" stroke="#D5AAFF" stroke-width="2.80528" stroke-miterlimit="10" stroke-linecap="round"/>
<path d="M38.8408 489.618C49.2426 496.736 67.6692 513.086 74.6934 539.437" stroke="#D5AAFF" stroke-width="2.80528" stroke-miterlimit="10" stroke-linecap="round"/>
<path d="M38.7783 524.832C45.6023 526.852 54.3528 531.205 60.9391 539.512" stroke="#D5AAFF" stroke-width="2.80528" stroke-miterlimit="10" stroke-linecap="round"/>
<path d="M57.8291 436.194C53.4009 443.907 46.7982 450.145 38.8457 454.127" stroke="#D5AAFF" stroke-width="2.80528" stroke-miterlimit="10" stroke-linecap="round"/>
<path d="M64.5722 449.855C78.9583 449.855 90.6923 441.23 91.1364 430.466H37.9893C38.4521 441.23 50.1674 449.855 64.5722 449.855Z" fill="#151414"/>
<path d="M49.5605 333.828L63.9466 442.037" stroke="#151414" stroke-width="2.80528" stroke-miterlimit="10" stroke-linecap="round"/>
<path d="M44.958 377.437L61.7835 441.13" stroke="#151414" stroke-width="2.80528" stroke-miterlimit="10" stroke-linecap="round"/>
<path d="M97.151 402.85C109.132 397.727 117.697 390.891 116.282 387.582C114.867 384.272 104.007 385.742 92.0264 390.864C80.0455 395.987 71.4802 402.823 72.8953 406.133C74.3104 409.442 85.1701 407.973 97.151 402.85Z" fill="#151414"/>
<path d="M54.9876 416.493C56.2076 413.258 45.3817 406.18 30.8073 400.684C16.233 395.188 3.42906 393.356 2.20904 396.592C0.98902 399.827 11.8149 406.905 26.3893 412.401C40.9636 417.896 53.7675 419.729 54.9876 416.493Z" fill="#151414"/>
<path d="M74.8842 382.013C83.3191 375.659 88.8511 368.774 87.2403 366.636C85.6295 364.498 77.4859 367.915 69.051 374.269C60.6161 380.623 55.0841 387.507 56.6949 389.645C58.3057 391.784 66.4494 388.366 74.8842 382.013Z" fill="#151414"/>
<path d="M82.7117 346.963L66.4492 447.04" stroke="#151414" stroke-width="2.80528" stroke-miterlimit="10" stroke-linecap="round"/>
<path d="M55.9085 357.334C54.4059 354.843 52.3262 352.75 49.8447 351.231C47.3633 349.712 44.553 348.813 41.6509 348.609C38.7489 348.404 35.8402 348.901 33.1704 350.056C30.5006 351.212 28.1479 352.993 26.3109 355.249C24.4739 357.505 23.2064 360.17 22.6155 363.018C22.0245 365.867 22.1274 368.816 22.9155 371.616C23.7035 374.417 25.1536 376.987 27.1434 379.109C29.1332 381.231 31.6043 382.844 34.3482 383.811C35.2657 377.88 37.7469 372.301 41.5363 367.647C45.3258 362.994 50.2866 359.434 55.9085 357.334Z" fill="white"/>
<path d="M47.6152 368.58C44.3109 361.046 38.3829 354.969 30.9336 351.479" stroke="#F5EBDD" stroke-width="2.80528" stroke-miterlimit="10" stroke-linecap="round"/>
<path d="M44.8698 371.313C39.14 365.353 31.4156 361.713 23.1719 361.087" stroke="#F5EBDD" stroke-width="2.80528" stroke-miterlimit="10" stroke-linecap="round"/>
<path d="M34.3486 383.81C37.8725 385.052 41.6937 385.175 45.2902 384.163C48.8867 383.151 52.083 381.053 54.4421 378.156C56.8013 375.259 58.2083 371.704 58.4708 367.977C58.7334 364.25 57.8387 360.533 55.909 357.334C50.2871 359.434 45.3262 362.993 41.5368 367.647C37.7473 372.301 35.2662 377.88 34.3486 383.81Z" fill="#7635FF"/>
<path d="M29.1195 322.069C29.0565 319.161 29.6938 316.28 30.9776 313.67C32.2614 311.06 34.154 308.797 36.4959 307.072C38.8377 305.347 41.5601 304.21 44.4334 303.758C47.3066 303.306 50.2466 303.551 53.0052 304.473C55.7638 305.395 58.2602 306.967 60.2838 309.057C62.3074 311.146 63.7988 313.692 64.6324 316.478C65.4659 319.265 65.6171 322.211 65.0731 325.069C64.5292 327.926 63.306 330.611 61.5069 332.896C57.5574 328.376 52.4748 324.991 46.7823 323.088C41.0898 321.185 34.993 320.833 29.1195 322.069Z" fill="white"/>
<path d="M42.1485 327.129C40.9047 318.996 42.6609 310.689 47.0898 303.755" stroke="#F5EBDD" stroke-width="2.80528" stroke-miterlimit="10" stroke-linecap="round"/>
<path d="M45.9199 327.968C47.5752 319.869 52.1527 312.662 58.7798 307.721" stroke="#F5EBDD" stroke-width="2.80528" stroke-miterlimit="10" stroke-linecap="round"/>
<path d="M61.5066 332.896C59.1949 335.833 56.0325 337.984 52.4519 339.055C48.8714 340.126 45.0474 340.065 41.5029 338.88C37.9583 337.695 34.8664 335.444 32.6497 332.435C30.4331 329.426 29.2 325.806 29.1191 322.069C34.9927 320.833 41.0895 321.185 46.782 323.088C52.4745 324.991 57.557 328.377 61.5066 332.896Z" fill="#7635FF"/>
<path d="M72.666 323.339C74.4543 321.044 76.7685 319.212 79.4132 317.999C82.058 316.786 84.9558 316.228 87.8619 316.37C90.7681 316.512 93.5974 317.352 96.111 318.817C98.6246 320.283 100.749 322.331 102.304 324.79C103.86 327.249 104.801 330.046 105.048 332.945C105.295 335.845 104.842 338.761 103.725 341.448C102.609 344.134 100.862 346.513 98.633 348.383C96.4039 350.253 93.7576 351.56 90.9176 352.192C90.7126 346.195 88.9137 340.361 85.7059 335.29C82.498 330.219 77.997 326.093 72.666 323.339Z" fill="white"/>
<path d="M79.5645 335.492C83.7366 328.398 90.3456 323.062 98.16 320.48" stroke="#F5EBDD" stroke-width="2.80528" stroke-miterlimit="10" stroke-linecap="round"/>
<path d="M81.9551 338.532C88.3544 333.298 96.457 330.604 104.716 330.964" stroke="#F5EBDD" stroke-width="2.80528" stroke-miterlimit="10" stroke-linecap="round"/>
<path d="M90.9177 352.193C87.2717 353.005 83.4639 352.672 80.0145 351.238C76.5651 349.805 73.6423 347.341 71.6454 344.185C69.6485 341.028 68.675 337.331 68.8577 333.601C69.0404 329.87 70.3704 326.286 72.6662 323.34C77.9972 326.094 82.4982 330.219 85.706 335.29C88.9139 340.362 90.7128 346.196 90.9177 352.193Z" fill="#7635FF"/>
<path d="M782.857 538.698C782.8 538.851 782.729 538.997 782.645 539.136C782.73 538.998 782.802 538.851 782.857 538.698Z" fill="#8960FF"/>
<path d="M753.046 524.919L736.652 540.556H778.56C780.768 540.556 782.056 540.043 782.631 539.161C779.404 539.761 760.69 529.297 753.046 524.919Z" fill="#FFBE21"/>
<path d="M782.857 538.698C784.946 532.812 763.549 514.93 763.549 514.93L753.047 524.937C760.69 529.316 779.405 539.78 782.632 539.173C782.723 539.023 782.799 538.864 782.857 538.698Z" fill="#EC9C00"/>
<path d="M779.81 482.38C779.184 485.507 750.412 490.511 750.412 490.511L748.611 478.577L747.91 478.627L752.576 514.28C752.576 514.28 781.686 488.635 779.81 482.38Z" fill="#FFBE21"/>
<path d="M779.81 482.381C778.184 476.964 753.14 478.296 748.611 478.578L750.413 490.512C750.413 490.512 779.185 485.508 779.81 482.381Z" fill="#EC9C00"/>
<path d="M745.216 482.03L746.298 459.507" stroke="#151414" stroke-width="2.80528" stroke-linecap="round" stroke-linejoin="round"/>
<path d="M740.819 479.566L734.971 450.837" stroke="#151414" stroke-width="2.80528" stroke-linecap="round" stroke-linejoin="round"/>
<path d="M645.333 540.725L616.073 501.738L629.696 487.352C628.445 482.974 622.815 463.584 615.309 457.329C607.804 451.074 600.923 451.074 597.171 452.325L597.058 452.363C596.132 452.705 595.317 453.294 594.701 454.066C594.084 454.838 593.691 455.763 593.562 456.742C593.433 457.721 593.574 458.717 593.97 459.622C594.366 460.527 595.001 461.306 595.807 461.876L602.8 467.994C602.8 467.994 587.163 479.878 587.163 493.013C587.163 502.17 592.104 506.861 597.002 509.275L584.035 527.414C584.035 527.414 570.9 529.291 545.256 521.785C537.443 519.496 528.993 515.53 521.099 511.89C521.099 520.409 517.184 527.233 511.386 532.256C524.683 537.497 541.609 540.725 554.744 540.725H645.333Z" fill="#EC9C00"/>
<path d="M566.521 527.102C568.698 531.299 571.369 535.603 576.079 539.412" stroke="#151414" stroke-width="2.80528" stroke-miterlimit="10" stroke-linecap="round"/>
<path d="M627.818 485.194L622.814 488.947" stroke="#151414" stroke-width="2.80528" stroke-miterlimit="10" stroke-linecap="round"/>
<path d="M521.099 511.891C507.964 505.867 496.392 500.92 492.089 506.774C484.739 516.782 495.448 525.964 511.385 532.256C517.183 527.234 521.13 520.41 521.099 511.891Z" fill="#F5EBDD"/>
<path d="M759.795 499.25C759.795 496.598 763.135 493.12 765.762 492.05C760.864 478.628 741.243 466.956 721.015 477.377C721.015 477.377 718.513 464.867 711.633 459.863C705.196 455.178 698.497 454.715 693.494 456.592L693.344 456.648C692.441 457.009 691.645 457.594 691.03 458.348C690.416 459.101 690.003 459.998 689.83 460.955C689.657 461.912 689.731 462.897 690.044 463.817C690.356 464.738 690.898 465.564 691.617 466.218L700.374 474.249L695.996 482.862C691.534 478.819 686.294 475.731 680.596 473.786C680.102 497.186 649.378 507.494 634.073 502.396C628.694 494.89 624.247 491.037 623.108 490.118L622.814 490.368C622.814 490.368 609.679 481.755 597.795 490.512C597.795 490.512 591.54 476.126 584.034 470.352C577.686 465.467 565.27 465.349 562.143 468.476L562.049 468.57C561.326 469.308 560.779 470.199 560.448 471.177C560.117 472.155 560.01 473.195 560.136 474.22C560.262 475.244 560.616 476.228 561.174 477.097C561.731 477.966 562.477 478.699 563.356 479.241L572.15 484.739C572.15 484.739 549.633 518.515 579.656 540.725H739.154C763.097 540.725 768.714 521.517 768.176 506.111C765.343 505.373 759.795 503.39 759.795 499.25Z" fill="#FFBE21"/>
<path d="M634.073 502.395C649.379 507.493 680.102 497.185 680.596 473.786C674.307 471.565 667.592 470.818 660.969 471.603C642.83 473.736 625.504 488.066 623.108 490.117C624.247 491.037 628.694 494.858 634.073 502.395Z" fill="#F5EBDD"/>
<path d="M759.795 499.25C759.795 503.391 765.343 505.374 768.176 506.13C768.055 501.642 767.34 497.19 766.05 492.889C765.962 492.614 765.856 492.345 765.762 492.07C763.135 493.12 759.795 496.598 759.795 499.25Z" fill="#151414"/>
<path d="M754.772 500.744L763.667 499.431" stroke="#151414" stroke-width="2.80528" stroke-linecap="round" stroke-linejoin="round"/>
<path d="M722.604 477.689C725.149 487.947 728.283 502.283 729.484 511.465" stroke="#151414" stroke-width="2.80528" stroke-linecap="round" stroke-linejoin="round"/>
<path d="M695.057 462.678L692.73 466.162" stroke="#151414" stroke-width="2.80528" stroke-linecap="round" stroke-linejoin="round"/>
<path d="M699.435 466.431L696.983 470.102" stroke="#151414" stroke-width="2.80528" stroke-linecap="round" stroke-linejoin="round"/>
<path d="M564.956 473.936L562.604 477.464" stroke="#151414" stroke-width="2.80528" stroke-linecap="round" stroke-linejoin="round"/>
<path d="M569.96 477.064L567.421 480.867" stroke="#151414" stroke-width="2.80528" stroke-linecap="round" stroke-linejoin="round"/>
<path d="M695.044 482.474C683.667 503.265 674.272 525.314 692.061 539.9" stroke="#151414" stroke-width="2.80528" stroke-linecap="round" stroke-linejoin="round"/>
<path d="M640.327 517.094C637.825 505.836 630.126 491.788 620.312 487.697C612.806 484.569 605.3 485.195 598.42 488.948C598.42 488.948 595.449 482.574 593.06 479.084" stroke="#151414" stroke-width="2.80528" stroke-miterlimit="10" stroke-linecap="round"/>
<path d="M750.019 493.47C750.019 493.47 751.895 499.324 754.772 500.744C754.772 500.744 752.733 503.665 752.395 509.32" stroke="#151414" stroke-width="2.80528" stroke-linecap="round" stroke-linejoin="round"/>
<path d="M671.602 471.747C671.602 471.747 666.598 480.503 658.467 479.878C650.335 479.252 650.961 467.368 660.343 460.488C664.301 458.16 668.99 457.405 673.478 458.374C681.472 460.119 686.15 476.219 686.15 476.219C686.15 476.219 677.856 472.372 671.602 471.747Z" fill="#FFBE21"/>
<path d="M742.281 421.996L752.577 415.704L747.998 431.716L760.107 424.523" stroke="#151414" stroke-width="2.80528" stroke-linecap="round" stroke-linejoin="round"/>
<path d="M764.774 396.021L775.614 395.157L765.406 406.172L777.622 405.322" stroke="#151414" stroke-width="2.80528" stroke-linecap="round" stroke-linejoin="round"/>
<path d="M657.498 473.886L657.485 478.627" stroke="#151414" stroke-width="2.80528" stroke-linecap="round" stroke-linejoin="round"/>
<path d="M663.221 473.341L663.208 478.039" stroke="#151414" stroke-width="2.80528" stroke-linecap="round" stroke-linejoin="round"/>
<path d="M597.871 458.48L595.606 460.901" stroke="#151414" stroke-width="2.80528" stroke-linecap="round" stroke-linejoin="round"/>
<path d="M602.297 461.758L599.602 464.641" stroke="#151414" stroke-width="2.80528" stroke-linecap="round" stroke-linejoin="round"/>
<path d="M146.143 337.916C146.437 336.734 148.117 336.734 148.411 337.916L151.768 351.396C151.873 351.815 152.201 352.143 152.62 352.247L166.1 355.605C167.282 355.899 167.282 357.579 166.1 357.873L152.62 361.231C152.201 361.335 151.873 361.663 151.768 362.083L148.411 375.563C148.117 376.744 146.437 376.744 146.143 375.563L142.785 362.083C142.681 361.663 142.353 361.335 141.933 361.231L128.453 357.873C127.271 357.579 127.271 355.899 128.453 355.605L141.933 352.247C142.353 352.143 142.681 351.815 142.785 351.396L146.143 337.916Z" fill="white"/>
<path d="M340.253 38.8079H61.2881V227.703H340.253V38.8079Z" fill="#8960FF"/>
<path d="M321.489 57.5725H80.0527V208.939H321.489V57.5725Z" fill="white"/>
<path d="M241.799 137.391C241.799 159.904 221.443 178.154 196.332 178.154C171.221 178.154 150.865 159.904 150.865 137.391C175.976 137.391 241.799 137.391 241.799 137.391Z" fill="#6232E9"/>
<path d="M149.034 109.171C151.454 103.633 156.979 99.7637 163.408 99.7637C169.837 99.7637 175.362 103.633 177.781 109.171" stroke="#6232E9" stroke-width="6.27129"/>
<path d="M216.714 109.171C219.133 103.633 224.658 99.7637 231.088 99.7637C237.517 99.7637 243.042 103.633 245.461 109.171" stroke="#6232E9" stroke-width="6.27129"/>
<mask id="mask0" mask-type="alpha" maskUnits="userSpaceOnUse" x="150" y="137" width="92" height="42">
<path d="M241.799 137.391C241.799 159.904 221.443 178.154 196.332 178.154C171.221 178.154 150.865 159.904 150.865 137.391C175.976 137.391 241.799 137.391 241.799 137.391Z" fill="#6232E9"/>
</mask>
<g mask="url(#mask0)">
<ellipse cx="197.9" cy="170.315" rx="40.7634" ry="17.246" fill="#FFBE21"/>
</g>
<path d="M68.9975 26.9977C69.2918 25.8158 70.9716 25.8158 71.2659 26.9977L73.2249 34.863C73.3294 35.2826 73.6571 35.6102 74.0767 35.7147L81.942 37.6738C83.1238 37.9681 83.1238 39.6478 81.942 39.9422L74.0767 41.9012C73.6571 42.0057 73.3294 42.3333 73.2249 42.7529L71.2659 50.6183C70.9716 51.8001 69.2918 51.8001 68.9975 50.6183L67.0385 42.7529C66.934 42.3333 66.6063 42.0057 66.1867 41.9012L58.3214 39.9422C57.1396 39.6478 57.1396 37.9681 58.3214 37.6738L66.1867 35.7147C66.6063 35.6102 66.934 35.2826 67.0385 34.863L68.9975 26.9977Z" fill="white"/>
<path d="M604.263 28.8521C603.302 13.7987 590.32 2.37449 575.267 3.33548L417.178 13.4276C402.125 14.3886 390.701 27.3708 391.662 42.4243L395.664 105.115L381.224 136.141L411.206 134.227L582.923 123.265C597.976 122.304 609.401 109.321 608.44 94.268L604.263 28.8521Z" fill="#AC85FF"/>
<path d="M445.963 61.7669L446.175 64.7638L432.117 65.7556L431.949 63.3853L439.016 55.6585C439.812 54.7809 440.334 54.0322 440.582 53.4123C440.848 52.773 440.959 52.1536 440.917 51.5542C440.854 50.6643 440.506 50.0043 439.874 49.5744C439.241 49.1444 438.343 48.9704 437.181 49.0524C435.237 49.1896 433.795 49.9576 432.853 51.3565L430.239 49.6243C430.914 48.5728 431.858 47.7304 433.073 47.0971C434.305 46.4444 435.701 46.0629 437.263 45.9527C439.334 45.8066 441.021 46.1804 442.326 47.0741C443.63 47.9677 444.342 49.2591 444.461 50.9483C444.534 51.9836 444.384 52.9706 444.013 53.9096C443.641 54.8485 442.878 55.9427 441.725 57.1923L436.973 62.4012L445.963 61.7669ZM467.186 51.5627L459.421 52.1106L460.244 63.7712L456.838 64.0114L455.812 49.4629L466.982 48.6748L467.186 51.5627ZM476.346 62.8268C474.875 62.9306 473.527 62.7062 472.301 62.1538C471.076 61.6014 470.087 60.7859 469.336 59.7072C468.601 58.6091 468.183 57.3426 468.082 55.9077C467.981 54.4728 468.217 53.1693 468.792 51.997C469.384 50.8235 470.249 49.8773 471.384 49.1583C472.52 48.4393 473.823 48.0279 475.295 47.9241C476.784 47.819 478.141 48.0427 479.367 48.5951C480.592 49.1475 481.572 49.9637 482.305 51.0436C483.057 52.1223 483.483 53.3791 483.584 54.814C483.685 56.2488 483.44 57.5621 482.849 58.7538C482.275 59.926 481.42 60.8716 480.284 61.5906C479.148 62.3096 477.835 62.7217 476.346 62.8268ZM476.14 59.9116C477.394 59.8232 478.399 59.3324 479.158 58.4392C479.916 57.5461 480.247 56.4184 480.151 55.0562C480.055 53.6939 479.569 52.6239 478.693 51.8461C477.816 51.0683 476.752 50.7236 475.498 50.812C474.245 50.9004 473.239 51.3912 472.481 52.2843C471.741 53.1762 471.419 54.3033 471.515 55.6655C471.611 57.0277 472.088 58.0984 472.946 58.8775C473.822 59.6553 474.887 60 476.14 59.9116ZM502.627 57.8786L503.06 64.0086L499.872 64.2335L499.644 60.9914L488.419 61.7833L488.648 65.0254L485.487 65.2484L485.055 59.1184L485.736 59.0703C486.66 58.9687 487.245 58.3341 487.491 57.1668C487.754 55.98 487.866 54.3294 487.826 52.2148L487.665 47.2156L499.652 46.3698L500.475 58.0304L502.627 57.8786ZM490.949 52.2408C490.994 53.917 490.954 55.2888 490.829 56.3563C490.703 57.4239 490.395 58.2305 489.904 58.7762L497.07 58.2707L496.451 49.498L490.866 49.8921L490.949 52.2408ZM504.846 46.0034L508.252 45.7631L508.929 55.3531L516.289 45.1961L519.395 44.977L520.421 59.5255L517.016 59.7657L516.339 50.1757L509.006 60.3308L505.873 60.5519L504.846 46.0034ZM523.976 44.6537L527.382 44.4135L527.799 50.3255L535.127 49.8084L534.71 43.8964L538.116 43.6561L539.142 58.2046L535.737 58.4449L535.331 52.6963L528.002 53.2134L528.408 58.962L525.002 59.2022L523.976 44.6537ZM542.68 43.3341L546.085 43.0939L546.762 52.6839L554.123 42.5268L557.228 42.3077L558.255 56.8562L554.849 57.0965L554.173 47.5064L546.839 57.6616L543.706 57.8826L542.68 43.3341ZM420.802 90.2719L434.425 89.3108L434.642 92.3895L421.02 93.3505L420.802 90.2719ZM461.626 92.5939L462.135 99.8137L457.34 100.152L457.123 97.0734L444.754 97.946L443.712 83.1796L448.862 82.8163L449.611 93.4416L454.406 93.1033L453.657 82.478L458.833 82.1128L459.583 92.7381L461.626 92.5939ZM478.588 88.1663C478.591 88.2027 478.593 88.6314 478.597 89.4526L467.862 90.2099C468.134 90.9574 468.594 91.5182 469.241 91.8924C469.904 92.2471 470.709 92.3912 471.653 92.3245C472.361 92.2746 472.963 92.1317 473.457 91.8961C473.97 91.6591 474.474 91.295 474.968 90.8038L477.893 93.445C476.571 95.1446 474.529 96.0917 471.768 96.2865C470.043 96.4083 468.503 96.1883 467.149 95.6267C465.795 95.0651 464.714 94.2287 463.906 93.1176C463.115 92.0051 462.668 90.7133 462.564 89.2421C462.462 87.7891 462.715 86.4661 463.325 85.2731C463.951 84.0607 464.859 83.084 466.048 82.343C467.237 81.602 468.603 81.177 470.147 81.0681C471.618 80.9643 472.975 81.1789 474.217 81.7119C475.458 82.2267 476.465 83.0409 477.237 84.1547C478.026 85.2489 478.477 86.5862 478.588 88.1663ZM470.434 84.7442C469.635 84.8006 468.979 85.075 468.466 85.5675C467.971 86.0588 467.679 86.7 467.588 87.4913L473.637 87.0645C473.436 86.2938 473.048 85.7006 472.471 85.285C471.912 84.8681 471.233 84.6878 470.434 84.7442ZM488.729 80.0035L493.879 79.6402L494.265 85.1163L499.578 84.7415L499.191 79.2654L504.368 78.9001L505.41 93.6666L500.233 94.0318L499.868 88.8554L494.555 89.2302L494.92 94.4066L489.771 94.7699L488.729 80.0035ZM516.192 93.1523C514.612 93.2638 513.163 93.0374 511.846 92.4733C510.528 91.9091 509.465 91.0714 508.657 89.9603C507.866 88.8478 507.419 87.556 507.316 86.0848C507.213 84.6317 507.475 83.299 508.101 82.0866C508.746 80.8729 509.672 79.904 510.881 79.1799C512.106 78.4363 513.518 78.0082 515.116 77.8954C516.714 77.7826 518.172 78.0083 519.49 78.5725C520.806 79.1185 521.859 79.9477 522.65 81.0602C523.439 82.1545 523.885 83.4372 523.989 84.9084C524.093 86.3796 523.832 87.7214 523.205 88.9338C522.579 90.1462 521.653 91.1242 520.428 91.8678C519.203 92.6113 517.791 93.0395 516.192 93.1523ZM515.902 89.0384C516.81 88.9743 517.533 88.613 518.071 87.9544C518.607 87.2777 518.836 86.3854 518.758 85.2775C518.681 84.1877 518.33 83.3545 517.706 82.778C517.081 82.2015 516.314 81.9452 515.406 82.0093C514.498 82.0734 513.775 82.4347 513.238 83.0932C512.7 83.7518 512.47 84.6259 512.546 85.7157C512.625 86.8237 512.977 87.675 513.603 88.2697C514.228 88.8462 514.994 89.1024 515.902 89.0384ZM535.171 76.4805C536.515 76.3857 537.754 76.6176 538.889 77.1765C540.04 77.7158 540.975 78.5443 541.693 79.6619C542.427 80.76 542.848 82.0719 542.956 83.5976C543.064 85.1233 542.832 86.4904 542.26 87.699C541.705 88.8881 540.896 89.8396 539.833 90.5535C538.786 91.2479 537.591 91.6425 536.247 91.7373C534.522 91.8591 533.114 91.4382 532.024 90.4747L532.489 97.0678L527.313 97.433L525.898 77.3811L530.829 77.0332L530.933 78.5044C531.815 77.2922 533.227 76.6176 535.171 76.4805ZM534.867 87.7003C535.775 87.6363 536.498 87.2749 537.036 86.6164C537.572 85.9397 537.802 85.0564 537.725 83.9667C537.648 82.8769 537.297 82.0437 536.673 81.4672C536.047 80.8725 535.279 80.6072 534.371 80.6713C533.463 80.7353 532.741 81.1057 532.205 81.7824C531.667 82.441 531.437 83.3151 531.513 84.4049C531.59 85.4947 531.942 86.3369 532.568 86.9316C533.193 87.5082 533.959 87.7644 534.867 87.7003ZM560.293 89.7944L559.746 82.0297L556.414 88.7538L554.207 88.9095L550.066 82.6031L550.622 90.4768L545.963 90.8055L544.921 76.039L550.37 75.6546L555.028 83.0745L559.006 75.0452L563.883 74.7012L564.952 89.4657L560.293 89.7944ZM566.391 70.1982L572.548 69.7638L572.368 81.9606L568.254 82.2508L566.391 70.1982ZM570.832 89.2973C569.924 89.3613 569.16 89.1414 568.541 88.6375C567.92 88.1155 567.581 87.4549 567.525 86.6557C567.467 85.8384 567.71 85.1459 568.254 84.5781C568.798 84.0104 569.524 83.6945 570.433 83.6304C571.341 83.5664 572.095 83.7778 572.695 84.2648C573.313 84.7505 573.651 85.4021 573.709 86.2194C573.766 87.0186 573.523 87.7202 572.981 88.3242C572.439 88.9101 571.722 89.2345 570.832 89.2973Z" fill="white"/>
<path d="M716.549 454.802C716.844 453.621 718.523 453.621 718.818 454.802L720.777 462.668C720.881 463.087 721.209 463.415 721.628 463.519L729.494 465.478C730.676 465.773 730.676 467.453 729.494 467.747L721.628 469.706C721.209 469.81 720.881 470.138 720.777 470.558L718.818 478.423C718.523 479.605 716.844 479.605 716.549 478.423L714.59 470.558C714.486 470.138 714.158 469.81 713.739 469.706L705.873 467.747C704.691 467.453 704.691 465.773 705.873 465.478L713.739 463.519C714.158 463.415 714.486 463.087 714.59 462.668L716.549 454.802Z" fill="white"/>
<path d="M492.128 167.261C492.422 166.079 494.102 166.08 494.396 167.261L497.754 180.741C497.858 181.161 498.186 181.489 498.606 181.593L512.086 184.951C513.267 185.245 513.267 186.925 512.086 187.219L498.606 190.577C498.186 190.681 497.858 191.009 497.754 191.428L494.396 204.908C494.102 206.09 492.422 206.09 492.128 204.908L488.77 191.428C488.666 191.009 488.338 190.681 487.919 190.577L474.439 187.219C473.257 186.925 473.257 185.245 474.439 184.951L487.919 181.593C488.338 181.489 488.666 181.161 488.77 180.741L492.128 167.261Z" fill="#8960FF"/>
</svg>
