<svg width="82" height="15" viewBox="0 0 82 15" fill="none" xmlns="http://www.w3.org/2000/svg">
<path d="M1.36638 15H5.72396C5.94229 15 6.05146 14.9772 6.0924 14.9636C6.11059 14.9226 6.14243 14.8179 6.14243 14.5812V8.08042H4.4367V13.6024H2.72187V1.39757H4.4367V6.36419H6.14243V0.423369C6.14243 0.172989 6.10604 0.0819423 6.09694 0.0682853L6.0651 0.0364188C6.06965 0.0455235 5.98323 0 5.71941 0H1.36638C1.12985 0 1.02069 0.0318665 0.979748 0.0500759C0.966102 0.0955994 0.943359 0.204856 0.943359 0.423369V14.5812C0.943359 14.786 0.966102 14.9044 0.979748 14.9636C1.04343 14.9772 1.15714 15 1.36638 15Z" fill="white"/>
<path d="M8.28502 15H12.7427C12.9701 15 13.0656 14.9681 13.0884 14.959C13.0838 14.9499 13.1293 14.8498 13.1293 14.5766V0.423369C13.1293 0.172989 13.0929 0.0819423 13.0838 0.0682853L13.052 0.0364188C13.0565 0.0364188 12.9883 0 12.7472 0H8.28957C8.05304 0 7.94387 0.0318665 7.90748 0.0500759C7.89384 0.091047 7.87109 0.200303 7.87109 0.418816V14.5766C7.87109 14.7815 7.89384 14.8998 7.90748 14.959C7.96207 14.9772 8.08033 15 8.28502 15ZM9.64051 1.39757H11.3553V13.6024H9.64051V1.39757Z" fill="white"/>
<path d="M15.2765 15H19.6341C19.8524 15 19.9616 14.9772 20.0026 14.9636C20.0207 14.9226 20.0526 14.8179 20.0526 14.5812V6.80577C20.0526 6.55539 20.0162 6.46434 20.0071 6.45068L19.9753 6.42337C19.9798 6.43247 19.8934 6.38695 19.6296 6.38695H16.6275V1.39757H18.3423V4.67071H20.048V0.423369C20.048 0.172989 20.0117 0.0819423 20.0026 0.0682853L19.9707 0.0364188C19.9798 0.0455235 19.8934 0 19.6296 0H15.272C15.0355 0 14.9263 0.0318665 14.8899 0.0500759C14.8763 0.091047 14.8535 0.200303 14.8535 0.418816V7.39302C14.8535 7.57967 14.8717 7.68437 14.8899 7.74355C14.949 7.76176 15.0673 7.77997 15.2765 7.77997H18.2786V13.5979H16.5638V9.52807H14.8581V14.5721C14.8581 14.7769 14.8808 14.8953 14.8945 14.9545C14.949 14.9772 15.0673 15 15.2765 15Z" fill="white"/>
<path d="M30.5302 15V0.423369C30.5302 0.172989 30.4938 0.0819423 30.4847 0.0682853L30.4528 0.0364188C30.4437 0.0318665 30.3437 0 30.1435 0H21.7695V15H23.548V1.39757H25.2629V15H27.0414V1.39757H28.7926V15H30.5302Z" fill="white"/>
<path d="M32.6929 15H37.1505C37.378 15 37.4735 14.9681 37.4962 14.959C37.4917 14.9499 37.5372 14.8498 37.5372 14.5766V0.423369C37.5372 0.172989 37.5008 0.0819423 37.4917 0.0682853L37.4598 0.0364188C37.4598 0.0409712 37.3916 0 37.1505 0H32.6929C32.4564 0 32.3472 0.0318665 32.3108 0.0500759C32.2972 0.091047 32.2744 0.200303 32.2744 0.418816V14.5766C32.2744 14.7815 32.2972 14.8998 32.3108 14.959C32.3699 14.9772 32.4882 15 32.6929 15ZM34.0484 1.39757H35.7632V13.6024H34.0484V1.39757Z" fill="white"/>
<path d="M39.6828 15H44.0404C44.2905 15 44.3952 14.9681 44.427 14.959C44.4179 14.9499 44.4634 14.8452 44.4634 14.5812V6.80577C44.4634 6.52807 44.4179 6.44613 44.4134 6.44613L44.3952 6.42792C44.377 6.41882 44.286 6.3824 44.0404 6.3824H41.0383V1.39757H42.7531V4.67071H44.4588V0.423369C44.4588 0.145675 44.4134 0.0637329 44.4088 0.0637329L44.3906 0.0455235C44.377 0.0364188 44.286 0 44.0358 0H39.6782C39.4417 0 39.3325 0.0318665 39.2962 0.0500759C39.2825 0.091047 39.2598 0.200303 39.2598 0.418816V7.39302C39.2598 7.57967 39.278 7.68437 39.2962 7.74355C39.3553 7.76176 39.4736 7.77997 39.6828 7.77997H42.6849V13.5979H40.97V9.52807H39.2643V14.5721C39.2643 14.7769 39.2871 14.8953 39.3007 14.9545C39.3553 14.9772 39.4736 15 39.6828 15Z" fill="white"/>
<path d="M48.8976 15H53.2507C53.5008 15 53.6054 14.9681 53.6373 14.959C53.6327 14.9499 53.6737 14.8452 53.6737 14.5812V6.80577C53.6737 6.52807 53.6282 6.44613 53.6236 6.44613L53.6054 6.42792C53.5873 6.41882 53.4963 6.3824 53.2507 6.3824H50.2486V1.39757H51.9634V4.67071H53.6691V0.423369C53.6691 0.145675 53.6236 0.0637329 53.6191 0.0637329L53.6009 0.0455235C53.5918 0.0364188 53.5008 0 53.2507 0H48.8931C48.6566 0 48.5474 0.0364188 48.511 0.0500759C48.4974 0.0955994 48.4746 0.200303 48.4746 0.418816V7.39302C48.4746 7.57967 48.4928 7.68437 48.511 7.74355C48.5701 7.76176 48.6884 7.77997 48.8976 7.77997H51.8997V13.5979H50.1849V9.52807H48.4792V14.5721C48.4792 14.7815 48.5019 14.8953 48.5155 14.9545C48.5747 14.9772 48.6884 15 48.8976 15Z" fill="white"/>
<path d="M58.3789 0H54.6309V1.39757H55.5997V15H57.3782V1.39757H58.3789V0Z" fill="white"/>
<path d="M59.7326 15H64.122C64.3494 15 64.445 14.9681 64.4677 14.959C64.4632 14.9499 64.5086 14.8452 64.5086 14.5766V0H62.8029V13.6024H61.0881V0H59.3096V14.5766C59.3096 14.786 59.3323 14.8998 59.346 14.959C59.4096 14.9772 59.5279 15 59.7326 15Z" fill="white"/>
<path d="M71.5365 0.769347C71.5365 0.282246 71.4319 0.150228 71.4091 0.127466C71.3864 0.100152 71.2727 0 70.7678 0H66.2646V15H70.7678C71.2681 15 71.3864 14.8998 71.3864 14.8953L71.3909 14.8907C71.4819 14.7951 71.5365 14.563 71.5365 14.2307V0.769347ZM69.758 13.6024H68.0432V1.39757H69.758V13.6024Z" fill="white"/>
<path d="M75.0373 0H73.2588V15H75.0373V0Z" fill="white"/>
<path d="M77.1558 15.0003H81.6134C81.8409 15.0003 81.9364 14.9685 81.9591 14.9594C81.9546 14.9503 82.0001 14.8501 82.0001 14.577V0.423699C82.0001 0.17332 81.9637 0.0822728 81.9546 0.0686157L81.9318 0.045854C81.9136 0.0367493 81.8318 0.00488281 81.6134 0.00488281H77.1558C76.9192 0.00488281 76.8101 0.0413016 76.7737 0.0549587C76.76 0.100482 76.7373 0.205186 76.7373 0.423699V14.5815C76.7373 14.7909 76.76 14.9047 76.7737 14.9639C76.8328 14.9776 76.9511 15.0003 77.1558 15.0003ZM78.5113 1.3979H80.2261V13.6028H78.5113V1.3979Z" fill="white"/>
</svg>
