<svg width="30" height="31" viewBox="0 0 30 31" fill="none" xmlns="http://www.w3.org/2000/svg">
<g filter="url(#filter0_d)">
<g clip-path="url(#clip0)">
<path d="M-9 3.36377H39V27.3638H-9V3.36377Z" fill="#012169"/>
<path d="M-9 3.36377V6.04697L33.6336 27.3638H39V24.6806L-3.6336 3.36857H-9V3.36377ZM39 3.36377V6.04697L-3.6336 27.3638H-9V24.6806L33.6336 3.36377H39Z" fill="white"/>
<path d="M11.0016 3.36377V27.3638H18.9984V3.36377H11.0016ZM-9 11.3654V19.3622H39V11.3654H-9Z" fill="white"/>
<path d="M-9 12.9638V17.7638H39V12.9638H-9ZM12.6 3.36377V27.3638H17.4V3.36377H12.6ZM-9 27.3638L6.9984 19.3622H10.584L-5.424 27.3638H-9ZM-9 3.36377L6.9984 11.3654H3.4224L-9 5.15417V3.36377ZM19.4208 11.3654L35.424 3.36377H39L23.0016 11.3654H19.416H19.4208ZM39.0048 27.3638L22.9968 19.3622H26.5728L39 25.5734V27.3638H39.0048Z" fill="#C8102E"/>
</g>
</g>
<defs>
<filter id="filter0_d" x="0" y="0.36377" width="30" height="30" filterUnits="userSpaceOnUse" color-interpolation-filters="sRGB">
<feFlood flood-opacity="0" result="BackgroundImageFix"/>
<feColorMatrix in="SourceAlpha" type="matrix" values="0 0 0 0 0 0 0 0 0 0 0 0 0 0 0 0 0 0 127 0"/>
<feOffset/>
<feGaussianBlur stdDeviation="1.5"/>
<feColorMatrix type="matrix" values="0 0 0 0 0 0 0 0 0 0 0 0 0 0 0 0 0 0 0.25 0"/>
<feBlend mode="normal" in2="BackgroundImageFix" result="effect1_dropShadow"/>
<feBlend mode="normal" in="SourceGraphic" in2="effect1_dropShadow" result="shape"/>
</filter>
<clipPath id="clip0">
<rect x="3" y="3.36377" width="24" height="24" rx="12" fill="white"/>
</clipPath>
</defs>
</svg>
