<svg width="270" height="256" viewBox="0 0 270 256" fill="none" xmlns="http://www.w3.org/2000/svg">
<g clip-path="url(#clip0)">
<path d="M106.342 13.7878H107.031C108.598 13.7878 110.101 14.4099 111.209 15.5173C112.318 16.6248 112.94 18.1268 112.94 19.6929V33.4318H100.434V19.6929C100.434 18.1268 101.056 16.6248 102.164 15.5173C103.272 14.4099 104.775 13.7878 106.342 13.7878Z" fill="#FFDCC8"/>
<path d="M99.0039 24.502H114.371" stroke="#FFB7D5" stroke-width="1.30071" stroke-linecap="round" stroke-linejoin="round"/>
<path d="M106.342 49.0309H107.031C108.598 49.0309 110.101 49.653 111.209 50.7605C112.318 51.8679 112.94 53.3699 112.94 54.936V68.6822H100.434V54.9396C100.434 53.3735 101.056 51.8715 102.164 50.7641C103.272 49.6566 104.775 49.0345 106.342 49.0345V49.0309Z" fill="white"/>
<path d="M99.0039 59.749H114.371" stroke="#FFB7D5" stroke-width="1.30071" stroke-linecap="round" stroke-linejoin="round"/>
<path d="M106.342 84.2778H107.031C108.598 84.2778 110.101 84.9 111.209 86.0074C112.318 87.1148 112.94 88.6168 112.94 90.1829V103.922H100.434V90.1829C100.434 88.6168 101.056 87.1148 102.164 86.0074C103.272 84.9 104.775 84.2778 106.342 84.2778Z" fill="white"/>
<path d="M99.0039 94.9919H114.371" stroke="#FFB7D5" stroke-width="1.30071" stroke-linecap="round" stroke-linejoin="round"/>
<path d="M106.342 119.514H107.031C108.598 119.514 110.101 120.136 111.209 121.243C112.318 122.351 112.94 123.853 112.94 125.419V138.037H100.434V125.419C100.434 123.853 101.056 122.351 102.164 121.243C103.272 120.136 104.775 119.514 106.342 119.514Z" fill="#151414"/>
<path d="M101.951 118.324C101.951 118.324 77.1835 58.9126 76.1014 43.4252C72.4652 -8.70057 129.049 20.9944 137.898 26.1208C144.34 29.8557 169.606 43.984 174.649 49.0203C177.895 52.2648 175.637 54.6694 175.637 54.6694C175.637 54.6694 179.428 59.6444 174.097 60.2357C177.888 65.2107 171.842 65.8848 171.842 65.8848C171.842 65.8848 173.462 70.7408 167.182 69.2808C160.414 67.7054 109.104 45.5089 109.104 45.5089C109.104 45.5089 120.568 81.6786 124.147 93.1211L101.951 118.324Z" fill="#FFC9B1"/>
<path d="M157.262 65.1384C158.482 64.8969 159.304 64.1939 159.066 62.6834C158.29 57.7228 149.997 53.0362 149.997 53.0362C149.997 53.0362 153.323 45.0365 146.794 38.8574" stroke="#B6694F" stroke-width="1.30071" stroke-miterlimit="10" stroke-linecap="round"/>
<path d="M171.76 65.6288C168.784 63.8875 157.875 57.5101 155.289 56.1835" stroke="#B6694F" stroke-width="1.30071" stroke-miterlimit="10" stroke-linecap="round"/>
<path d="M174.198 60.0733C170.475 57.8454 161.406 52.2035 157.662 50.2423" stroke="#B6694F" stroke-width="1.30071" stroke-miterlimit="10" stroke-linecap="round"/>
<path d="M175.551 53.9807C170.862 50.8732 162.017 45.1159 158.518 43.3494" stroke="#B6694F" stroke-width="1.30071" stroke-miterlimit="10" stroke-linecap="round"/>
<path d="M154.871 55.4984C156.119 53.2416 158.255 48.7569 158.37 41.5684" stroke="#B6694F" stroke-width="1.30071" stroke-miterlimit="10" stroke-linecap="round"/>
<path d="M108.969 46.3524L100.521 42.5166" stroke="#B6694F" stroke-width="1.30071" stroke-linecap="round" stroke-linejoin="round"/>
<path d="M194.771 254.567C194.269 254.567 193.775 254.448 193.328 254.22C192.882 253.992 192.496 253.662 192.202 253.256C191.908 252.85 191.714 252.38 191.637 251.885C191.56 251.389 191.602 250.883 191.759 250.407L201.708 220.153C201.918 219.522 202.323 218.973 202.864 218.585C203.404 218.196 204.054 217.988 204.72 217.99H211.682C212.235 217.989 212.779 218.134 213.259 218.408C213.739 218.682 214.139 219.078 214.419 219.554C214.699 220.031 214.849 220.573 214.855 221.125C214.861 221.678 214.722 222.223 214.452 222.705L197.541 252.959C197.263 253.448 196.86 253.855 196.374 254.138C195.887 254.42 195.334 254.568 194.771 254.567Z" fill="#1F5BE8"/>
<path d="M150.077 48.2343C157.289 48.2343 163.135 42.3914 163.135 35.1839C163.135 27.9764 157.289 22.1335 150.077 22.1335C142.865 22.1335 137.019 27.9764 137.019 35.1839C137.019 42.3914 142.865 48.2343 150.077 48.2343Z" fill="#151414"/>
<path d="M139.936 43.252C140.979 43.7243 132.137 23.0636 127.707 26.337C123.541 29.4049 134.662 40.8547 139.936 43.252Z" fill="#1F5BE8"/>
<path d="M138.815 43.2123C139.681 44.2938 160.549 37.4442 157.76 33.1974C155.084 29.1237 137.949 42.138 138.815 43.2123Z" fill="#1F5BE8"/>
<path d="M164.39 28.2118C169.034 28.2118 172.799 24.4494 172.799 19.8083C172.799 15.1673 169.034 11.4049 164.39 11.4049C159.746 11.4049 155.981 15.1673 155.981 19.8083C155.981 24.4494 159.746 28.2118 164.39 28.2118Z" fill="#151414"/>
<path d="M106.962 168.745H149.9L152.165 158.016H100.43L106.962 168.745Z" fill="#FFDCC8"/>
<path d="M106.588 133.343C106.588 133.343 115.357 121.9 131.814 120.826L142.74 97.3679C139.822 96.9028 137.719 96.6072 137.719 96.6072C138.152 95.5617 139.623 92.1009 141.402 87.8325C138.184 85.6946 132.928 81.4911 131.713 76.1881C135.572 75.6077 143.256 71.9665 140.222 65.5964C136.507 57.7842 126.673 63.7938 126.673 63.7938C123.688 60.4096 121.781 56.212 121.197 51.7385C120.003 51.861 116.584 51.4969 114.156 50.1847L113.994 50.0909C112.695 52.64 111.529 55.2548 110.502 57.9248C110.231 58.6097 109.971 59.2731 109.697 59.904C109.697 59.904 106.303 59.3271 105.607 60.7295C104.745 62.46 107.327 64.6951 107.327 64.6951C105.264 68.5742 103.435 71.7502 104.099 75.7735C104.683 79.3245 108.034 83.6398 115.931 84.3608L111.963 96.874L97.1729 122.538C100.073 124.236 103.969 127.47 106.588 133.343Z" fill="#FFDCC8"/>
<path d="M211.082 83.1025C206.425 77.2948 189.799 53.5806 184.247 49.1319C180.669 46.2695 178.523 48.7714 178.523 48.7714C178.523 48.7714 173.155 45.5521 173.155 50.9164C167.787 47.6971 167.787 53.7753 167.787 53.7753C167.787 53.7753 162.777 52.6937 164.927 58.7827C167.239 65.3295 193.193 112.585 193.193 112.585C193.193 112.585 166.355 102.574 155.981 99.9058C154.076 99.4155 151.742 98.9324 149.387 98.4926C147.868 102.047 145.494 107.866 141.667 117.599C136.473 130.776 138.998 143.949 154.029 149.176L156.695 136.559C156.695 136.559 184.471 146.992 199.982 146.57C252.587 145.142 217.525 91.1454 211.082 83.1025Z" fill="#FFDCC8"/>
<path d="M121.196 51.7384C121.778 56.2249 123.69 60.4348 126.686 63.8262C126.686 63.8262 136.52 57.7985 140.235 65.6287C143.269 71.9989 135.586 75.64 131.726 76.2204C132.941 81.5235 138.197 85.727 141.415 87.8648C144.055 81.5235 147.367 73.3941 148.925 68.7579C151.23 61.8867 152.421 51.2373 142.071 43.544C132.386 36.3591 121.286 41.125 118.783 43.6269C117.297 45.1122 115.897 46.511 114.007 50.1161L114.169 50.2098C116.582 51.4824 120.002 51.8465 121.196 51.7384Z" fill="#151414"/>
<path d="M141.668 117.61C145.495 107.898 147.869 102.065 149.388 98.5035C147.064 98.0673 144.723 97.6744 142.754 97.3607L131.838 120.826C115.382 121.908 106.612 133.343 106.612 133.343C103.979 127.47 100.083 124.237 97.201 122.528L93.904 128.249C92.2204 131.262 91.3667 134.667 91.43 138.118C91.4934 141.568 92.4716 144.94 94.2647 147.889L100.426 158.009H152.165L154.03 149.18C138.999 143.96 136.474 130.787 141.668 117.61Z" fill="#1F5BE8"/>
<path d="M116.153 85.0997C118.399 85.0876 120.631 84.7574 122.783 84.1191" stroke="#B6694F" stroke-width="1.30071" stroke-miterlimit="10" stroke-linecap="round"/>
<path d="M168.824 66.1046C169.088 65.1889 169.737 64.5941 171.01 64.6842C176.021 65.0447 181.385 72.911 181.385 72.911C181.385 72.911 189.086 68.9454 195.792 74.9118" stroke="#B6694F" stroke-width="1.30071" stroke-miterlimit="10" stroke-linecap="round"/>
<path d="M168.517 53.5806C171.316 57.9896 176.518 66.1983 177.805 68.2604" stroke="#B6694F" stroke-width="1.30071" stroke-miterlimit="10" stroke-linecap="round"/>
<path d="M173.683 50.5199C176.568 54.7667 181.619 62.0129 183.534 65.0447" stroke="#B6694F" stroke-width="1.30071" stroke-miterlimit="10" stroke-linecap="round"/>
<path d="M179.332 48.8544C182.939 53.4544 188.466 60.5925 190.331 63.6352" stroke="#B6694F" stroke-width="1.30071" stroke-miterlimit="10" stroke-linecap="round"/>
<path d="M178.523 68.2605C180.688 66.8184 184.962 64.3273 192.119 63.6135" stroke="#B6694F" stroke-width="1.30071" stroke-miterlimit="10" stroke-linecap="round"/>
<path d="M137.635 95.8427L131.293 95.082" stroke="#B6694F" stroke-width="1.30071" stroke-miterlimit="10" stroke-linecap="round"/>
<path d="M115.19 165.168L114.833 164.455" stroke="#151414" stroke-width="1.30071" stroke-miterlimit="10" stroke-linecap="round"/>
<path d="M156.343 137.251L152.761 135.845" stroke="#B6694F" stroke-width="1.30071" stroke-miterlimit="10" stroke-linecap="round"/>
<path d="M201.423 115.105L193.288 111.911" stroke="#B6694F" stroke-width="1.30071" stroke-miterlimit="10" stroke-linecap="round"/>
<path d="M152.165 158.016H100.43" stroke="#151414" stroke-width="1.30071" stroke-linecap="round" stroke-linejoin="round"/>
<path d="M131.293 120.826L126.066 132.492C125.282 134.239 124.009 135.722 122.401 136.763C120.792 137.803 118.917 138.357 117.001 138.358H91.3896" stroke="#151414" stroke-width="1.30071" stroke-linecap="round" stroke-linejoin="round"/>
<path d="M109.282 69.0427C109.899 69.5727 112.403 70.2937 113.741 68.4875" stroke="#B6694F" stroke-width="1.30071" stroke-miterlimit="10" stroke-linecap="round"/>
<path d="M134.699 67.9216L130.168 69.6772" stroke="#FFC9B1" stroke-width="1.30071" stroke-miterlimit="10" stroke-linecap="round"/>
<path d="M117.799 60.8376C117.454 60.9237 117.095 60.9382 116.744 60.8802C116.394 60.8222 116.058 60.6929 115.759 60.5003C115.461 60.3078 115.204 60.056 115.007 59.7605C114.809 59.4651 114.674 59.1323 114.61 58.7827" stroke="#B6694F" stroke-width="1.30071" stroke-linecap="round" stroke-linejoin="round"/>
<path d="M129.97 74.3062L128.332 80.9936C128.244 81.3396 128.248 81.7024 128.341 82.0467C128.435 82.391 128.617 82.7053 128.868 82.9591C129.119 83.2129 129.431 83.3977 129.775 83.4954C130.118 83.5932 130.481 83.6007 130.828 83.5172L136.942 82.0752C137.288 81.9914 137.605 81.8205 137.865 81.5788C138.126 81.337 138.319 81.0326 138.428 80.6947C138.536 80.3568 138.556 79.9966 138.486 79.6487C138.415 79.3009 138.256 78.977 138.025 78.708L133.548 73.477C133.301 73.1906 132.98 72.9771 132.621 72.8596C132.261 72.7422 131.876 72.7252 131.508 72.8106C131.139 72.896 130.801 73.0805 130.53 73.3441C130.259 73.6077 130.065 73.9404 129.97 74.3062Z" fill="white"/>
<path d="M143.742 229.692C140.164 225.398 127.715 209.864 127.715 209.864" stroke="#151414" stroke-width="1.30071" stroke-linecap="round" stroke-linejoin="round"/>
<path d="M240.418 194.86C239.105 191.313 236.695 185.368 233.722 178.23L201.82 187.534L198.162 188.688C199.807 199.319 201.069 204.504 201.069 204.504C201.069 204.504 166.721 173.035 149.904 168.745H106.948L92.2773 254.567H220.372C256.885 254.567 246.507 211.299 240.418 194.86Z" fill="white"/>
<path d="M205.683 112.841C205.267 111.852 204.522 111.038 203.574 110.537C202.625 110.035 201.533 109.877 200.481 110.09C194.121 111.51 193.627 123.544 192.119 130.48C189.616 141.927 184.248 146.217 183.891 153.726C183.53 160.936 194.984 163.737 194.984 163.737C195.373 167.513 195.769 171.018 196.17 174.253L228.051 164.729C219.307 144.129 208.951 120.332 205.683 112.841Z" fill="#FFC9B1"/>
<path d="M198.144 188.605V188.688L201.801 187.534L198.144 188.605Z" fill="#FFC9B1"/>
<path d="M233.729 178.219C233.636 177.999 233.545 177.775 233.452 177.552L201.819 187.534L233.729 178.219Z" fill="#1F5BE8"/>
<path d="M233.451 177.555C231.788 173.568 229.956 169.224 228.04 164.732L196.159 174.257C196.841 179.823 197.516 184.6 198.132 188.609L201.805 187.527L233.451 177.555Z" fill="#1F5BE8"/>
<path d="M136.795 168.633C148.23 180.62 207.361 241.383 225.754 235.255C239.184 230.781 219.409 186.702 217.526 180.901" stroke="#1F5BE8" stroke-width="1.30071" stroke-linecap="round" stroke-linejoin="round"/>
<path d="M216.608 217.428C212.463 213.714 205.065 207.092 201.133 203.595" stroke="#151414" stroke-width="1.30071" stroke-linecap="round" stroke-linejoin="round"/>
<path d="M193.552 155.514L194.252 162.987" stroke="#B6694F" stroke-width="1.30071" stroke-linecap="round" stroke-linejoin="round"/>
<path d="M202.541 110.724L203.897 114.524" stroke="#B6694F" stroke-width="1.30071" stroke-linecap="round" stroke-linejoin="round"/>
<path d="M199.295 111.085L201.488 116.475" stroke="#B6694F" stroke-width="1.30071" stroke-linecap="round" stroke-linejoin="round"/>
<path d="M116.157 216.433L115.955 216.371L123.418 168.672H106.948C106.948 168.672 41.1254 193.778 26.0975 217.734C11.892 240.377 37.9041 254.567 45.4181 254.567H110.952L116.157 216.433Z" fill="white"/>
<path d="M185.32 254.567C193.909 254.567 191.048 244.909 184.959 241.693C178.87 238.478 171.72 235.255 164.206 225.244C156.692 215.232 147.746 217.734 142.022 224.883C142.022 224.883 137.657 223.315 131.243 221.188L126.222 254.564L185.32 254.567Z" fill="#FFDCC8"/>
<path d="M116.785 216.62L116.157 216.433L110.952 254.567H126.225L131.247 221.177C127.077 219.811 122.045 218.192 116.785 216.62Z" fill="#1F5BE8"/>
<path d="M181.384 250.634L186.668 253.846" stroke="#151414" stroke-width="1.30071" stroke-linecap="round" stroke-linejoin="round"/>
<path d="M80.8418 208.08C95.8697 210.938 102.37 212.766 115.966 217.092" stroke="#151414" stroke-width="1.30071" stroke-linecap="round" stroke-linejoin="round"/>
<path d="M177.092 252.422L180.176 254.207" stroke="#151414" stroke-width="1.30071" stroke-linecap="round" stroke-linejoin="round"/>
<path d="M142.742 224.439L147.749 226.318" stroke="#151414" stroke-width="1.30071" stroke-linecap="round" stroke-linejoin="round"/>
</g>
<defs>
<clipPath id="clip0">
<rect width="269.322" height="254.428" fill="white" transform="translate(0.677734 0.636047)"/>
</clipPath>
</defs>
</svg>
