<svg width="709" height="497" viewBox="0 0 709 497" fill="none" xmlns="http://www.w3.org/2000/svg">
<path d="M225.426 107.998C228.913 107.998 231.74 105.172 231.74 101.684C231.74 98.1971 228.913 95.3701 225.426 95.3701C221.938 95.3701 219.111 98.1971 219.111 101.684C219.111 105.172 221.938 107.998 225.426 107.998Z" fill="#151414"/>
<path d="M225.423 79.7356V99.5829" stroke="#151414" stroke-width="2.3201" stroke-miterlimit="10"/>
<path d="M252.634 86.3542H243.025V169.343H252.634V86.3542Z" fill="#151414"/>
<path d="M276.43 17.9282C274.508 21.728 266.447 34.9928 247.829 34.9928C229.211 34.9928 221.156 21.728 219.228 17.9282L201.228 86.3548H294.437L276.43 17.9282Z" fill="#428EFF"/>
<path d="M268.662 19.2566L280.766 86.3667" stroke="#1049D0" stroke-width="2.3201" stroke-miterlimit="10" stroke-linecap="round"/>
<path d="M227 20.1304L215.052 86.3669" stroke="#1049D0" stroke-width="2.3201" stroke-miterlimit="10" stroke-linecap="round"/>
<path d="M239.981 19.7007L235.352 86.3428" stroke="#1049D0" stroke-width="2.3201" stroke-miterlimit="10" stroke-linecap="round"/>
<path d="M255.678 19.7007L260.32 86.4738" stroke="#1049D0" stroke-width="2.3201" stroke-miterlimit="10" stroke-linecap="round"/>
<path d="M247.851 34.9866C266.475 34.9866 274.53 21.7218 276.452 17.922V17.791H219.262L219.225 17.922C221.153 21.728 229.208 34.9866 247.851 34.9866Z" fill="#1049D0"/>
<path d="M221.796 5.05165C222.063 3.97816 223.589 3.97816 223.857 5.05165L226.059 13.896C226.154 14.2772 226.452 14.5747 226.833 14.6697L235.677 16.8725C236.751 17.1399 236.751 18.6657 235.677 18.933L226.833 21.1359C226.452 21.2308 226.154 21.5284 226.059 21.9095L223.857 30.7539C223.589 31.8274 222.063 31.8274 221.796 30.7539L219.593 21.9095C219.498 21.5284 219.201 21.2308 218.82 21.1359L209.975 18.933C208.902 18.6657 208.902 17.1399 209.975 16.8725L218.82 14.6697C219.201 14.5747 219.498 14.2772 219.593 13.896L221.796 5.05165Z" fill="white"/>
<path d="M247.524 494.686C245.788 494.687 244.112 494.054 242.811 492.904C241.51 491.755 240.674 490.17 240.461 488.447L235.195 444.204H259.853L254.587 488.447C254.375 490.17 253.54 491.756 252.239 492.906C250.937 494.055 249.26 494.689 247.524 494.686Z" fill="#151414"/>
<path d="M524.156 494.686C522.42 494.689 520.744 494.055 519.444 492.905C518.144 491.756 517.309 490.17 517.099 488.447L511.833 444.204H536.485L531.219 488.447C531.007 490.17 530.171 491.756 528.87 492.906C527.569 494.055 525.892 494.689 524.156 494.686Z" fill="#151414"/>
<path d="M102.845 261.355H213.536V444.791H52.375V311.819C52.3767 298.434 57.6947 285.599 67.1595 276.135C76.6242 266.671 89.4605 261.355 102.845 261.355Z" fill="white"/>
<path d="M226.728 169.344H608.1C621.485 169.344 634.322 174.661 643.787 184.126C653.252 193.591 658.57 206.428 658.57 219.813V444.772H176.271V219.807C176.271 206.422 181.588 193.585 191.053 184.12C200.518 174.655 213.355 169.337 226.74 169.337L226.728 169.344Z" fill="white"/>
<path d="M176.255 288.384V444.772" stroke="#A15842" stroke-width="2.3201" stroke-miterlimit="10" stroke-linecap="round"/>
<path d="M226.728 334.723H608.1C621.485 334.723 634.322 340.04 643.787 349.505C653.252 358.97 658.57 371.808 658.57 385.193V444.778H176.271V385.193C176.271 371.81 181.586 358.974 191.048 349.51C200.511 340.045 213.345 334.726 226.728 334.723Z" fill="white"/>
<path d="M459.891 334.723H224.906C211.999 334.723 199.62 339.85 190.493 348.977C181.367 358.104 176.239 370.483 176.239 383.39V444.797" stroke="#C8C8C8" stroke-width="2.3201" stroke-miterlimit="10" stroke-linecap="round"/>
<path d="M496.196 335.49V444.772" stroke="#C8C8C8" stroke-width="2.3201" stroke-miterlimit="10"/>
<path d="M658.568 260.15H546.042" stroke="#C8C8C8" stroke-width="2.3201" stroke-miterlimit="10"/>
<path d="M142.581 240.884C157.012 242.687 161.511 236.56 163.626 231.263C166.028 225.254 164.481 220.088 162.609 213.375C162.609 213.375 167.376 210.779 166.633 207.803C166.009 205.401 160.587 205.133 160.587 205.133C160.375 204.059 160.186 202.947 160.02 201.795C158.816 193.372 157.012 188.561 157.012 188.561C152.801 189.765 147.391 189.185 145.588 188.561C143.152 195.31 138.755 201.176 132.96 205.407C132.96 205.407 119.726 190.976 111.309 201.801C104.446 210.629 114.317 221.642 120.93 222.846C117 231.138 106.424 235.949 100.921 237.958C101.258 240.566 101.576 242.987 101.857 245.095H143.036L142.581 240.884Z" fill="#EAA58B"/>
<path d="M285.807 293.245C287.98 285.517 289.754 277.683 291.122 269.773L276.691 230.683C276.691 230.683 282.706 214.461 277.315 212.04C271.924 209.619 259.851 225.286 255.04 237.902C252.963 243.355 247.285 255.89 241.514 268.363L285.807 293.245Z" fill="#EAA58B"/>
<path d="M226.173 301.042C226.173 301.042 191.295 271.574 176.196 260.743C161.096 249.911 143.789 251.733 143.789 251.733L143.034 245.113H101.854C102.478 249.811 102.884 252.931 102.884 252.931L72.2236 362.387L163.623 355.169L161.221 321.476C161.221 321.476 210.512 362.656 238.801 358.762C264.313 355.231 278.807 318.394 285.802 293.25L241.503 268.367C233.934 284.752 226.173 301.042 226.173 301.042Z" fill="#49CEF9"/>
<path d="M120.933 222.865C114.32 221.661 104.443 210.648 111.312 201.82C119.729 190.995 132.963 205.426 132.963 205.426C138.757 201.195 143.155 195.329 145.591 188.58C147.394 189.204 152.804 189.784 157.015 188.58C157.015 188.58 166.037 185.573 165.432 178.36C164.627 168.677 149.796 172.944 149.796 172.944C149.796 172.944 133.574 160.915 116.104 168.733C97.4858 177.112 95.6764 194.002 96.8619 205.426C97.5482 211.984 99.4263 226.64 100.905 237.977C106.427 235.961 117.002 231.157 120.933 222.865Z" fill="#151414"/>
<path d="M288.195 277.29C285.444 278.426 283.029 278.757 281.956 278.139C279.261 276.604 278.836 273.391 282.037 268.874C282.037 268.874 274.431 271.837 272.085 267.981C269.739 264.125 273.265 260.575 273.265 260.575C273.265 260.575 267.88 262.06 266.564 257.268C265.247 252.477 269.683 249.968 269.683 249.968C269.683 249.968 266.651 248.839 266.564 245.676C266.445 241.077 273.938 237.346 276.097 236.367" stroke="#A15842" stroke-width="4.6402" stroke-miterlimit="10" stroke-linecap="round"/>
<path d="M162.551 321.346L160.323 295.334" stroke="#151414" stroke-width="2.3201" stroke-miterlimit="10" stroke-linecap="round"/>
<path d="M142.015 241.995C138.526 241.206 135.165 239.929 132.032 238.201" stroke="#A15842" stroke-width="2.3201" stroke-miterlimit="10" stroke-linecap="round"/>
<path d="M76.1279 354.264L91.6264 313.054" stroke="#151414" stroke-width="2.3201" stroke-miterlimit="10" stroke-linecap="round"/>
<path d="M157.709 219.539C156.717 220.163 152.986 220.637 151.47 217.773" stroke="#A15842" stroke-width="2.3201" stroke-miterlimit="10" stroke-linecap="round"/>
<path d="M152.205 206.026C153.2 206.026 154.008 205.218 154.008 204.223C154.008 203.227 153.2 202.419 152.205 202.419C151.209 202.419 150.401 203.227 150.401 204.223C150.401 205.218 151.209 206.026 152.205 206.026Z" fill="#A15842"/>
<path d="M119.129 209.637L125.743 213.243" stroke="#A15842" stroke-width="2.3201" stroke-miterlimit="10" stroke-linecap="round"/>
<path d="M287.845 470.204L333.91 456.571C330.398 444.429 323.678 421.412 319.354 408.004L261.871 432C269.393 445.471 278.085 458.255 287.845 470.204Z" fill="#EAA58B"/>
<path d="M288.719 471.234C287.371 476.352 286.535 481.592 286.224 486.876H367.715C366.152 483.113 363.376 479.982 359.829 477.978L336.226 464.614C336.226 464.614 335.327 461.494 333.911 456.565L287.846 470.204C288.407 470.878 288.719 471.234 288.719 471.234Z" fill="#428EFF"/>
<path d="M286.311 494.687H369.294L369.038 492.116C368.859 490.313 368.411 488.546 367.709 486.875H286.218C286.039 489.478 286.07 492.09 286.311 494.687Z" fill="#5FB2FF"/>
<path d="M245.42 393.66C249.401 407.387 255.496 420.558 261.873 432.001L319.356 408.005C318.732 405.989 318.108 404.192 317.584 402.676C299.596 350.696 288.721 308.893 262.26 304.657C220.612 298.03 149.765 369.758 139.127 380.776L154.451 390.066L202.631 412.696L220.182 416.746L245.42 393.66Z" fill="#1049D0"/>
<path d="M244.107 393.123C242.743 386.472 242.074 379.697 242.111 372.908" stroke="#151414" stroke-width="2.3201" stroke-miterlimit="10" stroke-linecap="round"/>
<path d="M467.328 251.13C467.328 251.13 409.695 266.335 384.345 280.598C355.476 296.82 353.673 318.483 335.635 373.208C329.826 390.822 325.72 404.972 321.908 416.091L371.598 439.551L371.692 439.364C371.692 439.364 396.025 435.788 398.153 405.671C399.756 383.21 400.524 366.544 408.373 349.742L542.48 251.117L467.328 251.13Z" fill="#151414"/>
<path d="M295.117 449.127C277.741 451.76 270.49 455.142 267.664 463.022L300.489 478.302C300.489 478.302 318.09 473.311 327.568 475.75V475.781C333.916 477.271 340.114 479.345 346.08 481.977C355.859 468.629 364.421 454.429 371.661 439.55L321.971 416.09C314.846 436.898 308.906 447.037 295.117 449.127Z" fill="#52ACFF"/>
<path d="M319.662 487.237L335.672 494.687C339.37 490.653 342.832 486.41 346.042 481.977C340.076 479.345 333.879 477.271 327.53 475.782L319.662 487.237Z" fill="#151414"/>
<path d="M311.443 436.162L322.587 441.035" stroke="#F5EBDD" stroke-width="2.3201" stroke-miterlimit="10" stroke-linecap="round"/>
<path d="M305.111 443.893L316.255 448.772" stroke="#F5EBDD" stroke-width="2.3201" stroke-miterlimit="10" stroke-linecap="round"/>
<path d="M525.658 117.321C529.145 117.321 531.972 114.494 531.972 111.007C531.972 107.519 529.145 104.692 525.658 104.692C522.171 104.692 519.344 107.519 519.344 111.007C519.344 114.494 522.171 117.321 525.658 117.321Z" fill="#428EFF"/>
<path d="M547.914 71.3182C561.863 71.3182 573.171 60.0104 573.171 46.0614C573.171 32.1125 561.863 20.8047 547.914 20.8047C533.965 20.8047 522.657 32.1125 522.657 46.0614C522.657 60.0104 533.965 71.3182 547.914 71.3182Z" fill="#151414"/>
<path d="M530.495 62.9017C532.042 63.613 519.071 32.8282 512.457 37.6387C506.205 42.1685 522.652 59.3203 530.495 62.9017Z" fill="#49CEF9"/>
<path d="M531.187 64.7787C532.604 66.4696 565.684 54.8957 561.136 48.2133C556.7 41.7931 529.777 63.0629 531.187 64.7787Z" fill="#49CEF9"/>
<path d="M593.02 185.579L595.915 185.129V184.281C594.978 184.774 594.011 185.208 593.02 185.579Z" fill="#151414"/>
<path d="M514.234 178.966C542.386 179.477 556.593 150.814 560.199 142.26C558.951 142.029 557.704 141.829 556.331 141.68C540.109 139.876 537.089 139.277 531.673 132.058C526.257 124.84 525.658 110.408 525.658 110.408C525.658 110.408 539.684 107.288 537.688 95.9765C535.885 85.7503 523.855 85.7503 517.242 92.9692C517.242 92.9692 507.015 90.5608 497.394 79.7356C497.394 79.7356 490.356 81.389 485.54 80.5841C484.292 88.4581 484.367 97.2681 482.944 104.393C480.536 116.423 482.32 124.241 489.558 128.452C496.795 132.664 505.193 129.65 505.193 129.65L503.39 140.475C503.39 140.475 492.89 141.692 484.136 144.444C485.877 158.033 492.135 178.566 514.234 178.966Z" fill="#F5C6B7"/>
<path d="M553.324 251.129L556.6 248.908L550.922 251.129H553.324Z" fill="#A15842"/>
<path d="M423.428 181.375C423.428 181.375 391.901 138.323 384.339 129.651C375.916 120.03 364.491 109.81 360.885 113.428C357.279 117.047 367.499 129.064 367.499 129.064L365.696 168.153C365.696 168.153 386.41 224.014 408.996 231.302C420.289 234.945 441.74 225.337 456.896 217.201L433.454 174.773C427.496 178.679 423.428 181.375 423.428 181.375Z" fill="#F5C6B7"/>
<path d="M593.018 185.578C593.018 185.578 590.61 172.351 587.603 165.132C583.104 154.326 575.679 145.166 560.2 142.259C556.593 150.813 542.386 179.476 514.234 178.965C492.135 178.565 485.877 158.032 484.155 144.443C482.311 145.006 480.506 145.69 478.752 146.489C472.406 149.453 447.605 165.513 433.454 174.772L456.87 217.174C466.722 211.89 473.916 207.191 473.916 207.191L467.302 251.091H550.909L556.587 248.87L595.895 222.203C595.844 209.94 594.882 197.699 593.018 185.578Z" fill="#5FB2FF"/>
<path d="M610.458 154.913C606.147 134.442 583.997 135.066 583.997 135.066C585.072 130.167 584.921 125.079 583.557 120.253C582.194 115.427 579.659 111.012 576.179 107.401C564.15 94.7726 547.31 100.182 547.31 100.182C547.934 92.9694 549.113 74.3263 533.478 62.9021C517.842 51.478 498.001 57.4864 490.782 66.5085C487.843 70.1834 486.414 75.1624 485.56 80.5844C490.358 81.3892 497.414 79.7358 497.414 79.7358C507.035 90.561 517.262 92.9694 517.262 92.9694C523.875 85.7505 535.905 85.7505 537.708 95.9767C539.704 107.289 525.678 110.408 525.678 110.408C525.678 110.408 526.302 124.84 531.693 132.059C537.084 139.278 540.116 139.877 556.351 141.68C557.699 141.829 558.984 142.029 560.219 142.26C575.699 145.161 583.124 154.327 587.622 165.133C590.63 172.352 593.038 185.58 593.038 185.58C594.019 185.208 594.976 184.774 595.902 184.282C601.729 181.249 614.177 172.571 610.458 154.913Z" fill="#151414"/>
<path d="M524.459 100.181L529.27 97.1799" stroke="#A7756A" stroke-width="2.3201" stroke-miterlimit="10" stroke-linecap="round"/>
<path d="M493.682 114.3C494.68 114.924 498.405 115.398 499.921 112.534" stroke="#A7756A" stroke-width="2.3201" stroke-miterlimit="10" stroke-linecap="round"/>
<path d="M503.489 100.768C504.485 100.768 505.292 99.9604 505.292 98.9646C505.292 97.9687 504.485 97.1614 503.489 97.1614C502.493 97.1614 501.686 97.9687 501.686 98.9646C501.686 99.9604 502.493 100.768 503.489 100.768Z" fill="#A7756A"/>
<path d="M489.579 98.3778C490.574 98.3778 491.382 97.5705 491.382 96.5746C491.382 95.5788 490.574 94.7715 489.579 94.7715C488.583 94.7715 487.775 95.5788 487.775 96.5746C487.775 97.5705 488.583 98.3778 489.579 98.3778Z" fill="#A7756A"/>
<path d="M494.389 101.386C494.389 101.386 492.748 105.497 493.141 106.321C493.426 106.85 493.86 107.284 494.389 107.569" stroke="#A7756A" stroke-width="2.3201" stroke-miterlimit="10" stroke-linecap="round"/>
<path d="M371.391 176.27C372.369 176.261 373.319 175.942 374.105 175.359C376.232 173.231 375.802 170.118 371.646 166.724C371.646 166.724 379.52 167.541 380.718 163.329C381.916 159.118 377.717 156.716 377.717 156.716C377.717 156.716 383.127 156.716 383.127 151.905C383.127 147.095 378.316 145.891 378.316 145.891C378.316 145.891 380.862 144.05 380.119 141.08C378.915 136.269 368.695 135.065 368.695 135.065L367.285 133.343" stroke="#A7756A" stroke-width="4.6402" stroke-linecap="round" stroke-linejoin="round"/>
<path d="M505.537 130.821C508.074 129.814 510.549 128.657 512.949 127.359" stroke="#A7756A" stroke-width="2.3201" stroke-miterlimit="10" stroke-linecap="round"/>
<path d="M424.926 181.236L431.246 189.79" stroke="#A7756A" stroke-width="2.3201" stroke-miterlimit="10" stroke-linecap="round"/>
<path d="M475.976 187.375L472.906 206.642" stroke="#151414" stroke-width="2.3201" stroke-miterlimit="10" stroke-linecap="round"/>
<path d="M550.315 226.471L550.016 195.505" stroke="#151414" stroke-width="2.3201" stroke-miterlimit="10" stroke-linecap="round"/>
<path d="M584.909 135.908C584.04 139.156 582.877 142.318 581.434 145.354" stroke="black" stroke-width="2.3201" stroke-linecap="round" stroke-linejoin="round"/>
<path d="M548.414 100.874L546.711 109.808" stroke="black" stroke-width="2.3201" stroke-linecap="round" stroke-linejoin="round"/>
<path d="M511.831 251.734C511.831 251.734 460.107 267.956 431.244 281.801C402.543 295.528 405.988 327.504 411.397 383.433C413.312 403.206 415.552 418.685 416.688 430.946H471.594C474.414 429.373 491.061 418.685 481.134 389.448C473.884 368.103 467.626 353.965 467.626 335.422H513.547C526.61 335.422 539.158 330.33 548.526 321.226C557.894 312.122 563.344 299.725 563.717 286.668L564.722 251.728L511.831 251.734Z" fill="#151414"/>
<path d="M406.22 470.491C391.595 480.237 386.46 486.364 387.221 494.706L423.409 494.656C423.409 494.656 437.242 482.683 446.863 480.879C453.239 479.668 459.715 479.064 466.205 479.076C468.407 468.288 470.778 452.097 471.196 431.171L471.595 430.965H416.689C418.605 451.542 417.388 463.035 406.22 470.491Z" fill="#52ACFF"/>
<path d="M444.598 494.599H462.261C462.261 494.599 464.183 489.227 466.254 479.082C459.764 479.07 453.288 479.673 446.912 480.885L444.598 494.599Z" fill="#151414"/>
<path d="M467.072 336.526H452.896" stroke="#6F6F6F" stroke-width="2.3201" stroke-linecap="round" stroke-linejoin="round"/>
<path d="M415.587 454.7H429.145" stroke="#F5EBDD" stroke-width="2.3201" stroke-miterlimit="10" stroke-linecap="round"/>
<path d="M412.569 464.32H426.127" stroke="#F5EBDD" stroke-width="2.3201" stroke-miterlimit="10" stroke-linecap="round"/>
<path d="M547.864 261.355H658.569V444.791H497.426V311.819C497.427 298.44 502.741 285.609 512.199 276.146C521.657 266.683 534.485 261.363 547.864 261.355Z" fill="white"/>
<path d="M630.903 444.872C632.381 440.628 635.144 436.948 638.808 434.344C642.471 431.741 646.855 430.342 651.349 430.342C655.844 430.342 660.227 431.741 663.891 434.344C667.555 436.948 670.317 440.628 671.796 444.872C673.209 440.821 675.793 437.281 679.221 434.701C682.649 432.12 686.766 430.616 691.05 430.378C689.137 426.966 686.859 423.771 684.255 420.851L676.394 412.047C673.946 409.301 672.403 405.868 671.974 402.215C671.546 398.561 672.252 394.864 673.998 391.626L680.674 379.222C678.802 381.094 667.971 391.252 651.53 391.252C635.09 391.252 624.265 381.113 622.393 379.222L629.075 391.626C630.817 394.866 631.521 398.563 631.09 402.216C630.659 405.869 629.115 409.302 626.667 412.047L618.805 420.851C616.196 423.776 613.913 426.977 611.998 430.397C616.219 430.698 620.259 432.23 623.619 434.802C626.979 437.375 629.511 440.876 630.903 444.872Z" fill="#85E9FF"/>
<path d="M692.242 457.388C687.747 457.39 683.364 458.791 679.7 461.396C676.036 464.001 673.274 467.681 671.795 471.926C670.32 467.678 667.559 463.995 663.895 461.389C660.231 458.783 655.846 457.382 651.349 457.382C646.853 457.382 642.468 458.783 638.804 461.389C635.14 463.995 632.378 467.678 630.903 471.926C629.117 466.793 625.466 462.52 620.675 459.954C615.884 457.388 610.303 456.717 605.041 458.074C605.349 471.802 610.889 484.894 620.527 494.674H682.471C692.09 484.915 697.626 471.855 697.951 458.155C696.09 457.648 694.17 457.39 692.242 457.388Z" fill="#85E9FF"/>
<path d="M651.5 391.252C667.94 391.252 678.766 381.113 680.644 379.222H622.362C624.234 381.113 635.066 391.252 651.5 391.252Z" fill="#151414"/>
<path d="M630.904 471.938C632.379 467.69 635.14 464.007 638.804 461.401C642.469 458.795 646.853 457.394 651.35 457.394C655.846 457.394 660.231 458.795 663.895 461.401C667.559 464.007 670.321 467.69 671.796 471.938C673.598 466.754 677.301 462.449 682.157 459.892C687.013 457.336 692.658 456.719 697.951 458.167C698.2 448.451 695.815 438.849 691.051 430.377C686.767 430.615 682.65 432.119 679.222 434.7C675.794 437.28 673.209 440.82 671.796 444.871C670.318 440.627 667.555 436.947 663.892 434.343C660.228 431.74 655.845 430.341 651.35 430.341C646.855 430.341 642.472 431.74 638.808 434.343C635.144 436.947 632.382 440.627 630.904 444.871C629.508 440.866 626.966 437.359 623.594 434.785C620.222 432.212 616.168 430.686 611.936 430.396C607.206 438.843 604.835 448.408 605.073 458.086C610.335 456.729 615.916 457.4 620.707 459.966C625.497 462.532 629.148 466.805 630.935 471.938H630.904Z" fill="#49CEF9"/>
<path d="M655.818 389.548C657.004 382.273 662.413 353.41 676.009 337.762" stroke="#151414" stroke-width="2.3201" stroke-miterlimit="10" stroke-linecap="round"/>
<path d="M649.533 389.754C649.446 381.493 648.597 340.9 640.523 316.679" stroke="#151414" stroke-width="2.3201" stroke-miterlimit="10" stroke-linecap="round"/>
<path d="M685.299 361.318C697.221 356.072 705.929 349.646 704.75 346.965C703.57 344.285 692.949 346.364 681.027 351.61C669.104 356.856 660.396 363.282 661.575 365.963C662.755 368.644 673.376 366.564 685.299 361.318Z" fill="#151414"/>
<path d="M685.291 287.565C689.576 281.772 691.41 275.864 689.388 274.368C687.365 272.872 682.252 276.355 677.967 282.148C673.683 287.941 671.848 293.849 673.871 295.345C675.893 296.841 681.006 293.358 685.291 287.565Z" fill="#151414"/>
<path d="M620.768 365.506C636.308 363.156 648.569 359.025 648.154 356.278C647.739 353.532 634.804 353.211 619.264 355.561C603.725 357.912 591.464 362.043 591.879 364.789C592.294 367.535 605.229 367.856 620.768 365.506Z" fill="#151414"/>
<path d="M609.909 324.935V324.978C612.202 326.263 613.931 328.36 614.756 330.856C615.581 333.353 615.441 336.067 614.364 338.465C613.287 340.863 611.351 342.771 608.937 343.814C606.524 344.856 603.807 344.956 601.323 344.095V344.139C614.351 349.992 626.842 350.435 629.225 345.131C631.609 339.828 622.936 330.787 609.909 324.935Z" fill="#5FB2FF"/>
<path d="M648.419 282.512C645.643 281.795 642.036 285.988 639.403 292.495C636.234 284.615 631.635 279.343 628.541 280.366C625.446 281.389 624.884 288.359 627.031 296.588C621.053 292.945 615.656 291.722 613.859 293.949C611.563 296.794 615.987 304.169 623.743 310.427C625.949 312.227 628.325 313.808 630.837 315.15C631.264 313.452 632.109 311.888 633.295 310.599C634.481 309.31 635.97 308.338 637.627 307.771C639.283 307.204 641.056 307.06 642.782 307.351C644.509 307.643 646.136 308.361 647.514 309.441C648.677 306.941 649.606 304.338 650.291 301.667C652.787 291.996 651.957 283.43 648.419 282.512Z" fill="#5FB2FF"/>
<path d="M708.877 326.294C708.023 323.561 702.557 322.719 695.656 323.911C700.648 317.047 702.719 310.365 700.211 308.275C697.703 306.185 691.476 309.404 685.648 315.569C685.58 308.568 683.777 303.346 680.925 302.996C677.3 302.553 673.376 310.209 672.19 320.098C671.831 322.922 671.746 325.774 671.934 328.615C673.602 328.08 675.377 327.97 677.097 328.295C678.818 328.62 680.431 329.37 681.788 330.476C683.145 331.583 684.205 333.011 684.87 334.631C685.536 336.251 685.786 338.011 685.598 339.752C688.336 339.418 691.037 338.831 693.666 337.999C703.143 335.023 709.969 329.782 708.877 326.294Z" fill="#5FB2FF"/>
<path d="M681.842 330.55C680.483 329.416 678.859 328.644 677.121 328.306C675.384 327.968 673.589 328.074 671.903 328.615C672.24 333.32 673.432 336.92 675.223 338.262C676.888 339.809 680.757 340.321 685.567 339.753C685.754 338.03 685.511 336.289 684.861 334.683C684.211 333.077 683.174 331.657 681.842 330.55Z" fill="#151414"/>
<path d="M637.736 307.713C636.055 308.268 634.54 309.239 633.335 310.536C632.129 311.833 631.272 313.414 630.842 315.132C635.01 317.334 638.697 318.251 640.781 317.415C642.977 316.791 645.454 313.809 647.52 309.423C646.156 308.353 644.55 307.637 642.843 307.338C641.136 307.04 639.381 307.169 637.736 307.713Z" fill="#151414"/>
<path d="M611.069 342.585C609.955 341.959 609.115 340.939 608.716 339.724C608.317 338.51 608.388 337.19 608.914 336.025C609.44 334.86 610.384 333.935 611.56 333.432C612.735 332.929 614.056 332.884 615.262 333.307C615.122 331.582 614.559 329.918 613.622 328.463C612.685 327.007 611.403 325.806 609.89 324.965L601.305 344.083C602.93 344.654 604.671 344.816 606.374 344.555C608.077 344.293 609.69 343.617 611.069 342.585Z" fill="#F5EBDD"/>
<path d="M608.878 336.034C608.354 337.203 608.288 338.527 608.693 339.743C609.099 340.958 609.947 341.977 611.068 342.598C612.497 341.534 613.632 340.124 614.365 338.501C615.099 336.878 615.407 335.095 615.261 333.32C614.051 332.886 612.722 332.925 611.539 333.428C610.356 333.931 609.406 334.861 608.878 336.034Z" fill="#52ACFF"/>
<path d="M368.096 129.051C368.096 129.051 354.868 129.051 353.065 134.461C351.262 139.87 355.467 144.088 355.467 144.088C355.467 144.088 348.255 147.694 353.065 154.308C353.065 154.308 349.453 160.323 355.467 163.929C355.467 163.929 351.861 168.141 357.876 172.352C363.89 176.564 372.307 177.163 374.098 175.359C376.226 173.232 375.795 170.118 371.64 166.724C371.64 166.724 379.514 167.542 380.712 163.33C381.91 159.119 377.711 156.716 377.711 156.716C377.711 156.716 383.12 156.716 383.12 151.906C383.12 147.095 378.31 145.891 378.31 145.891C378.31 145.891 380.855 144.051 380.113 141.081C379.227 137.543 373.474 135.958 370.485 135.365C369.691 135.219 368.889 135.119 368.083 135.066L368.096 129.051Z" fill="#F5C6B7"/>
<path d="M356.161 164.433C362.136 166.239 368.288 167.396 374.511 167.883" stroke="#A7756A" stroke-width="2.3201" stroke-miterlimit="10" stroke-linecap="round"/>
<path d="M353.92 154.781C362.625 156.935 371.588 157.857 380.549 157.52" stroke="#A7756A" stroke-width="2.3201" stroke-miterlimit="10" stroke-linecap="round"/>
<path d="M355.824 144.798C364.076 146.78 372.607 147.325 381.044 146.408" stroke="#A7756A" stroke-width="2.3201" stroke-miterlimit="10" stroke-linecap="round"/>
<path d="M549.114 243.335C549.114 243.335 500.403 255.97 483.563 268.598C475.958 274.301 466.717 284.821 463.722 289.644C460.727 294.467 448.087 312.498 454.101 313.097C460.116 313.696 466.73 302.877 466.73 302.877C466.73 302.877 463.111 316.104 463.735 320.316C464.359 324.528 470.348 323.323 470.348 323.323C475.159 328.134 479.371 322.119 479.371 322.119C487.787 327.529 496.841 298.666 496.841 298.666C501.78 296.231 506.339 293.091 510.374 289.344C510.374 289.344 564.194 289.045 581.034 274.008C592.988 263.339 595.94 242.293 595.933 222.265H549.139L549.114 243.335Z" fill="#F5C6B7"/>
<path d="M549.562 241.876L560.543 239.131" stroke="#A7756A" stroke-width="2.3201" stroke-miterlimit="10" stroke-linecap="round"/>
<path d="M464.359 307.645C467.479 297.038 469.975 290.799 471.847 286.937" stroke="#A7756A" stroke-width="2.3201" stroke-miterlimit="10" stroke-linecap="round"/>
<path d="M480.255 290.549C474.839 302.216 471.52 316.292 469.973 323.243" stroke="#A7756A" stroke-width="2.3201" stroke-miterlimit="10" stroke-linecap="round"/>
<path d="M488.692 294.754C485.154 302.866 481.941 315.07 479.957 322.619" stroke="#A7756A" stroke-width="2.3201" stroke-miterlimit="10" stroke-linecap="round"/>
<path d="M474.638 264.388C459.982 269.604 443.622 275.869 431.244 281.802C409.057 292.409 406.08 313.941 408.37 348.987" stroke="#6F6F6F" stroke-width="2.3201" stroke-linecap="round" stroke-linejoin="round"/>
<path d="M122.175 436.979C97.5731 441.97 80.0406 448.384 80.0406 448.384L56.3687 437.896L56.4186 437.378L1.25684 487.473L2.46102 488.915C3.96674 490.721 5.85095 492.174 7.98035 493.171C10.1097 494.168 12.4323 494.686 14.7837 494.686H125.5L122.175 436.979Z" fill="#EAA58B"/>
<path d="M80.0155 448.385C80.0155 448.385 97.548 441.94 122.15 436.979L125.475 494.687H204.496C225.86 494.687 244.584 479.713 248.564 458.723C251.216 444.716 247.073 429.717 232.186 419.516C208.24 403.106 157.015 381.63 143.788 377.419L71.0184 394.265C57.1858 409.302 60.1932 433.953 60.1932 433.953L80.0155 448.385Z" fill="#1049D0"/>
<path d="M122.356 437.759C138.716 434.596 156.991 431.857 182.572 433.049" stroke="#151414" stroke-width="2.3201" stroke-miterlimit="10" stroke-linecap="round"/>
<path d="M145.037 376.795C156.611 380.482 197.279 397.385 223.303 412.546" stroke="#151414" stroke-width="2.3201" stroke-miterlimit="10" stroke-linecap="round"/>
<path d="M68.1632 437.816L7.46094 492.903C9.73093 494.076 12.2492 494.688 14.8046 494.687H58.9914L80.0179 448.385C76.7248 444.187 72.7106 440.608 68.1632 437.816Z" fill="#428EFF"/>
<path d="M60.1934 433.947L1.25684 487.474L2.46102 488.916C3.83951 490.567 5.53725 491.923 7.45247 492.903L68.161 437.816C65.6562 436.236 62.984 434.938 60.1934 433.947Z" fill="#5FB2FF"/>
<path d="M46.6602 484.168V494.825" stroke="#151414" stroke-width="2.3201" stroke-miterlimit="10" stroke-linecap="round"/>
<path d="M37.04 484.168V494.825" stroke="#151414" stroke-width="2.3201" stroke-miterlimit="10" stroke-linecap="round"/>
<path d="M103.133 251.922C105.005 251.747 108.91 251.429 112.816 251.429" stroke="#151414" stroke-width="2.3201" stroke-miterlimit="10" stroke-linecap="round"/>
<path d="M276.693 230.683C276.693 230.683 288.422 226.796 291.667 231.687C294.911 236.579 291.904 241.92 291.904 241.92C291.904 241.92 300.071 243.536 297.095 251.435C297.095 251.435 302.33 256.426 297.338 261.667C297.338 261.667 302.08 264.868 297.245 270.702C292.409 276.535 284.205 279.437 281.915 278.139C279.22 276.604 278.795 273.391 281.996 268.874C281.996 268.874 274.39 271.837 272.044 267.981C269.698 264.125 273.224 260.575 273.224 260.575C273.224 260.575 267.839 262.06 266.522 257.268C265.206 252.477 269.642 249.968 269.642 249.968C269.642 249.968 266.61 248.839 266.522 245.676C266.404 241.077 274.471 237.072 276.63 236.098L276.693 230.683Z" fill="#EAA58B"/>
<path d="M267.819 250.811C272.449 250 284.21 247.491 291.997 242.076" stroke="#A15842" stroke-width="2.3201" stroke-miterlimit="10" stroke-linecap="round"/>
<path d="M269.689 262.048C279.466 260.823 288.846 257.429 297.142 252.115" stroke="#A15842" stroke-width="2.3201" stroke-miterlimit="10" stroke-linecap="round"/>
<path d="M278.426 271.201C280.092 270.614 290.961 266.715 297.556 262.534" stroke="#A15842" stroke-width="2.3201" stroke-miterlimit="10" stroke-linecap="round"/>
<path d="M111.944 348.2C101.057 349.529 88.9087 351.494 75.2322 353.94L94.4742 302.222L102.891 252.932C102.891 252.932 75.2322 255.939 62.6038 270.402C50.955 283.71 14.4924 345.573 28.9115 378.049C43.3305 410.524 86.6564 399.069 96.8639 396.062C102.436 394.421 110.877 390.64 119.544 387.826L111.944 348.2Z" fill="#49CEF9"/>
<path d="M140.174 384.638C153.408 386.441 168.438 393.055 170.847 384.638C170.847 384.638 178.958 384.432 176.4 376.72C176.4 376.72 180.468 376.215 181.067 373.207C182.271 367.199 167.839 361.783 167.839 361.783C167.839 361.783 179.263 363.586 181.672 361.159C184.735 358.089 181.753 353.204 163.091 348.681C149.539 345.399 133.142 345.598 111.929 348.194L119.547 387.795C126.809 385.486 134.159 383.814 140.174 384.638Z" fill="#EAA58B"/>
<path d="M172.981 362.551C166.574 360.093 154.407 356.006 145.591 354.571" stroke="#A15842" stroke-width="2.3201" stroke-miterlimit="10" stroke-linecap="round"/>
<path d="M176.652 376.471C168.291 372.728 152.144 365.789 143.483 364.492" stroke="#A15842" stroke-width="2.3201" stroke-miterlimit="10" stroke-linecap="round"/>
<path d="M170.169 385.261C163.724 381.992 150.827 375.852 141.681 374.111" stroke="#A15842" stroke-width="2.3201" stroke-miterlimit="10" stroke-linecap="round"/>
<path d="M112.047 349.1C106.169 349.861 87.3703 352.456 59.2871 357.878" stroke="#151414" stroke-width="2.3201" stroke-miterlimit="10" stroke-linecap="round"/>
</svg>
