<svg width="549" height="362" viewBox="0 0 549 362" fill="none" xmlns="http://www.w3.org/2000/svg">
<path d="M86.0519 166.017C84.1693 164.538 39.4539 153.675 47.4096 169.77C55.3654 185.865 42.1058 200.456 89.9767 208.274C94.4732 214.153 99.0758 222.838 104.644 232.312L139.935 198.662C132.741 190.09 124.569 180.375 118.86 173.663C108.533 161.502 87.4638 139.629 82.0539 138.447C81.3747 138.283 80.6716 138.242 79.9779 138.326C79.2956 138.387 78.657 138.688 78.1746 139.174C74.2952 140.599 81.2633 159.918 86.0519 166.017Z" fill="#FFD5BD"/>
<path d="M42.4848 163.329L64.8366 192.879C64.8366 192.879 89.5921 189.974 97.4173 182.65C103.771 176.703 98.9328 171.663 98.9328 171.663C98.9328 171.663 87.0865 165.403 78.8539 163.329C65.0815 159.858 42.4848 163.329 42.4848 163.329Z" fill="#EEB49F"/>
<rect x="0.674072" y="109.7" width="44.9911" height="75.7444" transform="rotate(-14.5598 0.674072 109.7)" fill="#6232E9"/>
<rect x="6.26854" y="112.987" width="35.8139" height="66.5672" transform="rotate(-14.5598 6.26854 112.987)" stroke="white" stroke-width="2.34312"/>
<circle cx="26.5277" cy="119.755" r="5.41032" transform="rotate(-14.5598 26.5277 119.755)" fill="white"/>
<circle cx="38.5539" cy="166.056" r="5.41032" transform="rotate(-14.5598 38.5539 166.056)" fill="white"/>
<circle cx="31.9683" cy="140.7" r="8.82736" transform="rotate(-14.5598 31.9683 140.7)" fill="white"/>
<rect x="0.674072" y="109.7" width="44.9911" height="75.7444" transform="rotate(-14.5598 0.674072 109.7)" fill="black" fill-opacity="0.15"/>
<rect x="30.8289" y="101.869" width="44.9911" height="75.7444" transform="rotate(0.0209506 30.8289 101.869)" fill="#6232E9"/>
<rect x="35.4154" y="106.458" width="35.8139" height="66.5672" transform="rotate(0.0209506 35.4154 106.458)" stroke="white" stroke-width="2.34312"/>
<circle cx="53.3182" cy="118.108" r="5.41032" transform="rotate(0.0209506 53.3182 118.108)" fill="white"/>
<circle cx="53.2997" cy="165.945" r="5.41032" transform="rotate(0.0209506 53.2997 165.945)" fill="white"/>
<circle cx="53.3098" cy="139.749" r="8.82736" transform="rotate(0.0209506 53.3098 139.749)" fill="white"/>
<rect x="30.8289" y="101.869" width="44.9911" height="75.7444" transform="rotate(0.0209506 30.8289 101.869)" fill="black" fill-opacity="0.06"/>
<rect x="68.0667" y="106.349" width="44.9911" height="75.7444" transform="rotate(20.4982 68.0667 106.349)" fill="#6232E9"/>
<rect x="70.7577" y="112.255" width="35.8139" height="66.5672" transform="rotate(20.4982 70.7577 112.255)" stroke="white" stroke-width="2.34312"/>
<circle cx="83.4535" cy="129.431" r="5.41032" transform="rotate(20.4982 83.4535 129.431)" fill="white"/>
<circle cx="66.7014" cy="174.239" r="5.41032" transform="rotate(20.4982 66.7014 174.239)" fill="white"/>
<circle cx="75.8763" cy="149.7" r="8.82736" transform="rotate(20.4982 75.8763 149.7)" fill="white"/>
<path d="M231.045 163.718C263.246 189.938 253.202 205.72 209.922 248.569C209.922 248.569 206.822 251.045 201.587 254.556C192.409 260.656 177.323 268.609 177.323 268.609C177.323 268.609 161.855 278.169 151.213 276.983C141.731 275.926 136.512 272.18 129.588 265.616C116.729 253.425 107.887 238.021 100.566 225.265L100.328 224.85L131.234 188.308C142.981 202.266 155.653 217.427 155.653 217.427C156.979 216.414 159.882 213.461 162.978 210.312C165.792 207.449 168.767 204.424 170.862 202.544L170.973 202.699C187.79 186.388 211.33 166.184 231.045 163.718Z" fill="#6232E9"/>
<path d="M157.108 216.844L165.412 227.156" stroke="#151414" stroke-width="2.34312" stroke-linecap="round" stroke-linejoin="round"/>
<path d="M70.7507 196.567C70.7507 196.567 60.4541 202.602 54.7012 193.864C54.7012 193.864 45.3438 194.424 43.6404 186.511C43.6404 186.511 35.7209 188.218 34.014 180.299C33.9088 179.796 29.4614 181.168 26.6368 175.401C22.5163 166.985 24.9374 158.045 27.0546 156.123C33.4229 150.356 37.0122 163.79 37.1989 163.304C39.5179 157.339 44.8797 152.326 48.1116 153.004C53.7437 154.186 53.3727 159.986 53.3727 159.986C53.3727 159.986 57.7291 156.145 62.0932 158.444C67.396 161.228 64.2689 168.14 64.2689 168.14C64.2689 168.14 70.1607 165.79 71.982 171.432C74.028 177.735 66.0735 183.636 65.1988 191.853L70.7507 196.567Z" fill="#FFD5BD"/>
<path d="M63.931 166.963C59.2524 172.29 51.6722 182.605 53.0754 192.19" stroke="#B36C57" stroke-width="2.34312" stroke-linecap="round" stroke-linejoin="round"/>
<path d="M51.9048 160.247C48.3538 165.659 42.4999 176.004 42.425 185.46" stroke="#B36C57" stroke-width="2.34312" stroke-linecap="round" stroke-linejoin="round"/>
<path d="M35.7466 162.868C34.0165 167.556 32.5237 173.362 32.7637 179.068" stroke="#B36C57" stroke-width="2.34312" stroke-linecap="round" stroke-linejoin="round"/>
<path d="M481.553 166.016C483.435 164.537 528.151 153.673 520.195 169.768C512.239 185.863 525.499 200.455 477.628 208.272C472.123 215.47 466.459 226.875 459.058 238.781L425.177 201.632C432.906 192.415 442.365 181.163 448.745 173.661C459.072 161.5 468.339 154.128 473.749 152.946C474.428 152.782 475.131 152.741 475.825 152.825C476.507 152.886 477.145 153.187 477.628 153.673C479.31 155.484 477.87 159.917 473.082 166.016C470.576 169.163 471.089 168.907 468.157 171.662C468.157 171.662 479.67 167.495 481.553 166.016Z" fill="#FFD5BD"/>
<path d="M525.12 163.329L502.769 192.879C502.769 192.879 478.013 189.974 470.188 182.65C463.834 176.703 468.672 171.663 468.672 171.663C468.672 171.663 480.519 165.403 488.751 163.329C502.524 159.858 525.12 163.329 525.12 163.329Z" fill="#EEB49F"/>
<path d="M337.212 162.57C305.011 188.79 315.147 204.962 358.427 247.811C358.427 247.811 361.416 250.418 366.518 254.074C374.01 259.905 390.281 268.608 390.281 268.608C390.281 268.608 405.749 278.168 416.391 276.982C425.873 275.925 431.092 272.179 438.016 265.615C450.874 253.424 459.716 238.02 467.038 225.264L467.079 225.192L435.28 189.601C423.853 203.185 411.951 217.425 411.951 217.425C409.489 215.546 406.24 211.981 401.995 208.176C386.747 191.26 360.081 165.431 337.212 162.57Z" fill="#6232E9"/>
<path d="M410.497 216.841L402.193 227.153" stroke="#151414" stroke-width="2.34312" stroke-linecap="round" stroke-linejoin="round"/>
<path d="M536.283 135.42C536.344 160.837 515.79 181.482 490.374 181.543C464.958 181.573 444.313 161.02 444.251 135.604C444.19 110.187 464.744 89.5423 490.16 89.5118C515.576 89.4812 536.221 110.004 536.283 135.42Z" fill="white"/>
<path d="M490.365 183.834C463.391 183.89 441.404 161.986 441.348 135.013C441.292 108.04 463.195 86.0522 490.168 85.9962C517.142 85.9402 539.129 107.844 539.185 134.817C539.241 161.79 517.338 183.778 490.365 183.834Z" fill="#6232E9"/>
<path d="M490.19 93.7912C467.496 93.8523 449.083 112.326 449.145 134.99C449.206 157.653 467.679 176.066 490.374 176.035C513.037 175.974 531.45 157.5 531.419 134.806C531.327 112.142 512.854 93.73 490.19 93.7912Z" fill="white"/>
<path d="M486.857 104.607L489.509 136.809L516.028 129.99" stroke="#151414" stroke-width="2.58843" stroke-linecap="round" stroke-linejoin="round"/>
<path d="M496.854 196.567C496.854 196.567 507.15 202.602 512.903 193.864C512.903 193.864 522.261 194.424 523.964 186.511C523.964 186.511 531.884 188.218 533.591 180.299C533.696 179.796 538.143 181.168 540.968 175.401C545.088 166.985 542.667 158.045 540.55 156.123C534.182 150.356 530.592 163.79 530.406 163.304C528.087 157.339 522.725 152.326 519.493 153.004C513.861 154.186 514.232 159.986 514.232 159.986C514.232 159.986 509.876 156.145 505.511 158.444C500.209 161.228 503.336 168.14 503.336 168.14C503.336 168.14 497.444 165.79 495.623 171.432C493.577 177.735 501.531 183.636 502.406 191.853L496.854 196.567Z" fill="#FFD5BD"/>
<path d="M503.673 166.963C508.352 172.29 515.932 182.605 514.529 192.19" stroke="#B36C57" stroke-width="2.34312" stroke-linecap="round" stroke-linejoin="round"/>
<path d="M515.699 160.247C519.25 165.659 525.104 176.004 525.179 185.46" stroke="#B36C57" stroke-width="2.34312" stroke-linecap="round" stroke-linejoin="round"/>
<path d="M531.858 162.868C533.588 167.556 535.081 173.362 534.841 179.068" stroke="#B36C57" stroke-width="2.34312" stroke-linecap="round" stroke-linejoin="round"/>
<path d="M253.693 124.892C228.327 111.432 232.339 70.5344 247.222 53.0625L260.164 75.0642C258.87 79.5939 255.764 95.9011 253.693 124.892Z" fill="#151414"/>
<path d="M233.862 95.7562C236.968 91.097 242.059 93.8148 244.216 95.7562C249.393 98.2843 249.393 116.464 241.627 114.522C233.862 112.581 229.979 101.58 233.862 95.7562Z" fill="#F0C6AE"/>
<path d="M239.543 102.843L238.077 100.348" stroke="#B36C57" stroke-width="2.34312" stroke-miterlimit="10" stroke-linecap="round"/>
<path d="M247.869 54.3562C258.257 41.3997 278.644 29.3765 301.117 45.7957C316.987 57.3901 304.937 81.1329 304.168 94.477C315.168 86.0646 317.11 97.7125 316.463 100.948C315.815 107.419 311.286 110.655 306.109 113.243C306.109 126.185 298.128 133.802 293.814 138.48L294.461 155.752L307.403 157.246C304.383 164.365 293.943 178.601 276.342 178.601C258.741 178.601 252.183 165.659 251.105 159.188L261.445 155.752V140.219C245.533 131.885 239.426 116.208 242.881 98.9251C242.881 82.1819 237.482 67.3128 247.869 54.3562Z" fill="#FFD5BD"/>
<path d="M262.105 141.069C269.682 144.858 277.841 144.86 281.519 144.305" stroke="#B36C57" stroke-width="2.34312" stroke-miterlimit="10" stroke-linecap="round"/>
<path d="M305.769 102.713L308.8 99.6826" stroke="#B36C57" stroke-width="2.34312" stroke-miterlimit="10" stroke-linecap="round"/>
<path d="M268.234 121.149C269.666 122.035 275.053 122.725 277.19 118.61" stroke="#B36C57" stroke-width="2.34312" stroke-miterlimit="10" stroke-linecap="round"/>
<path d="M280.592 100.32C282.023 100.32 283.183 99.1601 283.183 97.729C283.183 96.2979 282.023 95.1377 280.592 95.1377C279.16 95.1377 278 96.2979 278 97.729C278 99.1601 279.16 100.32 280.592 100.32Z" fill="#151414"/>
<path d="M259.111 100.32C260.542 100.32 261.702 99.1601 261.702 97.729C261.702 96.2979 260.542 95.1377 259.111 95.1377C257.68 95.1377 256.52 96.2979 256.52 97.729C256.52 99.1601 257.68 100.32 259.111 100.32Z" fill="#151414"/>
<path d="M303.875 94.7577C303.875 94.7577 301.155 61.4193 274.325 67.8597C274.325 67.8597 245.154 98.1673 233.031 89.075C212.278 83.4763 215.513 53.7094 239.782 50.9782C250.17 38.0217 278.682 29.3765 301.155 45.7956C312.892 54.3713 322.841 71.9118 314.591 93.183C310.505 90.5945 305.744 93.1543 303.875 94.7577Z" fill="#151414"/>
<circle r="25.1391" transform="matrix(-0.979401 -0.201923 -0.201923 0.979401 282.744 29.6965)" fill="#151414"/>
<path d="M302.073 45.0854C291.226 35.5905 281.519 36.8847 281.519 36.8847" stroke="#0B3EB8" stroke-width="2.73417" stroke-linecap="round" stroke-linejoin="round"/>
<path d="M268.127 105.69C267.612 107.319 267.165 109.092 267.46 109.683C267.866 110.432 268.483 111.046 269.233 111.449" stroke="#B36C57" stroke-width="2.34312" stroke-miterlimit="10" stroke-linecap="round"/>
<path d="M300.284 156.509C300.284 156.509 292.512 170.906 276.989 169.541C263.077 168.318 256.281 156.509 256.281 156.509L222.424 165.222C188.462 174.735 210.138 237.961 211.324 257.943L208.028 361.085L376.993 349.341L361.081 248.947V213.714C361.081 181.891 360.185 171.612 356.535 169.39C349.5 165.106 342.372 162.7 334.32 160.964C329.616 159.903 319.787 158.327 319.787 158.327L300.284 156.509Z" fill="#6232E9"/>
<path d="M231.044 163.719C233.316 206.701 229.427 228.493 226.514 270.491L344.935 267.256C338.464 225.841 332.853 202.353 328.11 160.483L315.168 157.895V188.956C288.634 193.688 273.109 194.491 246.574 188.956L242.045 160.483L231.044 163.719Z" fill="#FFBE21"/>
<path d="M214.867 360.439L225.22 267.256L345.583 263.373L364.996 350.733L214.867 360.439Z" fill="#FFBE21"/>
<path d="M210.626 227.125L211.247 249.686" stroke="#151414" stroke-width="2.34312" stroke-linecap="round" stroke-linejoin="round"/>
<path d="M360.639 227.125L361.261 249.686" stroke="#151414" stroke-width="2.34312" stroke-linecap="round" stroke-linejoin="round"/>
<path d="M362.255 261.353L212.082 266.654" stroke="#151414" stroke-width="2.34312" stroke-linecap="round" stroke-linejoin="round"/>
<path d="M288.178 261.789C288.178 261.789 269.491 237.784 277.484 234.144C283.939 231.205 286.711 250.426 288.178 261.789Z" stroke="#151414" stroke-width="2.34312" stroke-linecap="round" stroke-linejoin="round"/>
<path d="M288.75 262.203C288.75 262.203 296.449 241.897 302.008 244.833C306.495 247.204 295.389 256.684 288.75 262.203Z" stroke="#151414" stroke-width="2.34312" stroke-linecap="round" stroke-linejoin="round"/>
</svg>
