<svg width="66" height="28" viewBox="0 0 66 28" fill="none" xmlns="http://www.w3.org/2000/svg">
<path d="M0.143066 17.369C0.143066 19.3713 2.25002 20.734 5.63223 20.734H7.9887V16.6737H6.46393C5.1055 16.6737 4.52331 16.3678 4.52331 15.1998V0.571533H0.143066V17.369Z" fill="#151414"/>
<path d="M10.9795 5.57739H15.6093V1.26679H10.9795V5.57739ZM11.1459 20.734H15.4707V6.82885H11.1459V20.734Z" fill="#151414"/>
<path d="M31.9046 7.66316C30.9066 8.38623 30.6571 9.88799 30.4353 11.1116L29.6868 10.9726C29.8808 9.77674 30.3798 8.0247 29.465 7.24601C28.7442 6.63418 27.7461 6.4117 26.5818 6.4117C25.2511 6.4117 24.3639 6.63418 23.6154 7.35725C22.756 8.21937 22.6174 9.9158 22.257 11.0838L21.5362 10.8613C21.8966 9.69331 22.5065 8.21937 22.5065 6.99571V6.82885H18.1262V20.734H22.5065V13.698C22.5065 11.056 23.4768 9.86018 25.1125 9.86018C26.6372 9.86018 27.358 11.056 27.358 13.698V20.734H31.7383V13.698C31.7383 11.056 32.4313 9.86018 34.067 9.86018C35.564 9.86018 36.2849 11.056 36.2849 13.698V20.734H40.6651V11.1951C40.6651 8.02469 38.3641 6.4117 35.3977 6.4117C33.9561 6.4117 32.7917 6.99571 31.9046 7.66316Z" fill="#151414"/>
<path d="M47.4397 19.6494C47.4397 18.8151 46.8852 17.8695 46.608 17.063L47.3288 16.8128C47.606 17.5914 47.7169 18.7595 48.2991 19.3435C49.3249 20.3725 50.711 21.1512 52.5685 21.1512C56.4497 21.1512 59.3606 17.6471 59.4992 13.7536C59.6656 9.63769 56.6715 6.38389 52.5407 6.38389C50.6833 6.38389 49.2694 7.02352 48.2714 8.08032C47.6892 8.69214 47.6338 9.86018 47.3565 10.6389L46.6357 10.4164C46.913 9.60988 47.4397 8.66433 47.4397 7.83002V6.82885L43.0595 6.85666V27.7144L47.4397 27.6866V19.6494ZM51.7645 10.4442C53.816 10.4442 55.119 11.8069 55.119 13.6702C55.119 15.5335 53.816 17.0909 51.7645 17.0909C49.713 17.0909 48.4655 15.5335 48.4655 13.6702C48.4655 11.8069 49.713 10.4442 51.7645 10.4442Z" fill="#151414"/>
<path d="M61.2276 5.57739H65.8574V1.26679H61.2276V5.57739ZM61.3939 20.734H65.7187V6.82885H61.3939V20.734Z" fill="#151414"/>
</svg>
