<svg width="24" height="24" viewBox="0 0 24 24" fill="none" xmlns="http://www.w3.org/2000/svg">
<path d="M17.5406 10.134C17.561 7.73723 15.5196 5.54 12.9901 5.23617C12.9398 5.2302 12.885 5.22112 12.8269 5.21151C12.7017 5.19076 12.5722 5.16943 12.4415 5.16943C11.9231 5.16943 11.7845 5.53361 11.748 5.75081C11.7125 5.96199 11.7464 6.13933 11.8484 6.27813C12.0201 6.51159 12.3222 6.55303 12.5649 6.58624C12.636 6.59606 12.7031 6.60519 12.7592 6.61781C15.032 7.12565 15.7972 7.92407 16.1712 10.1775C16.1804 10.2325 16.1845 10.3004 16.1889 10.3723C16.2052 10.6417 16.2392 11.2021 16.8417 11.2021H16.8417C16.8919 11.2021 16.9458 11.1978 17.0019 11.1892C17.563 11.104 17.5454 10.5917 17.5369 10.3456C17.5346 10.2762 17.5323 10.2107 17.5381 10.1671C17.5397 10.1561 17.5405 10.145 17.5406 10.134Z" fill="white"/>
<path d="M12.2943 4.3562C12.3617 4.36106 12.4254 4.3657 12.4784 4.37383C16.2105 4.94777 17.9268 6.71598 18.4024 10.4772C18.4105 10.5411 18.4117 10.6191 18.4131 10.7017C18.4178 10.9955 18.4276 11.6069 19.0841 11.6195L19.1045 11.6197C19.3104 11.6197 19.4741 11.5577 19.5913 11.4351C19.7957 11.2213 19.7814 10.9037 19.7699 10.6485C19.7671 10.5859 19.7644 10.5269 19.7651 10.4753C19.8125 6.62855 16.4828 3.14033 12.6395 3.01061C12.6235 3.01008 12.6083 3.01093 12.5929 3.01309C12.5854 3.0142 12.5714 3.01557 12.5474 3.01557C12.5091 3.01557 12.462 3.01225 12.412 3.00887C12.3515 3.00475 12.283 3 12.2135 3C11.6015 3 11.4851 3.43503 11.4702 3.69436C11.4359 4.29369 12.0157 4.33587 12.2943 4.3562Z" fill="white"/>
<path d="M18.2239 15.3382C18.1445 15.2776 18.0625 15.2149 17.9857 15.153C17.5782 14.8251 17.1447 14.5229 16.7255 14.2306C16.6385 14.1699 16.5515 14.1093 16.4648 14.0485C15.9277 13.6712 15.4449 13.4879 14.9888 13.4879C14.3744 13.4879 13.8387 13.8274 13.3966 14.4968C13.2008 14.7936 12.9631 14.9378 12.6703 14.9378C12.4971 14.9378 12.3003 14.8884 12.0855 14.7909C10.3521 14.0049 9.11432 12.7996 8.4065 11.2088C8.06434 10.4399 8.17526 9.93726 8.77744 9.5282C9.11939 9.29612 9.75589 8.86404 9.7108 8.03664C9.65975 7.09705 7.5866 4.26992 6.7131 3.94883C6.34327 3.81283 5.9547 3.81156 5.5561 3.94566C4.55194 4.28323 3.83134 4.87606 3.47201 5.65996C3.12478 6.41742 3.14046 7.3068 3.51737 8.23198C4.60695 10.9069 6.13885 13.2391 8.07067 15.1636C9.96158 17.0475 12.2857 18.5907 14.9783 19.7502C15.221 19.8546 15.4756 19.9116 15.6615 19.9531C15.7248 19.9674 15.7795 19.9795 15.8194 19.9904C15.8413 19.9964 15.8639 19.9996 15.8866 19.9998L15.9078 19.9999C15.9079 19.9999 15.9078 19.9999 15.9079 19.9999C17.1744 19.9999 18.695 18.8427 19.1621 17.5233C19.5712 16.3681 18.8242 15.797 18.2239 15.3382Z" fill="white"/>
<path d="M12.8565 7.41184C12.6397 7.41733 12.1884 7.42852 12.0301 7.8881C11.956 8.10287 11.9649 8.28935 12.0565 8.44235C12.1909 8.66683 12.4484 8.73562 12.6827 8.77337C13.5322 8.90969 13.9685 9.37946 14.0558 10.2516C14.0963 10.6583 14.3702 10.9423 14.7218 10.9423H14.7219C14.7478 10.9423 14.7744 10.9408 14.8008 10.9376C15.2237 10.8872 15.4287 10.5765 15.4102 10.0142C15.417 9.42724 15.1098 8.76091 14.5874 8.23016C14.0632 7.69778 13.4313 7.39795 12.8565 7.41184Z" fill="white"/>
</svg>
