<svg width="25" height="25" viewBox="0 0 25 25" fill="none" xmlns="http://www.w3.org/2000/svg">
<path fill-rule="evenodd" clip-rule="evenodd" d="M16.82 20.5C10.0264 20.5 4.5 14.9736 4.5 8.18C4.5 6.1504 6.1504 4.5 8.18 4.5C8.388 4.5 8.5936 4.5176 8.7928 4.552C8.9872 4.5832 9.1824 4.6328 9.3728 4.6984C9.6328 4.7888 9.8288 5.0072 9.8904 5.276L10.9856 9.72413C11.0464 9.98653 10.9704 10.2617 10.7832 10.4569C10.6744 10.5705 10.3648 10.7417 9.3728 11.2609C9.8904 13.1765 11.3852 15.1096 13.8024 15.8152C14.3224 14.8224 14.5211 14.5144 14.6347 14.4056C14.8299 14.2184 15.1067 14.1456 15.3675 14.2032L19.7248 15.1096C19.9928 15.1712 20.2112 15.3664 20.3008 15.6264C20.3664 15.8152 20.416 16.0104 20.4488 16.2112C20.4824 16.4088 20.5 16.6136 20.5 16.82C20.5 18.8496 18.8488 20.5 16.82 20.5Z" fill="white"/>
</svg>
