<svg width="274" height="274" viewBox="0 0 274 274" fill="none" xmlns="http://www.w3.org/2000/svg">
<circle cx="137.074" cy="136.84" r="135.929" stroke="white" stroke-width="1.21909"/>
<path d="M137.078 0.911133V7.61615M137.078 272.769V266.674" stroke="white" stroke-width="1.21909"/>
<path d="M273.006 136.84L266.301 136.84M1.14758 136.84L7.24306 136.84" stroke="white" stroke-width="1.21909"/>
<path d="M254.792 68.876L248.986 72.2285M19.3563 204.805L24.6351 201.757" stroke="white" stroke-width="1.21909"/>
<path d="M205.038 19.1221L201.685 24.9288M69.1088 254.558L72.1565 249.279" stroke="white" stroke-width="1.21909"/>
<path d="M69.1075 19.1201L72.4601 24.9268M205.037 254.556L201.989 249.277" stroke="white" stroke-width="1.21909"/>
<path d="M19.353 68.875L25.1597 72.2275M254.789 204.804L249.51 201.756" stroke="white" stroke-width="1.21909"/>
<path d="M134.55 15.1782V23.7119H133.344V16.2389H131.417V15.1782H134.55ZM142.415 22.6513V23.7119H136.283V22.8829L139.757 19.5304C140.18 19.1241 140.465 18.7746 140.611 18.482C140.757 18.1813 140.83 17.8806 140.83 17.5799C140.83 17.1329 140.672 16.7875 140.355 16.5436C140.046 16.2917 139.599 16.1657 139.014 16.1657C138.071 16.1657 137.344 16.4746 136.832 17.0922L136.003 16.373C136.336 15.9666 136.771 15.6496 137.307 15.4221C137.852 15.1945 138.457 15.0807 139.124 15.0807C140.018 15.0807 140.729 15.2961 141.257 15.7268C141.785 16.1495 142.049 16.7265 142.049 17.458C142.049 17.9131 141.952 18.3438 141.757 18.7502C141.562 19.1566 141.192 19.6198 140.647 20.14L138.039 22.6513H142.415Z" fill="white"/>
<path d="M199.004 31.0269V39.5605H197.797V32.0875H195.87V31.0269H199.004Z" fill="white"/>
<path d="M74.8383 31.0269V39.5605H73.6314V32.0875H71.7052V31.0269H74.8383ZM79.3504 31.0269V39.5605H78.1435V32.0875H76.2173V31.0269H79.3504Z" fill="white"/>
<path d="M243.781 77.5107V78.5713H237.649V77.7423L241.123 74.3898C241.546 73.9834 241.83 73.634 241.977 73.3414C242.123 73.0407 242.196 72.74 242.196 72.4392C242.196 71.9922 242.037 71.6468 241.721 71.403C241.412 71.1511 240.965 71.0251 240.38 71.0251C239.437 71.0251 238.709 71.3339 238.197 71.9516L237.368 71.2323C237.702 70.826 238.136 70.509 238.673 70.2814C239.217 70.0539 239.823 69.9401 240.489 69.9401C241.383 69.9401 242.094 70.1555 242.623 70.5862C243.151 71.0088 243.415 71.5859 243.415 72.3173C243.415 72.7725 243.318 73.2032 243.122 73.6096C242.927 74.0159 242.558 74.4792 242.013 74.9993L239.404 77.5107H243.781Z" fill="white"/>
<path d="M33.4077 70.0376V78.5713H32.2007V71.0982H30.2746V70.0376H33.4077ZM38.7609 78.6688C38.0863 78.6688 37.4849 78.4981 36.9566 78.1568C36.4365 77.8073 36.0261 77.3034 35.7254 76.6451C35.4246 75.9868 35.2743 75.2066 35.2743 74.3045C35.2743 73.4023 35.4246 72.6221 35.7254 71.9638C36.0261 71.3055 36.4365 70.8057 36.9566 70.4643C37.4849 70.1148 38.0863 69.9401 38.7609 69.9401C39.4273 69.9401 40.0206 70.1148 40.5408 70.4643C41.0691 70.8057 41.4836 71.3055 41.7843 71.9638C42.085 72.6221 42.2353 73.4023 42.2353 74.3045C42.2353 75.2066 42.085 75.9868 41.7843 76.6451C41.4836 77.3034 41.0691 77.8073 40.5408 78.1568C40.0206 78.4981 39.4273 78.6688 38.7609 78.6688ZM38.7609 77.5838C39.4436 77.5838 39.9881 77.3034 40.3945 76.7426C40.809 76.1819 41.0162 75.3691 41.0162 74.3045C41.0162 73.2398 40.809 72.4271 40.3945 71.8663C39.9881 71.3055 39.4436 71.0251 38.7609 71.0251C38.0701 71.0251 37.5174 71.3055 37.1029 71.8663C36.6966 72.4271 36.4934 73.2398 36.4934 74.3045C36.4934 75.3691 36.6966 76.1819 37.1029 76.7426C37.5174 77.3034 38.0701 77.5838 38.7609 77.5838Z" fill="white"/>
<path d="M259.349 135.796C260.186 135.877 260.824 136.137 261.263 136.576C261.702 137.007 261.922 137.559 261.922 138.234C261.922 138.721 261.8 139.164 261.556 139.563C261.312 139.953 260.946 140.266 260.459 140.501C259.979 140.729 259.39 140.843 258.691 140.843C258.081 140.843 257.496 140.753 256.935 140.574C256.375 140.388 255.915 140.132 255.558 139.806L256.119 138.843C256.411 139.12 256.785 139.343 257.24 139.514C257.695 139.676 258.179 139.758 258.691 139.758C259.325 139.758 259.817 139.624 260.166 139.355C260.524 139.087 260.702 138.717 260.702 138.246C260.702 137.775 260.528 137.409 260.178 137.149C259.829 136.889 259.301 136.759 258.593 136.759H257.911V135.905L260.056 133.272H255.948V132.211H261.58V133.04L259.349 135.796Z" fill="white"/>
<path d="M15.3655 132.114C16.5114 132.114 17.3932 132.484 18.0109 133.223C18.6367 133.963 18.9496 135.011 18.9496 136.369C18.9496 137.319 18.7789 138.132 18.4376 138.807C18.1044 139.473 17.633 139.981 17.0234 140.331C16.422 140.672 15.719 140.843 14.9144 140.843C14.4999 140.843 14.1098 140.802 13.7441 140.721C13.3783 140.631 13.0614 140.505 12.7932 140.343L13.2564 139.392C13.6709 139.66 14.2195 139.794 14.9022 139.794C15.7881 139.794 16.4789 139.522 16.9747 138.977C17.4786 138.425 17.7305 137.624 17.7305 136.576V136.271C17.4867 136.637 17.1494 136.917 16.7187 137.112C16.2879 137.299 15.8043 137.393 15.2679 137.393C14.7072 137.393 14.2033 137.287 13.7563 137.076C13.3174 136.864 12.972 136.564 12.72 136.174C12.4762 135.775 12.3543 135.32 12.3543 134.808C12.3543 134.272 12.4843 133.8 12.7444 133.394C13.0126 132.988 13.3743 132.675 13.8294 132.455C14.2845 132.228 14.7966 132.114 15.3655 132.114ZM15.4752 136.405C15.8572 136.405 16.1985 136.332 16.4992 136.186C16.7999 136.039 17.0316 135.84 17.1941 135.588C17.3648 135.336 17.4501 135.056 17.4501 134.747C17.4501 134.446 17.3689 134.174 17.2063 133.93C17.0519 133.678 16.8203 133.479 16.5114 133.333C16.2107 133.179 15.845 133.101 15.4142 133.101C14.8535 133.101 14.3983 133.252 14.0488 133.552C13.7075 133.853 13.5368 134.255 13.5368 134.759C13.5368 135.263 13.7116 135.666 14.061 135.966C14.4105 136.259 14.8819 136.405 15.4752 136.405Z" fill="white"/>
<path d="M244.019 198.384H242.398V200.48H241.216V198.384H236.473V197.53L240.838 191.947H242.154L237.973 197.335H241.252V195.482H242.398V197.335H244.019V198.384Z" fill="white"/>
<path d="M35.9407 196.006C36.4283 196.193 36.8021 196.462 37.0622 196.811C37.3223 197.16 37.4523 197.579 37.4523 198.067C37.4523 198.579 37.3142 199.026 37.0378 199.408C36.7615 199.782 36.3673 200.07 35.8553 200.273C35.3433 200.476 34.7419 200.578 34.0511 200.578C33.3684 200.578 32.771 200.476 32.259 200.273C31.7551 200.07 31.365 199.782 31.0887 199.408C30.8123 199.026 30.6742 198.579 30.6742 198.067C30.6742 197.579 30.8001 197.16 31.0521 196.811C31.3122 196.462 31.686 196.193 32.1737 196.006C31.7835 195.819 31.4869 195.572 31.2837 195.263C31.0805 194.954 30.9789 194.588 30.9789 194.166C30.9789 193.694 31.1049 193.284 31.3569 192.934C31.6169 192.585 31.9786 192.317 32.4419 192.13C32.9051 191.943 33.4415 191.849 34.0511 191.849C34.6687 191.849 35.2092 191.943 35.6725 192.13C36.1438 192.317 36.5055 192.585 36.7574 192.934C37.0175 193.284 37.1476 193.694 37.1476 194.166C37.1476 194.58 37.0419 194.946 36.8306 195.263C36.6274 195.572 36.3308 195.819 35.9407 196.006ZM34.0511 192.837C33.474 192.837 33.0189 192.963 32.6857 193.215C32.3525 193.458 32.1858 193.792 32.1858 194.214C32.1858 194.637 32.3484 194.97 32.6735 195.214C33.0067 195.458 33.4659 195.58 34.0511 195.58C34.6443 195.58 35.1076 195.458 35.4408 195.214C35.7822 194.97 35.9528 194.637 35.9528 194.214C35.9528 193.792 35.7781 193.458 35.4286 193.215C35.0873 192.963 34.6281 192.837 34.0511 192.837ZM34.0511 199.591C34.7256 199.591 35.258 199.452 35.6481 199.176C36.0382 198.892 36.2332 198.51 36.2332 198.03C36.2332 197.559 36.0382 197.189 35.6481 196.921C35.258 196.644 34.7256 196.506 34.0511 196.506C33.3765 196.506 32.8482 196.644 32.4662 196.921C32.0843 197.189 31.8933 197.559 31.8933 198.03C31.8933 198.51 32.0843 198.892 32.4662 199.176C32.8482 199.452 33.3765 199.591 34.0511 199.591Z" fill="white"/>
<path d="M196.333 238.017C197.552 238.017 198.446 238.249 199.015 238.712C199.592 239.167 199.881 239.793 199.881 240.589C199.881 241.093 199.759 241.548 199.515 241.955C199.279 242.353 198.918 242.67 198.43 242.906C197.951 243.133 197.357 243.247 196.65 243.247C196.049 243.247 195.468 243.158 194.907 242.979C194.346 242.792 193.883 242.536 193.517 242.211L194.078 241.248C194.371 241.524 194.744 241.747 195.2 241.918C195.655 242.081 196.134 242.162 196.638 242.162C197.28 242.162 197.776 242.028 198.125 241.76C198.483 241.483 198.662 241.109 198.662 240.638C198.662 240.126 198.467 239.74 198.077 239.48C197.687 239.212 197.02 239.078 196.077 239.078H194.139L194.59 234.616H199.405V235.676H195.614L195.382 238.017H196.333Z" fill="white"/>
<path d="M80.4992 234.616V235.445L77.0492 243.149H75.7569L79.1338 235.676H75.2327V237.2H74.0624V234.616H80.4992Z" fill="white"/>
<path d="M136.971 253.816C137.532 253.816 138.032 253.922 138.471 254.133C138.918 254.344 139.267 254.649 139.519 255.047C139.771 255.437 139.897 255.888 139.897 256.4C139.897 256.937 139.763 257.408 139.495 257.815C139.235 258.221 138.873 258.538 138.41 258.765C137.954 258.985 137.442 259.095 136.874 259.095C135.728 259.095 134.842 258.725 134.216 257.985C133.598 257.246 133.289 256.197 133.289 254.84C133.289 253.889 133.456 253.08 133.789 252.414C134.131 251.739 134.602 251.231 135.203 250.89C135.813 250.541 136.52 250.366 137.325 250.366C137.739 250.366 138.129 250.411 138.495 250.5C138.861 250.581 139.178 250.703 139.446 250.866L138.983 251.817C138.576 251.548 138.032 251.414 137.349 251.414C136.463 251.414 135.768 251.691 135.264 252.243C134.76 252.788 134.509 253.584 134.509 254.633C134.509 254.763 134.513 254.864 134.521 254.937C134.765 254.572 135.098 254.295 135.52 254.108C135.951 253.913 136.435 253.816 136.971 253.816ZM136.825 258.107C137.386 258.107 137.841 257.957 138.19 257.656C138.54 257.355 138.714 256.953 138.714 256.449C138.714 255.945 138.536 255.547 138.178 255.254C137.829 254.954 137.357 254.803 136.764 254.803C136.382 254.803 136.041 254.877 135.74 255.023C135.447 255.169 135.216 255.368 135.045 255.62C134.882 255.872 134.801 256.153 134.801 256.461C134.801 256.762 134.878 257.038 135.033 257.29C135.195 257.534 135.427 257.733 135.728 257.888C136.036 258.034 136.402 258.107 136.825 258.107Z" fill="white"/>
</svg>
