<svg width="256" height="240" viewBox="0 0 256 240" fill="none" xmlns="http://www.w3.org/2000/svg">
<path d="M55.1729 1.50843C55.1729 0.675349 55.8482 0 56.6813 0H112.363C113.196 0 113.871 0.675349 113.871 1.50843V41.4461L105.498 36.3497C105.262 36.2058 104.991 36.1297 104.714 36.1297H56.6813C55.8482 36.1297 55.1729 35.4544 55.1729 34.6213V1.50843Z" fill="#25B2EF"/>
<rect x="64.7266" y="11.2922" width="35.1544" height="3.90604" rx="0.761289" fill="white"/>
<rect x="64.7266" y="21.0591" width="23.4363" height="3.90604" rx="0.761289" fill="white"/>
<path d="M100.366 175.114C67.4419 182.962 27.5342 117.565 27.5342 117.565L31.3826 90.2348C31.3826 90.2348 20.8117 78.2374 22.2505 74.0535C23.9884 69.0022 33.8596 76.0318 45.4482 85.2191C57.6245 94.8706 88.0733 126.334 90.245 128.447L117.043 118.891L123.05 124.898L129.657 163.341C129.657 163.341 113.617 171.957 100.366 175.114Z" fill="#F5C6B7"/>
<path d="M155.487 42.0037C155.487 42.0037 140.47 29.3892 158.491 20.379C173.614 12.8171 199.739 17.0339 207.746 18.1987C209.28 18.4218 210.149 17.3756 210.149 17.3756V22.7817L213.753 17.3756V22.7817L217.958 20.379L216.156 26.3858C217.481 32.6335 217.916 48.7394 217.357 59.4233C216.798 70.1072 210.481 88.0245 210.481 88.0245C203.776 86.4137 194.873 82.3098 192.135 71.8461C192.135 71.8461 199.385 69.6797 202.539 64.251C189.553 62.0524 169.185 51.0724 155.487 42.0037Z" fill="#151414"/>
<path fill-rule="evenodd" clip-rule="evenodd" d="M156.755 85.5819C163.785 89.536 173.213 89.0157 173.213 89.0157L172.513 93.2236H209.915L210.481 88.0251C203.788 86.4143 194.872 82.3104 192.134 71.8468C192.134 71.8468 205.715 67.7886 203.788 56.863C203.704 56.4039 203.595 55.9496 203.463 55.502L203.464 55.5021C201.611 49.1922 195.331 47.0737 189.608 49.9789L189.607 49.9787C187.271 51.2097 185.278 53.0036 183.809 55.1981C183.809 55.1981 173.666 54.5613 164.376 44.1101C162.451 44.0892 160.528 43.4945 158.619 42.9038C157.457 42.5441 156.299 42.1859 155.149 41.9597C154.311 45.3381 153.695 49.2356 153.2 52.3703C152.976 53.785 152.777 55.0443 152.593 56.0305C152.593 56.0305 147.869 57.7162 147.599 59.3603C147.182 61.8576 151.345 64.3549 151.345 64.3549C149.022 75.9673 150.096 81.836 156.755 85.5819Z" fill="#F5C6B7"/>
<path d="M140.903 196.333L151.707 102.971C163.17 99.6292 171.452 99.4669 171.452 99.4669L172.493 93.2236H209.915L209.328 98.6345C213.036 98.6236 216.738 98.9397 220.391 99.5793L217.403 193.333L140.903 196.333Z" fill="#25B2EF"/>
<path d="M115.742 118.146C120.47 115.965 125.56 113.618 130.218 111.537C134.301 109.697 138.055 108.032 140.94 106.809C144.449 105.317 148.045 104.035 151.707 102.971L150.716 111.537L149.268 124.023L147.824 136.51L146.379 148.996L145.476 156.776C145.06 156.992 141.393 158.969 135.837 161.483C133.989 162.315 131.933 163.214 129.722 164.122L129.423 164.242L117.069 122.621L115.713 118.159L115.742 118.146Z" fill="#25B2EF"/>
<path d="M197.635 167.337L240.111 174.988C235.687 189.561 230.048 202.383 225.354 208.868C208.987 231.538 155.274 227.546 155.274 227.546C152.088 227.535 149.098 227.848 146.504 228.67C143.52 229.613 140.476 230.87 137.551 232.077C129.459 235.419 122.283 238.382 119.817 233.268C119.817 233.268 112.728 234.304 113.798 227.211C113.798 227.211 110.183 227.381 109.211 224.854C107.262 219.807 119.007 212.931 119.007 212.931C119.007 212.931 109.337 216.213 106.878 214.462C103.752 212.25 105.615 207.552 121.175 200.819C131.86 196.197 145.226 193.904 162.586 192.889C176.291 188.895 192.516 184.961 192.516 184.961L197.635 167.337Z" fill="#F5C6B7"/>
<path d="M114.649 214.369C119.856 211.27 129.829 205.89 137.285 203.32" stroke="#B26C57" stroke-width="1.82907" stroke-miterlimit="10" stroke-linecap="round"/>
<path d="M113.544 227.031C120.257 222.52 133.267 214.063 140.607 211.636" stroke="#B26C57" stroke-width="1.82907" stroke-miterlimit="10" stroke-linecap="round"/>
<path d="M120.503 233.709C125.62 229.898 135.921 222.623 143.619 219.737" stroke="#B26C57" stroke-width="1.82907" stroke-miterlimit="10" stroke-linecap="round"/>
<path d="M214.421 99.0962C222.255 99.0898 232.546 100.505 239.454 106.918C242.525 109.767 244.926 113.577 246.131 118.708C249.635 133.482 245.938 155.756 240.099 174.99L197.635 167.338L214.421 99.0962Z" fill="#25B2EF"/>
<path d="M180.189 93.7898L179.357 101.132" stroke="#0C4ADC" stroke-width="1.66487" stroke-linecap="round" stroke-linejoin="round"/>
<path d="M187.264 93.7898L186.431 101.132" stroke="#0C4ADC" stroke-width="1.66487" stroke-linecap="round" stroke-linejoin="round"/>
<path d="M173.188 89.8943C175.907 89.6915 178.564 88.9859 181.025 87.8132" stroke="#A15842" stroke-width="1.66487" stroke-miterlimit="10" stroke-linecap="round"/>
<path d="M144.977 156.601L146.479 141.089" stroke="#0C4ADC" stroke-width="1.66487" stroke-linecap="round" stroke-linejoin="round"/>
<path d="M90.9777 127.834L98.878 135.97" stroke="#A15842" stroke-width="1.66487" stroke-miterlimit="10" stroke-linecap="round"/>
<path d="M209.499 97.8022H204.334" stroke="#0C4ADC" stroke-width="1.66487" stroke-linecap="round" stroke-linejoin="round"/>
<path d="M170.565 99.5093L169.783 104.196" stroke="#0C4ADC" stroke-width="1.66487" stroke-linecap="round" stroke-linejoin="round"/>
<path d="M193.045 183.869L204.128 181.271" stroke="#A15842" stroke-width="1.66487" stroke-miterlimit="10" stroke-linecap="round"/>
<path d="M197.324 166.256L204.088 128.833" stroke="#0C4ADC" stroke-width="1.66487" stroke-linecap="round" stroke-linejoin="round"/>
<path d="M28.334 87.7894C31.0426 90.5878 34.6756 94.2283 37.7226 96.847C37.7226 96.847 37.7972 111.199 51.5438 120.108" stroke="#A15842" stroke-width="1.66487" stroke-miterlimit="10" stroke-linecap="round"/>
<path d="M189.35 62.8396L195.593 58.2612" stroke="#A15842" stroke-width="1.66487" stroke-miterlimit="10" stroke-linecap="round"/>
<path d="M159.931 57.7034C158.977 57.7034 158.204 56.9301 158.204 55.9761C158.204 55.0221 158.977 54.2488 159.931 54.2488C160.885 54.2488 161.658 55.0221 161.658 55.9761C161.658 56.9301 160.885 57.7034 159.931 57.7034Z" fill="#30242A"/>
<path d="M161.592 67.7383C161.176 68.5707 158.857 70.4853 156.618 69.1825" stroke="#A15842" stroke-width="1.66487" stroke-miterlimit="10" stroke-linecap="round"/>
<path d="M35.9568 129.557C36.3252 128.175 36.1436 126.302 34.6171 124.059C34.6171 124.059 38.9019 124 40.0328 120.953C41.5173 116.949 38.5248 114.14 38.5248 114.14C38.5248 114.14 42.3954 113.36 42.39 110.004C42.3853 106.365 38.3016 103.712 38.3016 103.712" stroke="#A15842" stroke-width="3.32973" stroke-miterlimit="10" stroke-linecap="round"/>
<path d="M19.103 92.2308C16.8992 96.177 19.864 99.673 19.864 99.673C19.864 99.673 12.5694 102.624 16.7335 109.424C16.7335 109.424 12.7637 114.992 18.3285 118.964C18.3285 118.964 15.1755 122.059 20.4259 126.921C25.5444 131.662 31.3273 133.187 33.96 132.114C35.352 131.545 37.6713 128.545 34.6183 124.059C34.6183 124.059 38.9031 124 40.034 120.953C41.5185 116.949 38.526 114.141 38.526 114.141C38.526 114.141 42.3966 113.36 42.3912 110.004C42.3865 106.365 38.3028 103.713 38.3028 103.713C38.3028 103.713 38.0117 103.883 37.2156 100.981C35.5435 94.8527 38.6791 97.5933 36.5033 97.0707L27.5401 88.2938C27.5401 88.2938 21.3016 88.2924 19.103 92.2308Z" fill="#F5C6B7"/>
<path d="M1.9035 92.8324C3.02903 86.4291 13.7225 88.305 25.3902 88.5703L26.914 89.1357L27.2434 101.422L20.5029 99.2903C8.42079 98.3031 0.777978 99.2358 1.9035 92.8324Z" fill="#F5C6B7"/>
<path d="M40.3101 104.294C34.8289 104.232 26.0677 103.346 19.5277 100.024" stroke="#A15842" stroke-width="1.66487" stroke-miterlimit="10" stroke-linecap="round"/>
<path d="M39.8627 114.539C31.9326 114.504 24.0817 112.961 16.7283 109.992" stroke="#A15842" stroke-width="1.66487" stroke-miterlimit="10" stroke-linecap="round"/>
<path d="M34.6604 124.644C30.5295 124.134 24.2802 122.441 18.3101 119.795" stroke="#A15842" stroke-width="1.66487" stroke-miterlimit="10" stroke-linecap="round"/>
</svg>
