<svg width="905" height="558" viewBox="0 0 905 558" fill="none" xmlns="http://www.w3.org/2000/svg">
<path d="M172.972 160.076C169.537 160.076 166.752 157.291 166.752 153.856C166.752 150.421 169.537 147.637 172.972 147.637C176.407 147.637 179.191 150.421 179.191 153.856C179.191 157.291 176.407 160.076 172.972 160.076Z" fill="#151414"/>
<path d="M172.972 132.235V151.785" stroke="#151414" stroke-width="1.94952" stroke-miterlimit="10"/>
<path d="M146.17 138.756H155.635V220.502H146.17V138.756Z" fill="#151414"/>
<path d="M122.73 71.3523C124.623 75.0951 132.563 88.1613 150.902 88.1613C169.242 88.1613 177.176 75.0951 179.075 71.3523L196.806 138.754H104.993L122.73 71.3523Z" fill="#99E7FF"/>
<path d="M130.381 72.6631L118.458 138.768" stroke="#F5EBDD" stroke-width="1.94952" stroke-miterlimit="10" stroke-linecap="round"/>
<path d="M171.418 73.5242L183.188 138.769" stroke="#F5EBDD" stroke-width="1.94952" stroke-miterlimit="10" stroke-linecap="round"/>
<path d="M158.633 73.0991L163.193 138.743" stroke="#F5EBDD" stroke-width="1.94952" stroke-miterlimit="10" stroke-linecap="round"/>
<path d="M143.172 73.0991L138.599 138.872" stroke="#F5EBDD" stroke-width="1.94952" stroke-miterlimit="10" stroke-linecap="round"/>
<path d="M150.88 88.1568C132.535 88.1568 124.6 75.0906 122.707 71.3478V71.2188H179.04L179.077 71.3478C177.178 75.0968 169.244 88.1568 150.88 88.1568Z" fill="#68C9FF"/>
<path d="M454.552 540.974C456.262 540.975 457.913 540.35 459.195 539.218C460.476 538.086 461.299 536.525 461.509 534.828L466.696 491.247H442.408L447.595 534.828C447.804 536.525 448.627 538.088 449.908 539.22C451.19 540.352 452.842 540.976 454.552 540.974Z" fill="#151414"/>
<path d="M182.065 540.974C183.775 540.976 185.426 540.352 186.706 539.219C187.987 538.087 188.809 536.525 189.016 534.828L194.203 491.247H169.921L175.108 534.828C175.317 536.525 176.14 538.088 177.421 539.22C178.703 540.352 180.355 540.976 182.065 540.974Z" fill="#151414"/>
<path d="M555.743 311.135H446.71V491.823H605.457V360.842C605.455 347.659 600.217 335.015 590.894 325.693C581.571 316.371 568.927 311.135 555.743 311.135Z" fill="#D1F7FF"/>
<path d="M63.9325 311.135H172.966V491.823H14.2188V360.842C14.2204 347.659 19.4588 335.015 28.7817 325.693C38.1047 316.371 50.7486 311.135 63.9325 311.135Z" fill="#D1F7FF"/>
<path d="M474.836 220.502H144.63C131.446 220.502 118.801 225.739 109.478 235.062C100.154 244.386 94.9167 257.031 94.9167 270.216V491.805H524.537V270.209C524.537 257.024 519.299 244.379 509.976 235.056C500.653 225.733 488.008 220.495 474.823 220.495L474.836 220.502Z" fill="#D1F7FF"/>
<path d="M499.28 382.424H136.594C123.865 382.424 111.657 387.714 102.655 397.132C93.6542 406.549 88.5974 419.322 88.5974 432.64V491.926H547.265V432.64C547.265 419.324 542.209 406.553 533.211 397.136C524.212 387.719 512.007 382.427 499.28 382.424Z" fill="white"/>
<path d="M549.362 329.479C528.941 329.479 512.386 346.033 512.386 366.455V474.104H588.83V369.265C588.829 358.713 584.67 348.593 577.268 341.132C569.867 333.67 559.829 329.479 549.362 329.479Z" fill="white"/>
<path d="M70.4592 329.479C89.7397 329.479 105.37 345.108 105.37 364.389V474.104H30.9912V369.265C30.9925 358.713 35.1513 348.593 42.5528 341.132C49.9544 333.67 59.9925 329.479 70.4592 329.479Z" fill="white"/>
<path d="M114.234 236.493L111.383 236.051V235.215C112.305 235.701 113.258 236.128 114.234 236.493Z" fill="#151414"/>
<path d="M76.9171 491.904C75.4612 487.723 72.74 484.099 69.1311 481.534C65.5223 478.969 61.2047 477.591 56.7773 477.591C52.3499 477.591 48.0322 478.969 44.4233 481.534C40.8144 484.099 38.0933 487.723 36.6373 491.904C35.2452 487.914 32.6994 484.427 29.3229 481.885C25.9463 479.343 21.8911 477.861 17.6713 477.627C19.5559 474.266 21.8 471.119 24.3641 468.243L32.1079 459.571C34.5191 456.866 36.0391 453.484 36.4613 449.885C36.8836 446.286 36.1875 442.645 34.4678 439.455L27.8918 427.237C29.7356 429.081 40.4047 439.087 56.599 439.087C72.7933 439.087 83.4563 429.1 85.3001 427.237L78.7179 439.455C77.0016 442.647 76.3086 446.288 76.733 449.887C77.1573 453.486 78.6786 456.866 81.0902 459.571L88.8339 468.243C91.4041 471.124 93.6525 474.277 95.5391 477.646C91.3813 477.942 87.4017 479.451 84.0921 481.985C80.7825 484.519 78.288 487.968 76.9171 491.904Z" fill="#99E7FF"/>
<path d="M16.4972 504.233C20.925 504.235 25.2424 505.615 28.8511 508.181C32.4597 510.747 35.1808 514.372 36.6372 518.553C38.0903 514.369 40.8104 510.741 44.4196 508.174C48.0288 505.607 52.348 504.228 56.7771 504.228C61.2063 504.228 65.5254 505.607 69.1346 508.174C72.7439 510.741 75.4639 514.369 76.917 518.553C78.6768 513.497 82.2731 509.288 86.9921 506.76C91.7111 504.233 97.208 503.572 102.392 504.909C102.088 518.431 96.6316 531.327 87.1376 540.961H26.1217C16.6465 531.348 11.1934 518.483 10.8738 504.989C12.7065 504.489 14.5976 504.235 16.4972 504.233Z" fill="#99E7FF"/>
<path d="M56.629 439.087C40.4347 439.087 29.7716 429.1 27.9217 427.237H85.3301C83.4863 429.1 72.8172 439.087 56.629 439.087Z" fill="#151414"/>
<path d="M76.9181 518.565C75.465 514.381 72.7449 510.754 69.1357 508.186C65.5265 505.619 61.2074 504.24 56.7782 504.24C52.3491 504.24 48.0299 505.619 44.4207 508.186C40.8114 510.754 38.0914 514.381 36.6383 518.565C34.8634 513.46 31.2155 509.219 26.4325 506.7C21.6496 504.182 16.0887 503.575 10.8749 505.001C10.6301 495.431 12.9789 485.972 17.6722 477.627C21.892 477.861 25.9473 479.343 29.3238 481.885C32.7004 484.427 35.2462 487.914 36.6383 491.904C38.0943 487.723 40.8154 484.099 44.4243 481.534C48.0331 478.969 52.3508 477.591 56.7782 477.591C61.2056 477.591 65.5232 478.969 69.1321 481.534C72.741 484.099 75.4621 487.723 76.9181 491.904C78.2931 487.959 80.7968 484.504 84.1184 481.969C87.4399 479.434 91.4329 477.931 95.6015 477.646C100.261 485.967 102.596 495.388 102.362 504.921C97.1783 503.584 91.6815 504.245 86.9625 506.773C82.2434 509.3 78.6471 513.509 76.8874 518.565H76.9181Z" fill="#68C9FF"/>
<path d="M52.376 437.408C51.2083 430.242 45.8798 401.811 32.4881 386.397" stroke="#151414" stroke-width="1.94952" stroke-miterlimit="10" stroke-linecap="round"/>
<path d="M58.5667 437.612C58.6528 429.475 59.4887 389.49 67.4414 365.632" stroke="#151414" stroke-width="1.94952" stroke-miterlimit="10" stroke-linecap="round"/>
<path d="M23.3378 409.601C11.5941 404.434 3.016 398.104 4.17797 395.463C5.33994 392.822 15.802 394.871 27.5457 400.038C39.2894 405.205 47.8676 411.535 46.7056 414.176C45.5437 416.817 35.0815 414.768 23.3378 409.601Z" fill="#151414"/>
<path d="M23.3451 336.952C19.1244 331.246 17.3177 325.426 19.3097 323.952C21.3018 322.479 26.3382 325.91 30.5589 331.616C34.7796 337.322 36.5863 343.142 34.5942 344.616C32.6022 346.089 27.5657 342.658 23.3451 336.952Z" fill="#151414"/>
<path d="M86.9012 413.726C71.594 411.411 59.5168 407.341 59.9259 404.636C60.335 401.931 73.0755 401.615 88.3826 403.93C103.69 406.245 115.767 410.315 115.358 413.02C114.949 415.725 102.208 416.041 86.9012 413.726Z" fill="#151414"/>
<path d="M97.597 373.763V373.806C95.3378 375.071 93.6344 377.137 92.8222 379.596C92.01 382.055 92.1479 384.729 93.2088 387.091C94.2696 389.453 96.1765 391.333 98.5539 392.359C100.931 393.385 103.607 393.484 106.054 392.637V392.68C93.2212 398.445 80.9172 398.881 78.5695 393.657C76.2217 388.433 84.7645 379.528 97.597 373.763Z" fill="#99CEFF"/>
<path d="M59.6654 331.976C62.4003 331.269 65.9525 335.399 68.5461 341.809C71.6682 334.047 76.1977 328.854 79.2461 329.861C82.2944 330.869 82.8476 337.734 80.7334 345.841C86.6211 342.252 91.9373 341.047 93.7073 343.241C95.9689 346.044 91.6116 353.308 83.9723 359.472C81.7985 361.245 79.4583 362.803 76.9844 364.125C76.5631 362.452 75.7306 360.911 74.5626 359.642C73.3946 358.372 71.9281 357.415 70.2961 356.856C68.6641 356.298 66.9184 356.155 65.2175 356.443C63.5166 356.73 61.9145 357.438 60.5565 358.501C59.4112 356.038 58.4958 353.475 57.8216 350.843C55.3633 341.317 56.1807 332.879 59.6654 331.976Z" fill="#99CEFF"/>
<path d="M0.112053 375.101C0.954033 372.41 6.33783 371.58 13.1351 372.754C8.21846 365.993 6.17801 359.411 8.64864 357.352C11.1193 355.293 17.2528 358.465 22.993 364.537C23.0606 357.641 24.8368 352.497 27.6455 352.153C31.2162 351.716 35.0819 359.257 36.2496 368.999C36.6033 371.78 36.6877 374.59 36.5016 377.388C34.8591 376.861 33.1109 376.753 31.4159 377.073C29.7209 377.393 28.1328 378.132 26.7957 379.221C25.4586 380.311 24.4149 381.718 23.7594 383.313C23.1039 384.909 22.8574 386.643 23.0422 388.358C20.3457 388.029 17.6855 387.451 15.0956 386.631C5.76008 383.7 -0.96347 378.537 0.112053 375.101Z" fill="#99CEFF"/>
<path d="M26.741 379.293C28.0802 378.177 29.6799 377.417 31.3915 377.084C33.103 376.751 34.871 376.855 36.5312 377.388C36.1994 382.022 35.0256 385.568 33.2617 386.89C31.6208 388.414 27.8103 388.918 23.0718 388.359C22.8883 386.662 23.1272 384.947 23.7674 383.365C24.4076 381.783 25.4291 380.385 26.741 379.293Z" fill="#151414"/>
<path d="M70.1864 356.8C71.8429 357.346 73.3343 358.302 74.5218 359.58C75.7092 360.858 76.554 362.415 76.9775 364.107C72.8721 366.277 69.2399 367.18 67.1872 366.356C65.0239 365.742 62.5839 362.804 60.5497 358.484C61.8923 357.429 63.4749 356.724 65.1563 356.43C66.8378 356.136 68.5659 356.263 70.1864 356.8Z" fill="#151414"/>
<path d="M96.453 391.148C97.551 390.532 98.3782 389.526 98.7712 388.33C99.1642 387.134 99.0945 385.834 98.5759 384.686C98.0574 383.539 97.1276 382.627 95.97 382.132C94.8125 381.636 93.5112 381.592 92.3231 382.009C92.4605 380.31 93.0154 378.671 93.9385 377.237C94.8616 375.804 96.1243 374.62 97.6146 373.792L106.071 392.623C104.47 393.186 102.755 393.345 101.078 393.088C99.4004 392.831 97.812 392.165 96.453 391.148Z" fill="white"/>
<path d="M98.6118 384.696C99.1285 385.848 99.1935 387.152 98.794 388.349C98.3944 389.547 97.5594 390.551 96.4546 391.161C95.0472 390.114 93.9296 388.725 93.2071 387.126C92.4846 385.528 92.1809 383.771 92.3246 382.022C93.5167 381.596 94.826 381.634 95.9912 382.129C97.1565 382.625 98.0922 383.541 98.6118 384.696Z" fill="#6DB9FF"/>
<path d="M687.116 510.412C687.116 510.412 578.521 519.896 549.793 485.323C521.065 450.75 568.857 419.665 600.538 398.319C622.536 383.506 639.392 367.33 650.883 355.943C665.326 341.638 676.056 331.015 680.531 311.318C689.42 272.114 648.325 236.524 625.152 221.553C592.234 200.302 515.286 230.438 452.406 258.895C377.901 292.613 289.187 390.091 289.187 390.091" stroke="#282E30" stroke-width="7.13114" stroke-miterlimit="10"/>
<path d="M240.072 434.661C240.451 432.978 286.308 384.618 286.308 384.618L298.511 388.54L255.18 434.981L240.072 434.661Z" fill="#282E30"/>
<path d="M198.63 440.456L300.787 458.862L300.445 451.582C300.09 443.789 290.756 436.901 282.997 435.586L221.188 424.951C214.43 423.792 207.593 426.777 203.843 432.506L198.63 440.456Z" fill="#282E30"/>
<path d="M202.148 435.069L300.732 453.048L300.39 445.768C300.035 437.975 294.274 431.514 286.515 430.199L224.706 419.564C217.947 418.405 211.111 421.39 207.36 427.119L202.148 435.069Z" fill="#99E7FF"/>
<path d="M682.958 521.355L712.956 518.818L711.178 497.979L681.148 500.485L682.958 521.355Z" fill="#1A1E21"/>
<path d="M815.202 527.35L723.654 534.994C706.163 536.453 692.069 521.133 695.307 504.164L704.353 456.65C707.464 440.41 721.178 428.198 737.938 426.803L835.232 418.651C855.802 416.938 873.928 431.941 875.674 452.177L881.705 521.799L815.202 527.35Z" fill="#99E7FF"/>
<path d="M701.941 469.369L829.201 458.743" stroke="white" stroke-width="4.07497" stroke-miterlimit="10"/>
<path d="M793.894 499.266C796.525 529.25 823.475 551.517 854.16 548.945C884.845 546.372 907.593 520.015 905.004 489.988C902.373 460.003 875.423 437.736 844.738 440.309C814.011 442.881 791.262 469.281 793.894 499.266Z" fill="white"/>
<path d="M808.154 497.789C810.122 520.341 830.279 537.088 853.23 535.153C876.18 533.218 893.195 513.394 891.259 490.811C889.291 468.259 869.133 451.512 846.183 453.447C823.2 455.381 806.186 475.237 808.154 497.789Z" fill="#3C4149"/>
<path d="M832.406 495.759C833.232 505.148 841.612 512.094 851.167 511.301C860.722 510.508 867.801 502.229 866.975 492.873C866.15 483.484 857.77 476.538 848.215 477.33C838.692 478.123 831.613 486.37 832.406 495.759Z" fill="#1A1E21"/>
<path d="M675.661 328.597C669.55 328.597 664.597 323.644 664.597 317.533C664.597 311.423 669.55 306.469 675.661 306.469C681.771 306.469 686.725 311.423 686.725 317.533C686.725 323.644 681.771 328.597 675.661 328.597Z" fill="#F5EBDD"/>
<path d="M675.661 305.281V314.246" stroke="#A7756A" stroke-width="2.11261" stroke-miterlimit="10" stroke-linecap="round"/>
<path d="M627.677 41.0024C638.704 48.0915 631.262 63.1242 621.102 63.7185C619.703 66.9831 637.123 76.7836 637.123 76.7836L638.295 92.4217H604.422L604.367 85.9022C590.213 89.4251 585 83.8652 582.257 78.844C579.162 73.148 580.078 67.8172 581.137 60.8891C581.137 60.8891 576.079 58.8769 576.462 55.8245C576.772 53.348 582.165 52.4379 582.165 52.4379C582.245 51.3482 582.301 50.2214 582.332 49.0512C582.387 45.9453 582.614 42.8448 583.013 39.7641C594.9 46.0979 609.704 49.3855 609.704 49.3855C609.704 49.3855 619.306 35.6159 627.677 41.0024Z" fill="#FFC5A4"/>
<path d="M443.424 266.325C436.942 268.802 432.162 264.622 433.357 262.226C434.137 260.666 456.569 243.838 479.718 226.738L506.235 259.806C500.149 262.14 496.137 263.459 496.137 263.459C496.137 263.459 489.562 273.619 479.99 279.599C479.99 279.599 469.83 304.111 464.45 303.517C460.834 303.114 465.645 289.165 466.84 283.184C466.84 283.184 454.878 303.517 447.108 303.517C445.313 303.517 443.66 302.278 443.523 299.331C443.523 299.331 439.58 300.415 438.137 297.536C437.518 296.341 437.518 294.545 437.518 293.35C437.518 293.35 434.422 294.211 432.732 292.155C429.884 288.713 436.125 277.333 443.424 266.325Z" fill="#FFC5A4"/>
<path d="M692.848 161.183C693.162 160.91 693.515 160.613 693.907 160.291C693.56 160.588 693.214 160.885 692.848 161.183Z" fill="#99E7FF"/>
<path d="M530.802 189.286C530.802 189.286 558.391 125.793 569.665 110.959C581.038 96.0064 604.479 96.8237 604.479 96.8237L604.442 92.4216H638.295L639.467 96.8237C673.463 96.8237 681.042 128.136 694.564 158.843C698.177 167.048 714.393 197.056 704.828 219.177C696.457 236.513 666.559 232.928 666.559 232.928L660.578 220.372H584.371L582.809 194.065C582.809 194.065 574.42 215.568 556.502 232.334C543.705 244.308 519.788 254.567 506.21 259.774L479.693 226.737C504.848 208.169 530.802 189.286 530.802 189.286Z" fill="#99E7FF"/>
<path d="M604.3 90.851L601.369 96.7123C622.47 103.277 637.318 99.2522 640.054 96.7123L638.295 89.6787C625.532 91.8178 617.574 91.35 604.3 90.851Z" fill="#68C9FF"/>
<path d="M664.393 193.236L676.707 198.852" stroke="#151414" stroke-width="2.11261" stroke-linecap="round" stroke-linejoin="round"/>
<path d="M659.966 222.769L667.996 168.687" stroke="#151414" stroke-width="2.11261" stroke-linecap="round" stroke-linejoin="round"/>
<path d="M600.197 220.373H584.63L582.835 194.066L589.41 177.925L597.267 207.492L600.197 220.373Z" fill="#68C9FF"/>
<path d="M622.075 10.9003C611.395 7.57552 601.94 10.9251 595.916 14.2932C585.824 2.73389 566.093 11.1046 570.891 26.6264C573.51 35.1209 583.032 39.6963 583.032 39.7149V39.783C594.92 46.1168 609.723 49.4044 609.723 49.4044C609.723 49.4044 619.307 35.5914 627.678 40.9779C638.705 48.067 631.263 63.0749 621.103 63.6941C619.073 68.4325 637.123 77.956 637.123 77.956C637.123 77.956 654.962 61.2939 650.018 42.7879C647.43 31.5568 641.658 16.9988 622.075 10.9003Z" fill="#151414"/>
<path d="M583.756 194.988C587.148 187.02 592.956 172.873 596.584 161.184" stroke="#151414" stroke-width="2.11261" stroke-linecap="round" stroke-linejoin="round"/>
<path d="M467.7 283.859L469.83 278.968" stroke="#A7756A" stroke-width="2.11261" stroke-linecap="round" stroke-linejoin="round"/>
<path d="M443.504 298.811C447.392 293.74 455.466 282.379 462.078 273.587" stroke="#A7756A" stroke-width="2.11261" stroke-linecap="round" stroke-linejoin="round"/>
<path d="M436.694 292.619C441.449 285.629 448.736 274.664 453.683 267.612" stroke="#A7756A" stroke-width="2.11261" stroke-linecap="round" stroke-linejoin="round"/>
<path d="M442.012 266.053C444.247 262.623 446.754 258.889 449.441 255.106" stroke="#A7756A" stroke-width="2.11261" stroke-linecap="round" stroke-linejoin="round"/>
<path d="M594.282 13.8408C592.908 14.8129 591.372 15.9459 590.01 17.0851" stroke="#0B3EB8" stroke-width="2.11261" stroke-linecap="round" stroke-linejoin="round"/>
<path d="M604.714 87.0661C607.09 86.2352 609.383 85.1822 611.562 83.9209" stroke="#A7756A" stroke-width="2.11261" stroke-linecap="round" stroke-linejoin="round"/>
<path d="M689.815 338.95L605.473 351.681L661.741 220.387C686.515 250.769 695.376 274.638 698.254 328.647C698.525 333.737 694.854 338.189 689.815 338.95Z" fill="#68C9FF"/>
<path d="M715.844 508.497C708.255 522.464 706.735 529.537 710.873 535.877L739.812 520.553C739.812 520.553 745.823 505.137 752.756 499.636L752.779 499.653C757.319 495.888 762.197 492.552 767.353 489.688C763.068 475.349 757.504 461.423 750.729 448.079L706.685 471.098C717.798 487.596 721.865 497.414 715.844 508.497Z" fill="#4EC0FF"/>
<path d="M756.721 511.607L770.834 504.131C769.944 499.263 768.775 494.45 767.332 489.716C762.176 492.58 757.297 495.916 752.757 499.68L756.721 511.607Z" fill="#151414"/>
<path d="M715.409 489.647L725.006 484.273" stroke="#F5EBDD" stroke-width="2.53637" stroke-miterlimit="10" stroke-linecap="round"/>
<path d="M717.525 498.433L727.127 493.062" stroke="#F5EBDD" stroke-width="2.53637" stroke-miterlimit="10" stroke-linecap="round"/>
<path d="M695.467 346.802C694.32 343.721 693.047 338.576 692.22 330.58C692.063 329.067 691.888 327.121 691.681 324.818C689.559 301.249 684.063 240.195 660.569 220.973H606.645C606.096 240.371 615.926 305.37 642.882 373.391C643.016 373.332 642.747 373.447 642.882 373.391C647.716 384.754 653.342 395.782 659.719 406.397C661.035 408.555 662.39 410.717 663.767 412.88L663.736 412.899C670.269 423.341 677.427 433.778 684.289 443.784C691.709 454.602 698.783 464.918 704.351 474.193L755.739 448.072C750.412 435.405 743.972 423.234 736.496 411.704C727.092 397.31 720.093 387.09 714.735 379.267C703.858 363.386 698.667 355.399 695.467 346.802Z" fill="#0B3EB8"/>
<path d="M560.324 520.133C547.535 529.571 543.162 535.335 544.225 542.831L576.93 541.206C576.93 541.206 588.905 529.787 597.516 527.74L597.529 527.765C603.236 526.278 609.068 525.322 614.952 524.911C617.143 510.107 618.001 495.136 617.516 480.178L567.868 482.375C570.947 502.027 570.473 512.644 560.324 520.133Z" fill="#4EC0FF"/>
<path d="M596.036 540.264L611.987 539.469C613.243 534.682 614.222 529.827 614.92 524.927C609.037 525.338 603.204 526.294 597.497 527.781L596.036 540.264Z" fill="#151414"/>
<path d="M567.915 502.873L578.885 502.07" stroke="#F5EBDD" stroke-width="2.53637" stroke-miterlimit="10" stroke-linecap="round"/>
<path d="M566.109 511.729L577.082 510.93" stroke="#F5EBDD" stroke-width="2.53637" stroke-miterlimit="10" stroke-linecap="round"/>
<path d="M619.329 351.129C622.845 340.544 670.001 263.119 661.154 222.145H584.371C570.89 245.004 555.182 302.563 553.306 349.922L553.321 349.923C553.07 355.082 552.917 360.335 552.917 365.677C553.059 379.654 553.608 396.51 554.725 408.683C556.359 428.97 558.811 446.634 560.879 461.531C561.906 468.929 562.839 475.645 563.529 481.66H620.731C621.146 472.485 620.868 463.292 619.901 454.158C618.828 444.491 617.483 435.91 616.229 427.91C612.157 401.927 609.047 382.082 619.329 351.129Z" fill="#0B3EB8"/>
<path d="M629.504 332.338C629.504 332.338 643.337 312.644 647.088 292.481" stroke="#151414" stroke-width="2.11261" stroke-linecap="round" stroke-linejoin="round"/>
<path d="M585.802 347.578C581.808 349.935 577.378 351.46 572.78 352.062C568.182 352.664 555.304 352.331 550.837 351.082C547.445 259.072 584.63 220.354 584.63 220.354H617.068C616.078 237.356 602.958 337.796 585.802 347.578Z" fill="#68C9FF"/>
<path d="M586.406 66.635C587.446 67.1613 591.179 67.3161 592.424 64.3442" stroke="#A7756A" stroke-width="2.11261" stroke-linecap="round" stroke-linejoin="round"/>
<path d="M588.815 53.559C587.823 53.559 587.019 52.7551 587.019 51.7635C587.019 50.7719 587.823 49.968 588.815 49.968C589.807 49.968 590.61 50.7719 590.61 51.7635C590.61 52.7551 589.807 53.559 588.815 53.559Z" fill="#A7756A"/>
<path d="M622.891 51.1626L616.916 55.348" stroke="#A7756A" stroke-width="2.11261" stroke-linecap="round" stroke-linejoin="round"/>
<path d="M661.16 220.373H584.629" stroke="#151414" stroke-width="2.11261" stroke-miterlimit="10" stroke-linecap="round"/>
<path d="M639.193 222.168C639.193 222.168 625.188 242.191 631.764 244.352C637.844 246.346 639.039 231.394 639.193 222.168Z" stroke="#68C9FF" stroke-width="2.11261" stroke-linecap="round" stroke-linejoin="round"/>
<path d="M639.627 222.168C639.627 222.168 646.809 240.123 652.189 237.114C655.694 235.17 646.809 226.372 639.627 222.168Z" stroke="#68C9FF" stroke-width="2.11261" stroke-linecap="round" stroke-linejoin="round"/>
<ellipse cx="655.293" cy="22.2731" rx="22.273" ry="22.2731" fill="#151414"/>
<path d="M633.607 16.4119C632.825 18.561 632.903 23.7972 634.779 27.5484" stroke="#0B3EB8" stroke-width="2.11261" stroke-linecap="round" stroke-linejoin="round"/>
</svg>
