<svg width="248" height="280" viewBox="0 0 248 280" fill="none" xmlns="http://www.w3.org/2000/svg">
<path d="M17.0208 98.6909C12.8776 98.6909 8.90411 100.337 5.97443 103.266C3.04474 106.196 1.39886 110.17 1.39886 114.313V262.475C1.39886 266.618 3.04474 270.592 5.97443 273.521C8.90411 276.451 12.8776 278.097 17.0208 278.097H209.248C213.391 278.097 217.364 276.451 220.294 273.521C223.224 270.592 224.869 266.618 224.869 262.475V114.313C224.869 110.17 223.224 106.196 220.294 103.266C217.364 100.337 213.391 98.6909 209.248 98.6909H17.0208ZM17.0208 97.292H209.248C213.76 97.2966 218.087 99.0914 221.278 102.282C224.469 105.473 226.264 109.8 226.268 114.313V262.475C226.264 266.988 224.469 271.314 221.278 274.505C218.087 277.696 213.76 279.491 209.248 279.496H17.0208C12.5081 279.491 8.18143 277.696 4.9904 274.505C1.79939 271.314 0.00462341 266.988 0 262.475V114.313C0.00462341 109.8 1.79939 105.473 4.9904 102.282C8.18143 99.0914 12.5081 97.2966 17.0208 97.292Z" fill="white"/>
<path d="M17.0211 98.6914H209.248C217.876 98.6914 224.87 105.686 224.87 114.313V262.475C224.87 271.103 217.876 278.097 209.248 278.097H17.0211C8.39333 278.097 1.39912 271.103 1.39912 262.475V114.313C1.39912 105.686 8.39333 98.6914 17.0211 98.6914Z" fill="#6CDCFF"/>
<path d="M224.87 132.264H0.699731" stroke="white" stroke-width="1.06955" stroke-miterlimit="10"/>
<path d="M37.0987 119.291C35.1032 119.291 33.4856 117.673 33.4856 115.678C33.4856 113.682 35.1032 112.064 37.0987 112.064C39.0942 112.064 40.7119 113.682 40.7119 115.678C40.7119 117.673 39.0942 119.291 37.0987 119.291Z" fill="white"/>
<path d="M25.537 119.291C23.5415 119.291 21.9238 117.673 21.9238 115.678C21.9238 113.682 23.5415 112.064 25.537 112.064C27.5325 112.064 29.1501 113.682 29.1501 115.678C29.1501 117.673 27.5325 119.291 25.537 119.291Z" fill="white"/>
<path d="M14.6976 119.291C12.7021 119.291 11.0844 117.673 11.0844 115.678C11.0844 113.682 12.7021 112.064 14.6976 112.064C16.6931 112.064 18.3107 113.682 18.3107 115.678C18.3107 117.673 16.6931 119.291 14.6976 119.291Z" fill="white"/>
<path d="M238.922 238.879L239.061 238.744V239.022L238.922 238.879Z" fill="#FFBE21"/>
<path d="M86.7291 84.641C70.4607 96.5272 71.7122 115.931 72.3356 123.439C77.8177 131.47 81.9523 138.164 84.6885 143.87L81.7444 163.489C81.7444 163.489 54.7775 167.032 47.7387 175.914C31.3491 196.596 14.2703 249.232 21.2961 279.01H93.1971H154.745L148.017 230.119C148.017 230.119 199.599 256.134 219.334 239.987C246.341 217.888 235.033 136.375 235.033 136.375L212.158 112.603C212.158 112.603 213.817 102.641 209.467 99.5951C204.981 96.4554 199.065 112.069 197.356 124.713C195.113 141.309 190.179 192.442 189.282 195.582C189.282 195.582 158.603 178.807 144.877 172.706C132.767 167.324 118.019 165.368 118.019 165.368L116.14 154.106C116.14 154.106 124.904 157.254 132.413 152.854C139.921 148.454 141.796 140.336 139.293 127.822C136.79 115.307 138.67 97.7786 131.161 88.3952C123.653 79.0118 102.998 72.7548 86.7291 84.641Z" fill="#FFD5BD"/>
<path d="M134.456 122.156C133.428 122.156 132.595 121.323 132.595 120.295C132.595 119.267 133.428 118.434 134.456 118.434C135.484 118.434 136.318 119.267 136.318 120.295C136.318 121.323 135.484 122.156 134.456 122.156Z" fill="#A7756A"/>
<path d="M80.4364 163.488C80.4364 163.488 52.9703 168.066 47.0847 176.518C30.6951 197.201 14.2705 249.232 21.2962 279.009H93.1972H154.745L148.017 230.118C148.017 230.118 199.599 256.134 219.334 239.986C231.445 230.074 235.854 208.199 237.029 187.081L220.644 180.739L211.633 177.25L209.745 176.518L192.324 169.79C190.902 183.081 189.686 194.173 189.283 195.581C189.283 195.581 158.603 178.806 144.878 172.706C134.135 167.929 121.32 165.852 118.566 165.444L117.965 165.529C117.965 165.529 116.669 168.418 113.121 171.087C110.335 173.128 106.972 174.395 102.671 174.606C97.6337 174.852 94.7389 173.377 90.2457 171.087C85.9286 168.886 80.4364 163.488 80.4364 163.488Z" fill="white"/>
<path d="M66.2678 269.037L67.658 250.964L150.608 247.72L155.706 279.232H96.3894L66.2678 269.037Z" fill="#1F5BE8"/>
<path d="M68.0115 165.45C68.0115 165.45 77.9634 180.256 81.6748 190.914C90.6807 216.774 77.8209 260.928 77.8209 260.928L151.064 255.696C151.064 255.696 147.14 205.341 141.496 186.396C135.852 167.451 129.602 166.253 129.602 166.253L120.601 164.796C127.861 173.401 130.404 178.76 132.753 189.071H93.8246L78.4748 163.488L68.0115 165.45Z" fill="#1F5BE8"/>
<path d="M151.145 248.444L68.2844 251.01" stroke="#85E2FF" stroke-width="0.992075" stroke-linecap="round" stroke-linejoin="round"/>
<path d="M126.073 248.114C126.073 248.114 111.701 229.65 117.848 226.851C122.814 224.591 124.945 239.375 126.073 248.114Z" stroke="#85E2FF" stroke-width="0.992075" stroke-linecap="round" stroke-linejoin="round"/>
<path d="M126.514 248.432C126.514 248.432 132.436 232.814 136.711 235.072C140.162 236.896 131.621 244.188 126.514 248.432Z" stroke="#85E2FF" stroke-width="0.992075" stroke-linecap="round" stroke-linejoin="round"/>
<path d="M189.058 192.218L187.264 205.674" stroke="#F5EBDC" stroke-width="1.37176" stroke-miterlimit="10" stroke-linecap="round"/>
<path d="M56.7399 266.227C68.7965 270.335 85.056 275.332 95.0897 278.561" stroke="#F5EBDC" stroke-width="1.37176" stroke-miterlimit="10" stroke-linecap="round"/>
<path d="M69.5191 222.629L65.2625 268.918" stroke="#F5EBDC" stroke-width="1.37176" stroke-miterlimit="10" stroke-linecap="round"/>
<path d="M83.7059 81.7445C67.4376 93.6307 67.3876 110.204 68.011 117.712C70.2593 136.257 85.0139 145.832 85.0139 145.832C94.8835 137.331 94.8835 134.088 94.8835 134.088C94.8835 134.088 80.2881 130.845 82.3649 119.071C84.2442 108.422 96.7583 108.422 103.643 115.931C103.643 115.931 157.659 101.343 148.447 83.0524C143.404 73.0371 133.036 72.4777 125.559 77.8207C118.051 68.4373 99.9743 69.8583 83.7059 81.7445Z" fill="#151414"/>
<ellipse rx="20.1955" ry="20.1955" transform="matrix(-0.979401 -0.201923 -0.201923 0.979401 74.8659 82.7133)" fill="#151414"/>
<path d="M74.5505 90.8999C71.2811 94.1699 69.3189 101.363 69.3189 101.363" stroke="#0B3EB8" stroke-width="2.11261" stroke-linecap="round" stroke-linejoin="round"/>
<path d="M124.771 77.8691C124.771 77.8691 123.222 78.5062 120.327 82.1828" stroke="#0B3EB8" stroke-width="2.11261" stroke-linecap="round" stroke-linejoin="round"/>
<path d="M116.207 154.9C113.306 154.051 110.511 152.877 107.873 151.401" stroke="#A7756A" stroke-width="1.37176" stroke-miterlimit="10" stroke-linecap="round"/>
<path d="M96.7131 124.018L91.1289 120.914" stroke="#A7756A" stroke-width="1.37176" stroke-miterlimit="10" stroke-linecap="round"/>
<path d="M128.452 138.577C127.425 139.219 123.581 139.717 122.02 136.761" stroke="#A7756A" stroke-width="1.37176" stroke-miterlimit="10" stroke-linecap="round"/>
<path d="M119.65 124.623C118.622 124.623 117.788 123.79 117.788 122.762C117.788 121.734 118.622 120.9 119.65 120.9C120.678 120.9 121.511 121.734 121.511 122.762C121.511 123.79 120.678 124.623 119.65 124.623Z" fill="#A7756A"/>
<path d="M128.681 127.297C128.968 128.535 129.206 129.885 129.008 130.347C128.74 130.904 128.291 131.353 127.734 131.621" stroke="#A7756A" stroke-width="1.37176" stroke-miterlimit="10" stroke-linecap="round"/>
<path d="M217.764 115.069C217.764 115.069 209.242 122.246 208.345 124.04C208.345 124.04 222.25 138.393 211.485 155.886" stroke="#A7756A" stroke-width="1.37176" stroke-miterlimit="10" stroke-linecap="round"/>
<path d="M172.092 68.6041C171.061 66.9196 171.591 64.7187 173.276 63.6882C174.96 62.6577 177.161 63.1878 178.192 64.8723L246.134 175.932C247.165 177.617 246.634 179.817 244.95 180.848C243.265 181.879 241.064 181.348 240.034 179.664L172.092 68.6041Z" fill="#151414"/>
<path d="M165.918 39.7466L158.195 33.5658C157.565 33.0603 156.795 32.7603 155.989 32.7062C155.183 32.652 154.38 32.8463 153.688 33.2629C152.996 33.6795 152.449 34.2983 152.12 35.0359C151.791 35.7734 151.696 36.5941 151.848 37.3873L153.7 47.1161C153.846 47.8825 153.762 48.675 153.458 49.3935C153.154 50.112 152.643 50.7242 151.991 51.1529L143.729 56.5891C143.054 57.032 142.531 57.6714 142.23 58.421C141.93 59.1706 141.867 59.9944 142.049 60.7811C142.231 61.5678 142.651 62.2797 143.25 62.8206C143.85 63.3615 144.601 63.7055 145.402 63.8061L155.194 65.0575C155.969 65.1556 156.697 65.481 157.287 65.9927C157.877 66.5044 158.302 67.1795 158.509 67.9326L161.124 77.4685C161.338 78.2464 161.785 78.94 162.406 79.4561C163.026 79.9722 163.79 80.286 164.593 80.3554C165.397 80.4247 166.203 80.2463 166.903 79.8441C167.602 79.4418 168.162 78.8351 168.506 78.1054L172.718 69.1347C173.054 68.4317 173.589 67.8437 174.258 67.4446C174.927 67.0456 175.699 66.8533 176.477 66.892L186.345 67.3405C187.157 67.3914 187.964 67.1901 188.658 66.7642C189.351 66.3383 189.895 65.7087 190.217 64.9614C190.539 64.2142 190.621 63.3858 190.454 62.5897C190.287 61.7935 189.878 61.0685 189.283 60.5138L182.075 53.7409C181.506 53.2061 181.108 52.5147 180.931 51.7539C180.755 50.9931 180.808 50.1971 181.083 49.4664L184.573 40.2131C184.859 39.4566 184.907 38.6304 184.708 37.8461C184.51 37.0619 184.076 36.3574 183.465 35.8277C182.853 35.298 182.094 34.9687 181.29 34.8842C180.485 34.7998 179.674 34.9643 178.966 35.3554L170.296 40.1234C169.611 40.5003 168.829 40.6657 168.05 40.5986C167.271 40.5316 166.529 40.2351 165.918 39.7466Z" fill="white"/>
<path d="M206.068 24.5719C206.219 23.9653 207.081 23.9653 207.232 24.5719L208.649 30.2612C208.703 30.4766 208.871 30.6448 209.086 30.6984L214.775 32.1154C215.382 32.2665 215.382 33.1288 214.775 33.2799L209.086 34.6969C208.871 34.7505 208.703 34.9187 208.649 35.1341L207.232 40.8234C207.081 41.43 206.219 41.43 206.068 40.8234L204.651 35.1341C204.597 34.9187 204.429 34.7505 204.213 34.6969L198.524 33.2799C197.917 33.1288 197.917 32.2665 198.524 32.1154L204.213 30.6984C204.429 30.6448 204.597 30.4766 204.651 30.2612L206.068 24.5719Z" fill="white"/>
<path d="M164.869 2.33755C165.02 1.7309 165.882 1.7309 166.033 2.33755L166.537 4.36196C166.591 4.57735 166.759 4.74552 166.974 4.79916L168.999 5.30338C169.605 5.45448 169.605 6.31671 168.999 6.46781L166.974 6.97203C166.759 7.02567 166.591 7.19384 166.537 7.40923L166.033 9.43364C165.882 10.0403 165.02 10.0403 164.869 9.43364L164.364 7.40923C164.311 7.19384 164.143 7.02567 163.927 6.97203L161.903 6.46781C161.296 6.31671 161.296 5.45448 161.903 5.30338L163.927 4.79916C164.143 4.74552 164.311 4.57734 164.364 4.36196L164.869 2.33755Z" fill="white"/>
<path d="M126.939 54.654C127.09 54.0473 127.952 54.0473 128.103 54.654L128.608 56.6784C128.661 56.8938 128.829 57.0619 129.045 57.1156L131.069 57.6198C131.676 57.7709 131.676 58.6331 131.069 58.7842L129.045 59.2884C128.829 59.3421 128.661 59.5102 128.608 59.7256L128.103 61.75C127.952 62.3567 127.09 62.3567 126.939 61.75L126.435 59.7256C126.381 59.5102 126.213 59.3421 125.998 59.2884L123.973 58.7842C123.367 58.6331 123.367 57.7709 123.973 57.6198L125.998 57.1156C126.213 57.0619 126.381 56.8938 126.435 56.6784L126.939 54.654Z" fill="white"/>
<path d="M212.158 112.603C215.297 109.912 221.33 108.167 224.268 109.912C229.229 112.859 228.009 118.582 228.009 118.582C228.009 118.582 236.082 117.326 235.984 125.597C235.984 125.597 242.483 128.441 239.639 134.94C239.639 134.94 245.264 136.362 242.591 143.287C240.415 148.934 235.396 151.89 232.342 153.42C229.65 154.765 225.524 152.823 226.959 147.589C226.959 147.589 223.82 148.486 222.025 146.692C219.549 144.216 220.68 139.515 220.68 139.515C220.68 139.515 217.54 140.412 215.297 138.618C212.561 136.429 213.952 132.338 213.952 132.338C212.949 132.203 212.002 131.798 211.212 131.166C210.422 130.534 209.818 129.699 209.466 128.75C207.672 124.265 214.4 118.882 214.4 118.882L212.158 112.603Z" fill="#FFD5BD"/>
<path d="M239.967 135.195C236.018 139.989 231.667 144.435 226.959 148.485" stroke="#A7756A" stroke-width="1.37176" stroke-miterlimit="10" stroke-linecap="round"/>
<path d="M235.93 125.557C231.305 131.212 226.026 136.299 220.204 140.713" stroke="#A7756A" stroke-width="1.37176" stroke-miterlimit="10" stroke-linecap="round"/>
<path d="M228.753 118.959C224.515 124.528 219.413 129.384 213.642 133.344" stroke="#A7756A" stroke-width="1.37176" stroke-miterlimit="10" stroke-linecap="round"/>
<path d="M217.764 115.069C217.764 115.069 213.562 118.608 210.749 121.349" stroke="#151414" stroke-width="1.37176" stroke-miterlimit="10" stroke-linecap="round"/>
</svg>
