<svg width="466" height="409" viewBox="0 0 466 409" fill="none" xmlns="http://www.w3.org/2000/svg">
<path d="M122.756 202.519C95.7543 219.026 86.364 265.01 80.6426 281.787C74.4546 299.93 60.8264 299.517 45.0128 304.798C29.1993 310.08 29.7874 321.594 29.7874 321.594C26.0912 324.113 22.5594 326.864 19.2134 329.831L39.2345 355.418C43.9581 352.159 50.9695 348.073 60.5874 342.264C80.4529 330.264 98.2356 318.996 109.713 306.475C121.19 293.955 151.352 239.055 151.352 239.055L122.756 202.519Z" fill="#426EDF"/>
<path d="M39.2342 355.418L19.2093 329.835C10.2553 337.802 4.89055 345.39 2.19299 349.807L30.4244 385.873C34.4006 378.664 31.2401 368.519 31.5626 364.091C31.7789 361.424 34.1995 358.893 39.2342 355.418Z" fill="#313131"/>
<path d="M0 353.782L27.7572 389.245C28.8257 388.28 29.7236 387.141 30.413 385.876L2.18537 349.81C1.38581 351.094 0.656286 352.42 0 353.782Z" fill="#3EC1F3"/>
<path d="M28.9675 356.935L34.3437 359.929" stroke="white" stroke-width="1.51762" stroke-linecap="round" stroke-linejoin="round"/>
<path d="M26.5735 362.346L31.961 363.567" stroke="white" stroke-width="1.51762" stroke-linecap="round" stroke-linejoin="round"/>
<path d="M36.1878 331.789L26.5964 339.286" stroke="#3EC1F3" stroke-width="1.51762" stroke-miterlimit="10" stroke-linecap="round"/>
<path d="M31.3313 325.578L21.74 333.075" stroke="#3EC1F3" stroke-width="1.51762" stroke-miterlimit="10" stroke-linecap="round"/>
<path d="M41.044 337.999L31.4526 345.496" stroke="#3EC1F3" stroke-width="1.51762" stroke-miterlimit="10" stroke-linecap="round"/>
<path d="M45.9 344.21L36.3087 351.707" stroke="#3EC1F3" stroke-width="1.51762" stroke-miterlimit="10" stroke-linecap="round"/>
<path d="M28.9181 321.924L49.9636 348.847" stroke="#3EC1F3" stroke-width="1.51762" stroke-miterlimit="10" stroke-linecap="round"/>
<path d="M158.64 138.114H153.291C134.304 140.945 165.246 174.984 165.246 174.984C165.246 174.984 167.492 177.048 170.937 179.689L188.443 157.183C180.312 149.928 167.112 138.114 158.64 138.114Z" fill="#3EC1F3"/>
<path d="M168.876 178.147L168.876 165.315" stroke="white" stroke-width="1.37507" stroke-miterlimit="10" stroke-linecap="round"/>
<path d="M124.433 146.245V146.37L124.873 146.245H124.433Z" fill="#85E2FF"/>
<path d="M106.119 218.95H160.378V214.071V212.853H106.119V214.071V218.95Z" fill="#313131"/>
<path d="M150.396 378.588H182.926C183.305 372.897 184.383 364.952 185.707 354.041C188.499 330.999 190.594 310.052 187.801 293.298C185.009 276.544 160.378 218.935 160.378 218.935H113.988C110.346 250.368 140.767 286.112 150.449 300.958C160.92 317.018 152.194 327.49 146.609 343.197C141.025 358.904 150.449 365.54 150.449 365.54C150.16 369.884 150.142 374.242 150.396 378.588Z" fill="#426EDF"/>
<path d="M155.654 404.676H201.456C198.22 397.088 188.294 393.335 185.009 390.346C182.987 388.509 182.516 384.928 182.926 378.584H150.396C151.105 390.725 153.81 399.766 155.654 404.676Z" fill="#313131"/>
<path d="M132.197 272.945L144.593 254.13" stroke="#313131" stroke-width="1.51762" stroke-linecap="round" stroke-linejoin="round"/>
<path d="M157.43 408.849H202.465C202.367 407.411 202.026 406 201.456 404.676H155.654C156.17 406.098 156.763 407.491 157.43 408.849Z" fill="#3EC1F3"/>
<path d="M163.045 366.762V378.182" stroke="#3EC1F3" stroke-width="1.51762" stroke-miterlimit="10" stroke-linecap="round"/>
<path d="M155.161 366.762V378.182" stroke="#3EC1F3" stroke-width="1.51762" stroke-miterlimit="10" stroke-linecap="round"/>
<path d="M170.929 366.762V378.182" stroke="#3EC1F3" stroke-width="1.51762" stroke-miterlimit="10" stroke-linecap="round"/>
<path d="M178.813 366.762V378.182" stroke="#3EC1F3" stroke-width="1.51762" stroke-miterlimit="10" stroke-linecap="round"/>
<path d="M150.532 366.413H183.92" stroke="#3EC1F3" stroke-width="1.51762" stroke-miterlimit="10" stroke-linecap="round"/>
<path d="M177.77 387.978L183.161 385.77" stroke="white" stroke-width="1.51762" stroke-linecap="round" stroke-linejoin="round"/>
<path d="M180.554 393.199L185.058 389.564" stroke="white" stroke-width="1.51762" stroke-linecap="round" stroke-linejoin="round"/>
<path d="M229.619 133.368C228.985 134.938 239.248 146.837 240.819 146.837L229.619 156.549C225.715 163.955 217.383 178.016 206.836 185.896C206.806 185.833 206.776 185.77 206.746 185.708C206.77 185.772 206.796 185.835 206.824 185.896C204.435 187.728 201.796 189.208 198.986 190.29C194.399 191.978 188.491 190.233 182.907 187.395C182.908 187.391 182.909 187.387 182.91 187.383C178.708 185.179 174.711 182.604 170.967 179.689L188.473 157.183C190.677 159.16 192.517 160.799 193.784 161.766C193.784 161.766 205.952 147.208 212.208 139.852C217.379 133.762 222.019 130.071 224.728 129.479C225.069 129.397 225.421 129.376 225.768 129.418C226.11 129.449 226.429 129.6 226.671 129.843C227.513 130.75 226.792 132.969 224.395 136.024C223.14 137.6 221.773 139.083 220.305 140.463L222.418 138.329L220.255 140.588L229.619 133.368Z" fill="#EAA58B"/>
<path d="M193.056 161.474L188.897 166.638" stroke="#A15842" stroke-width="1.51762" stroke-linecap="round" stroke-linejoin="round"/>
<path d="M120.764 158.923C120.479 159.284 120.201 159.645 119.923 160.005" stroke="#263238" stroke-width="0.513396" stroke-miterlimit="10"/>
<path d="M295.313 75.9592C204.163 131.739 214.536 244.042 184.151 219.773C158.455 199.25 230.376 185.104 227.625 230.78C224.873 276.455 218.82 344.693 275.502 327.083C332.183 309.474 337.136 173.548 295.313 202.164C253.489 230.78 357.149 319.929 445.199 230.78" stroke="#313131" stroke-width="1.02679" stroke-miterlimit="10" stroke-linecap="round" stroke-dasharray="3.08 4.61"/>
<path d="M299.544 64.045L296.916 77.0035L305.203 68.2619L339.151 49.844L299.544 64.045Z" fill="#FFC727"/>
<path opacity="0.1" d="M299.544 64.045L296.916 77.0035L305.203 68.2619L339.151 49.844L299.544 64.045Z" fill="black"/>
<path d="M306.838 70.9441L296.916 77.0033L305.203 68.2616L306.838 70.9441Z" fill="#263238"/>
<path d="M305.204 68.2617L339.151 49.8438L314.023 83.0099L305.204 68.2617Z" fill="#FFC727"/>
<path d="M299.544 64.0448L283.178 56.6533L339.151 49.8437L299.544 64.0448Z" fill="#FFC727"/>
<path d="M233.895 151.958C233.895 151.958 239.867 152.194 240.345 146.977C240.345 146.977 244.61 145.015 243.494 141.119C243.494 141.119 247.395 140.003 246.279 136.103C246.207 135.856 248.495 135.413 248.381 132.199C248.214 127.51 245.035 124.133 243.646 123.784C239.473 122.74 241.058 129.52 240.861 129.35C238.429 127.263 234.878 126.314 233.611 127.377C231.403 129.228 232.935 131.702 232.935 131.702C232.935 131.702 230.105 131.034 228.72 133.079C227.036 135.56 230.048 137.875 230.048 137.875C230.048 137.875 226.892 138.228 227.419 141.149C228.003 144.416 232.909 145.144 235.235 148.566L233.895 151.958Z" fill="#EAA58B"/>
<path d="M233.895 151.958L235.234 148.567C232.908 145.144 228.003 144.416 227.418 141.149C226.891 138.228 229.627 137.162 229.627 137.162C229.627 137.162 226.993 134.9 228.678 132.419C230.063 130.374 233.61 131.471 233.61 131.471" stroke="#A15842" stroke-width="1.51762" stroke-linecap="round" stroke-linejoin="round"/>
<path d="M229.919 137.276C233.242 138.524 239.024 141.29 240.667 145.854" stroke="#A15842" stroke-width="1.51762" stroke-linecap="round" stroke-linejoin="round"/>
<path d="M233.645 131.471C236.49 133.023 241.517 136.21 243.782 140.368" stroke="#A15842" stroke-width="1.51762" stroke-linecap="round" stroke-linejoin="round"/>
<path d="M241.4 128.815C243.27 130.477 245.3 132.689 246.541 135.265" stroke="#A15842" stroke-width="1.51762" stroke-linecap="round" stroke-linejoin="round"/>
<path d="M140.203 118.215C135.781 117.41 131.609 109.621 134.016 105.496C139.644 98.2569 147.766 107.902 147.766 107.902C151.642 105.073 154.163 99.803 155.792 95.2898C156.998 95.707 160.615 96.0951 163.432 95.2898C163.432 95.2898 169.465 93.2787 169.06 88.4554C168.522 81.9797 158.604 84.8337 158.604 84.8337C158.604 84.8337 146.73 76.2041 135.047 81.4322C122.596 87.0357 121.535 98.5439 122.327 106.184C122.786 110.569 124.089 121.291 125.078 128.872C128.77 127.525 137.575 123.761 140.203 118.215Z" fill="#151414"/>
<path d="M150.189 128.439L150.417 132.296H125.629L125.601 131.974C125.517 130.979 125.424 129.881 125.328 128.71C128.662 127.532 137.354 123.992 140.045 118.318C136.642 117.175 132.831 113.269 132.804 109.172C132.81 107.787 133.256 106.439 134.077 105.323C135.453 103.399 137.103 102.721 138.768 102.744C138.962 102.747 139.153 102.759 139.343 102.778H139.42C139.618 102.801 139.804 102.831 139.999 102.873H140.067C140.266 102.915 140.456 102.965 140.647 103.022H140.711C140.91 103.083 141.096 103.147 141.291 103.216H141.344C141.538 103.292 141.733 103.369 141.919 103.456L141.957 103.525C142.152 103.609 142.342 103.704 142.533 103.799H142.563L142.579 103.808C142.761 103.904 142.95 104.004 143.131 104.108H143.15C143.214 104.147 143.28 104.185 143.347 104.224C143.47 104.297 143.596 104.37 143.714 104.447C145.083 105.324 146.345 106.357 147.475 107.526C150.211 105.55 154.113 97.8321 155.673 94.8394L160.268 95.1831C160.863 97.2596 161.673 101.139 161.996 102.791C162.287 104.279 162.522 105.485 162.802 106.207L162.765 106.221L162.802 106.219L162.836 106.314C162.836 106.314 166.201 106.108 166.582 107.598C167.043 109.431 164.09 111.409 164.09 111.409L164.178 111.726C165.296 115.727 166.171 118.859 164.723 122.483C163.846 124.519 162.265 126.17 160.268 127.132C157.917 128.336 154.628 128.996 150.189 128.439Z" fill="#EAA58B"/>
<path d="M141.958 103.491L141.919 103.456L141.958 103.491Z" fill="#1F5BE8"/>
<path d="M143.131 104.089C142.944 103.982 142.75 103.879 142.563 103.78C142.758 103.879 142.944 103.982 143.131 104.089Z" fill="#3EC1F3"/>
<path d="M143.715 104.439C143.532 104.321 143.334 104.21 143.151 104.1C143.341 104.218 143.532 104.321 143.715 104.439Z" fill="#3EC1F3"/>
<path d="M140.639 103.002C140.449 102.945 140.258 102.896 140.06 102.854C140.254 102.896 140.449 102.945 140.639 103.002Z" fill="#3EC1F3"/>
<path d="M142.533 103.765C142.343 103.67 142.152 103.574 141.958 103.49C142.152 103.574 142.343 103.67 142.533 103.765Z" fill="#3EC1F3"/>
<path d="M139.336 102.74C139.145 102.721 138.955 102.709 138.76 102.705C138.951 102.694 139.145 102.721 139.336 102.74Z" fill="#3EC1F3"/>
<path d="M139.991 102.843C139.797 102.801 139.61 102.77 139.412 102.747C139.606 102.77 139.797 102.801 139.991 102.843Z" fill="#3EC1F3"/>
<path d="M141.283 103.212C141.089 103.144 140.902 103.079 140.704 103.018C140.898 103.075 141.089 103.144 141.283 103.212Z" fill="#3EC1F3"/>
<path d="M141.92 103.456C141.733 103.368 141.538 103.292 141.344 103.216C141.538 103.308 141.725 103.384 141.92 103.456Z" fill="#3EC1F3"/>
<path d="M145.296 128.104C146.841 128.644 148.441 129.011 150.067 129.197" stroke="#A15842" stroke-width="1.52429" stroke-miterlimit="10" stroke-linecap="round"/>
<path d="M161.884 115.726C161.183 115.913 158.889 115.528 158.511 113.558" stroke="black" stroke-width="1.52429" stroke-miterlimit="10" stroke-linecap="round"/>
<path d="M158.275 105.762C158.898 105.762 159.403 105.257 159.403 104.634C159.403 104.011 158.898 103.506 158.275 103.506C157.652 103.506 157.147 104.011 157.147 104.634C157.147 105.257 157.652 105.762 158.275 105.762Z" fill="#30242A"/>
<path d="M138.913 109.751L143.009 112.358" stroke="#A15842" stroke-width="1.52429" stroke-miterlimit="10" stroke-linecap="round"/>
<path d="M125.422 134.623L107.226 138.781C104.519 138.781 91.5216 235.176 91.5216 235.176L168.225 229.761V173.263C168.225 173.263 168.723 142.863 165.986 140.811C161.586 137.511 153.038 136.457 151.548 136.342L150.173 132.217H125.422V134.623Z" fill="#3EC1F3"/>
<path d="M145.946 153.672C146.155 152.928 147.07 152.498 147.168 153.098L149.257 165.833C149.282 165.983 149.37 166.081 149.502 166.107L157.723 167.694C158.217 167.79 157.938 168.729 157.321 169.049L148.773 173.48C148.497 173.623 148.247 173.932 148.155 174.242L144.888 185.267C144.672 185.997 143.785 186.415 143.673 185.841L141.428 174.34C141.397 174.18 141.291 174.084 141.138 174.074L130.185 173.413C129.622 173.378 129.907 172.352 130.567 172.038L141.871 166.67C142.161 166.532 142.429 166.206 142.521 165.88L145.946 153.672Z" fill="#85E2FF"/>
<path d="M129.824 147.83L129.408 147.072C125.989 140.859 117.516 132.823 102.636 140.405C99.1032 142.205 88.1879 152.229 81.7796 161.7L102.636 180.714L129.824 147.83Z" fill="#3EC1F3"/>
<path d="M103.141 179.948L112.719 170.01" stroke="white" stroke-width="1.37507" stroke-miterlimit="10" stroke-linecap="round"/>
<path d="M102.544 179.309L81.7736 161.526C74.3232 170.272 75.0789 170.181 72.0268 174.651C61.3474 190.251 60.361 225.641 60.361 225.641C60.361 225.641 57.9338 230.155 57.754 235.616C40.8476 248.314 48.2134 252.359 48.2134 252.359C48.2134 252.359 45.1972 256.32 49.517 258.13C50.1197 263.167 53.1194 262.352 62.8686 256.061C57.6513 262.124 58.4303 267.108 60.1311 266.917C64.6142 266.412 77.103 251.35 79.8732 239.059C81.5386 231.667 94.7503 190.075 94.7503 190.075L102.544 179.309Z" fill="#EAA58B"/>
<path d="M63.5425 256.879C65.721 255.395 68.0718 253.72 69.8232 252.277" stroke="#A15842" stroke-width="1.12567" stroke-miterlimit="10" stroke-linecap="round"/>
<path d="M66.145 247.559C60.6751 252.093 54.3014 255.975 49.9679 258.414" stroke="#A15842" stroke-width="1.12567" stroke-miterlimit="10" stroke-linecap="round"/>
<path d="M61.4596 242.053C57.3239 245.354 52.3034 249.163 48.5513 251.933" stroke="#A15842" stroke-width="1.12567" stroke-miterlimit="10" stroke-linecap="round"/>
</svg>
