<svg width="119" height="36" viewBox="0 0 119 36" fill="none" xmlns="http://www.w3.org/2000/svg">
<path d="M39.54 24.057C39.54 26.327 41.9349 27.8718 45.7793 27.8718H48.4578V23.2688H46.7247C45.1806 23.2688 44.5189 22.922 44.5189 21.5979V5.01465H39.54V24.057Z" fill="white"/>
<path d="M52.8027 10.6895H58.0652V5.80283H52.8027V10.6895ZM52.9918 27.8718H57.9076V12.1082H52.9918V27.8718Z" fill="white"/>
<path d="M77.5327 13.0541C76.3983 13.8738 76.1147 15.5762 75.8626 16.9634L75.0118 16.8058C75.2324 15.4501 75.7996 13.4639 74.7597 12.5812C73.9404 11.8876 72.806 11.6353 71.4825 11.6353C69.97 11.6353 68.9616 11.8876 68.1108 12.7073C67.1339 13.6846 66.9763 15.6078 66.5667 16.9319L65.7474 16.6797C66.157 15.3555 66.8503 13.6846 66.8503 12.2974V12.1082H61.8715V27.8718H66.8503V19.8954C66.8503 16.9004 67.9532 15.5447 69.8124 15.5447C71.5455 15.5447 72.3648 16.9004 72.3648 19.8954V27.8718H77.3437V19.8954C77.3437 16.9004 78.1315 15.5447 79.9907 15.5447C81.6923 15.5447 82.5116 16.9004 82.5116 19.8954V27.8718H87.4904V17.058C87.4904 13.4639 84.875 11.6353 81.5032 11.6353C79.8646 11.6353 78.5411 12.2974 77.5327 13.0541Z" fill="white"/>
<path d="M96.1362 26.6422C96.1362 25.6964 95.506 24.6245 95.1908 23.7102L96.0101 23.4265C96.3253 24.3092 96.4513 25.6334 97.113 26.2954C98.279 27.4619 99.8546 28.3447 101.966 28.3447C106.377 28.3447 109.686 24.3723 109.844 19.9585C110.033 15.2925 106.63 11.6038 101.934 11.6038C99.8231 11.6038 98.216 12.3289 97.0815 13.527C96.4198 14.2206 96.3568 15.5447 96.0417 16.4275L95.2224 16.1752C95.5375 15.261 96.1362 14.189 96.1362 13.2432V12.1082L91.1573 12.1398V35.7851L96.1362 35.7536V26.6422ZM101.052 16.2068C103.384 16.2068 104.865 17.7516 104.865 19.8639C104.865 21.9762 103.384 23.7417 101.052 23.7417C98.7201 23.7417 97.3021 21.9762 97.3021 19.8639C97.3021 17.7516 98.7201 16.2068 101.052 16.2068Z" fill="white"/>
<path d="M112.754 10.6895H118.016V5.80283H112.754V10.6895ZM112.943 27.8718H117.859V12.1082H112.943V27.8718Z" fill="white"/>
<path d="M16.5058 2.33876C16.6568 1.73202 17.5192 1.73202 17.6703 2.33876L20.2173 12.5699C20.2709 12.7853 20.4391 12.9535 20.6544 13.0072L30.8817 15.5557C31.4883 15.7069 31.4883 16.569 30.8817 16.7201L20.6544 19.2687C20.4391 19.3224 20.2709 19.4905 20.2173 19.7059L17.6703 29.9371C17.5192 30.5438 16.6568 30.5438 16.5058 29.9371L13.9588 19.7059C13.9052 19.4905 13.737 19.3224 13.5216 19.2687L3.29435 16.7201C2.68778 16.569 2.68778 15.7069 3.29435 15.5557L13.5216 13.0072C13.737 12.9535 13.9052 12.7853 13.9588 12.5699L16.5058 2.33876Z" fill="white"/>
</svg>
