<?xml version="1.0" standalone="no"?>
<!DOCTYPE svg PUBLIC "-//W3C//DTD SVG 20010904//EN"
 "http://www.w3.org/TR/2001/REC-SVG-20010904/DTD/svg10.dtd">
<svg version="1.0" xmlns="http://www.w3.org/2000/svg"
 width="100.000000pt" height="100.000000pt" viewBox="0 0 100.000000 100.000000"
 preserveAspectRatio="xMidYMid meet">
<metadata>
Created by potrace 1.11, written by Peter Selinger 2001-2013
</metadata>
<g transform="translate(0.000000,100.000000) scale(0.100000,-0.100000)"
fill="#000000" stroke="none">
<path d="M398 944 c-181 -43 -319 -193 -350 -379 -49 -293 230 -568 523 -515
199 35 348 186 381 385 38 231 -133 470 -371 515 -69 13 -112 12 -183 -6z
m121 -201 c5 -21 18 -69 28 -108 l18 -70 104 -27 c146 -38 146 -38 -1 -76
l-103 -27 -27 -103 c-38 -147 -38 -147 -76 0 l-27 103 -103 27 c-147 38 -147
38 -1 76 l104 27 18 70 c10 39 23 87 28 108 5 20 14 37 19 37 5 0 14 -17 19
-37z"/>
</g>
</svg>
