<svg width="24" height="24" viewBox="0 0 24 24" fill="none" xmlns="http://www.w3.org/2000/svg">
<g opacity="0.7">
<path d="M15.4286 11.9999C15.4286 13.8883 13.8884 15.4285 12.0001 15.4285C10.1117 15.4285 8.57148 13.8883 8.57148 11.9999C8.57148 10.1115 10.1117 8.57136 12.0001 8.57136C13.8884 8.57136 15.4286 10.1115 15.4286 11.9999ZM17.2768 11.9999C17.2768 9.08029 14.9197 6.72314 12.0001 6.72314C9.08041 6.72314 6.72327 9.08029 6.72327 11.9999C6.72327 14.9196 9.08041 17.2767 12.0001 17.2767C14.9197 17.2767 17.2768 14.9196 17.2768 11.9999ZM18.7233 6.50886C18.7233 5.82582 18.1742 5.27672 17.4911 5.27672C16.8081 5.27672 16.259 5.82582 16.259 6.50886C16.259 7.19189 16.8081 7.741 17.4911 7.741C18.1742 7.741 18.7233 7.19189 18.7233 6.50886ZM12.0001 3.56243C13.5001 3.56243 16.7143 3.44189 18.067 3.97761C18.5358 4.16511 18.884 4.39279 19.2456 4.75439C19.6072 5.116 19.8349 5.46422 20.0224 5.93297C20.5581 7.28564 20.4376 10.4999 20.4376 11.9999C20.4376 13.4999 20.5581 16.7142 20.0224 18.0669C19.8349 18.5356 19.6072 18.8839 19.2456 19.2455C18.884 19.6071 18.5358 19.8348 18.067 20.0223C16.7143 20.558 13.5001 20.4374 12.0001 20.4374C10.5001 20.4374 7.28577 20.558 5.93309 20.0223C5.46434 19.8348 5.11612 19.6071 4.75452 19.2455C4.39291 18.8839 4.16523 18.5356 3.97773 18.0669C3.44202 16.7142 3.56255 13.4999 3.56255 11.9999C3.56255 10.4999 3.44202 7.28564 3.97773 5.93297C4.16523 5.46422 4.39291 5.116 4.75452 4.75439C5.11612 4.39279 5.46434 4.16511 5.93309 3.97761C7.28577 3.44189 10.5001 3.56243 12.0001 3.56243ZM22.2858 11.9999C22.2858 10.5803 22.2992 9.17404 22.2188 7.75439C22.1384 6.10707 21.7634 4.64725 20.5581 3.44189C19.3527 2.23654 17.8929 1.86154 16.2456 1.78118C14.8259 1.70082 13.4197 1.71422 12.0001 1.71422C10.5804 1.71422 9.17416 1.70082 7.75452 1.78118C6.10719 1.86154 4.64737 2.23654 3.44202 3.44189C2.23666 4.64725 1.86166 6.10707 1.7813 7.75439C1.70095 9.17404 1.71434 10.5803 1.71434 11.9999C1.71434 13.4196 1.70095 14.8258 1.7813 16.2455C1.86166 17.8928 2.23666 19.3526 3.44202 20.558C4.64737 21.7633 6.10719 22.1383 7.75452 22.2187C9.17416 22.299 10.5804 22.2856 12.0001 22.2856C13.4197 22.2856 14.8259 22.299 16.2456 22.2187C17.8929 22.1383 19.3527 21.7633 20.5581 20.558C21.7634 19.3526 22.1384 17.8928 22.2188 16.2455C22.2992 14.8258 22.2858 13.4196 22.2858 11.9999Z" fill="white"/>
</g>
</svg>
