<svg width="24" height="24" viewBox="0 0 24 24" fill="none" xmlns="http://www.w3.org/2000/svg">
<g opacity="0.7">
<path d="M4.88834 18.9376V9.64293H7.98209V18.9376H4.88834ZM8.18298 6.77686C8.18298 7.66078 7.51334 8.384 6.42852 8.384H6.41513C5.37048 8.384 4.70084 7.66078 4.70084 6.77686C4.70084 5.86614 5.39727 5.16971 6.45531 5.16971C7.51334 5.16971 8.16959 5.86614 8.18298 6.77686ZM16.0178 18.9376V13.9688C16.0178 12.7099 15.5758 11.8661 14.4642 11.8661C13.6071 11.8661 13.0982 12.442 12.8705 12.9911C12.7901 13.192 12.7767 13.4733 12.7767 13.7411V18.9376H9.68298C9.72316 10.5135 9.68298 9.64293 9.68298 9.64293H12.7767V10.9956H12.7499C13.1517 10.3527 13.8883 9.42864 15.5491 9.42864C17.5848 9.42864 19.1116 10.7545 19.1116 13.6072V18.9376H16.0178ZM22.2857 5.5715C22.2857 3.44203 20.558 1.71436 18.4285 1.71436H5.57138C3.44191 1.71436 1.71423 3.44203 1.71423 5.5715V18.4286C1.71423 20.5581 3.44191 22.2858 5.57138 22.2858H18.4285C20.558 22.2858 22.2857 20.5581 22.2857 18.4286V5.5715Z" fill="white"/>
</g>
</svg>
