<svg width="35" height="28" viewBox="0 0 35 28" fill="none" xmlns="http://www.w3.org/2000/svg">
<path d="M32.4371 2.83236C30.8909 3.37019 29.4791 4.14331 28.2018 5.15173C27.0589 6.0257 25.9496 7.16858 24.874 8.58037C23.8656 9.99215 23.1933 11.7737 22.8571 13.925C23.2605 13.7233 23.6975 13.488 24.1681 13.2191C24.5715 13.0174 25.0421 12.8493 25.5799 12.7149C26.1177 12.5132 26.7228 12.4124 27.395 12.4124C29.4119 12.4124 31.1598 13.1855 32.6388 14.7317C34.1851 16.2107 34.9582 17.9587 34.9582 19.9755C34.9582 21.9924 34.1851 23.7739 32.6388 25.3201C31.1598 26.7992 29.4119 27.5387 27.395 27.5387C25.1093 27.5387 23.1933 26.7319 21.647 25.1185C20.1008 23.505 19.3277 21.2865 19.3277 18.4629C19.3277 14.8326 19.9327 11.8409 21.1428 9.48795C22.4202 7.13496 23.832 5.28619 25.3782 3.94163C27.1261 2.32816 29.143 1.11805 31.4287 0.311316L32.4371 2.83236ZM13.2772 2.83236C11.7309 3.37019 10.3191 4.14331 9.04178 5.15173C7.89891 6.0257 6.78965 7.16858 5.714 8.58037C4.70558 9.99215 4.0333 11.7737 3.69716 13.925C4.10052 13.7233 4.53751 13.488 5.0081 13.2191C5.41147 13.0174 5.88207 12.8493 6.41989 12.7149C6.95772 12.5132 7.56277 12.4124 8.23505 12.4124C10.2519 12.4124 11.9998 13.1855 13.4788 14.7317C15.0251 16.2107 15.7982 17.9587 15.7982 19.9755C15.7982 21.9924 15.0251 23.7739 13.4788 25.3201C11.9998 26.7992 10.2519 27.5387 8.23505 27.5387C5.9493 27.5387 4.0333 26.7319 2.48705 25.1185C0.940806 23.505 0.167684 21.2865 0.167684 18.4629C0.167684 14.8326 0.772736 11.8409 1.98284 9.48795C3.26017 7.13496 4.67196 5.28619 6.21821 3.94163C7.96614 2.32816 9.98298 1.11805 12.2687 0.311316L13.2772 2.83236Z" fill="#6232E9"/>
</svg>
