<svg width="19" height="19" viewBox="0 0 19 19" fill="none" xmlns="http://www.w3.org/2000/svg">
<path d="M8.52965 0.895913C8.78148 -0.115172 10.2185 -0.11517 10.4704 0.895916L11.8473 6.42408C11.9367 6.78305 12.2169 7.06334 12.5759 7.15275L18.1041 8.52965C19.1152 8.78148 19.1152 10.2185 18.1041 10.4704L12.5759 11.8473C12.2169 11.9367 11.9367 12.2169 11.8473 12.5759L10.4704 18.1041C10.2185 19.1152 8.78148 19.1152 8.52965 18.1041L7.15275 12.5759C7.06334 12.2169 6.78305 11.9367 6.42408 11.8473L0.895913 10.4704C-0.115172 10.2185 -0.11517 8.78148 0.895916 8.52965L6.42408 7.15275C6.78305 7.06334 7.06334 6.78305 7.15275 6.42408L8.52965 0.895913Z" fill="#6232E9"/>
</svg>
