<svg width="24" height="24" viewBox="0 0 24 24" fill="none" xmlns="http://www.w3.org/2000/svg">
<path d="M3.30279 11.8499L7.25286 13.261L8.78177 17.9672C8.8796 18.2686 9.26469 18.38 9.52029 18.18L11.7221 16.462C11.9529 16.282 12.2817 16.273 12.5229 16.4406L16.4942 19.2002C16.7676 19.3904 17.155 19.247 17.2236 18.9308L20.1328 5.53705C20.2076 5.19161 19.853 4.90344 19.5093 5.03065L3.29817 11.0163C2.89811 11.1639 2.90159 11.7061 3.30279 11.8499ZM8.53537 12.5099L16.2553 7.95906C16.394 7.87751 16.5368 8.05707 16.4176 8.16285L10.0465 13.8312C9.82252 14.0307 9.67806 14.2977 9.63715 14.5875L9.42012 16.1269C9.39137 16.3324 9.08972 16.3528 9.03046 16.1539L8.19577 13.3468C8.10017 13.0267 8.23949 12.6847 8.53537 12.5099Z" fill="white"/>
</svg>
