<svg width="24" height="24" viewBox="0 0 24 24" fill="none" xmlns="http://www.w3.org/2000/svg">
<g opacity="0.7">
<path d="M21.1416 7.30566C22.04 6.63184 22.8486 5.82324 23.4775 4.87988C22.6689 5.23926 21.7256 5.50879 20.7822 5.59863C21.7705 5.01465 22.4893 4.11621 22.8486 2.99316C21.9502 3.53223 20.917 3.93652 19.8838 4.16113C18.9854 3.21777 17.7725 2.67871 16.4248 2.67871C13.8193 2.67871 11.708 4.79004 11.708 7.39551C11.708 7.75488 11.7529 8.11426 11.8428 8.47363C7.93457 8.24902 4.43066 6.3623 2.09473 3.53223C1.69043 4.20605 1.46582 5.01465 1.46582 5.91309C1.46582 7.53027 2.27441 8.96777 3.57715 9.82129C2.81348 9.77637 2.0498 9.59668 1.4209 9.2373V9.28223C1.4209 11.5732 3.03809 13.46 5.19434 13.9092C4.83496 13.999 4.38574 14.0889 3.98145 14.0889C3.66699 14.0889 3.39746 14.0439 3.08301 13.999C3.66699 15.8857 5.41895 17.2334 7.48535 17.2783C5.86816 18.5361 3.84668 19.2998 1.64551 19.2998C1.24121 19.2998 0.881836 19.2549 0.522461 19.21C2.58887 20.5576 5.05957 21.3213 7.75488 21.3213C16.4248 21.3213 21.1416 14.1787 21.1416 7.93457C21.1416 7.70996 21.1416 7.53027 21.1416 7.30566Z" fill="white"/>
</g>
</svg>
