<svg width="166" height="235" viewBox="0 0 166 235" fill="none" xmlns="http://www.w3.org/2000/svg">
<path d="M125.644 134.917L162.059 -7" stroke="#6232E9" stroke-width="6.9235" stroke-miterlimit="10"/>
<path d="M142.418 139.912C141.526 142.187 131.578 157.712 131.578 157.712H94.4625L104.054 139.912H142.418Z" fill="#6232E9"/>
<path d="M99.8601 139.912H150.27C156.203 139.912 161.021 135.094 161.021 129.161C161.021 123.228 156.203 118.41 150.27 118.41H99.8601C93.9269 118.41 89.109 123.228 89.109 129.161C89.1536 135.094 93.9269 139.912 99.8601 139.912Z" fill="#FFBE21"/>
<path d="M127.343 154.298C127.343 154.298 149.482 158.543 125.431 203.403L124.874 204.252C112.238 223.734 95.7525 234.547 78.6301 234.547H4.03506C1.80518 234.547 1.52588e-05 231.508 1.52588e-05 227.755C1.52588e-05 224.225 1.61935 221.276 3.71652 220.963L42.5537 215.87C42.5537 215.87 40.6955 190.937 75.8428 187.854C75.8428 187.854 75.8162 155.683 105.256 154.343H127.343V154.298Z" fill="#FFBE21"/>
</svg>
