<svg width="155" height="157" viewBox="0 0 155 157" fill="none" xmlns="http://www.w3.org/2000/svg">
<circle cx="85.8809" cy="88.5638" r="68.4358" fill="#FFBE21"/>
<path d="M141.136 69.1435C130.072 37.5854 96.0287 21.149 65.0932 32.4358C34.1576 43.7225 18.0517 78.4553 29.1152 110.013C40.1788 141.571 74.2221 158.008 105.158 146.721C136.087 135.434 152.193 100.702 141.136 69.1435Z" fill="white"/>
<path d="M37.1082 125.338C17.2906 98.4018 22.5226 60.4757 48.7985 40.6269L84.6615 89.0487L37.1082 125.338Z" fill="#FFBE21" fill-opacity="0.3"/>
<path d="M3.85763 44.0783C-3.66878 57.4146 0.171692 74.2413 12.2998 82.8987C13.4388 83.7139 15.0185 83.3522 15.711 82.1237L42.062 35.4324C42.7545 34.2039 42.268 32.6309 41.0032 32.0338C27.5758 25.6843 11.3783 30.7478 3.85763 44.0783Z" fill="#6232E9"/>
<path d="M141.165 36.8561C140.541 39.2501 137.874 40.4385 135.664 39.4625L94.5811 21.1833C94.5468 21.1661 94.5124 21.1488 94.5124 21.1488L90.7464 19.4782C88.5028 18.485 87.5641 15.6892 88.8519 13.5995C96.3611 1.59512 111.528 -3.40526 124.738 2.45052C131.847 5.62527 137.112 11.3777 139.877 18.175C142.224 23.9791 142.779 30.5123 141.165 36.8561Z" fill="#6232E9"/>
<path d="M130.635 96.4061C132.197 96.6702 133.25 98.1801 132.987 99.7761C132.724 101.372 131.247 102.446 129.684 102.182C128.122 101.917 127.069 100.408 127.326 98.8116C127.595 97.2156 129.072 96.1421 130.635 96.4061Z" fill="#353333"/>
<path d="M66.7029 47.6143C66.1649 46.093 66.9318 44.4166 68.4199 43.8655C69.908 43.3144 71.5507 44.1009 72.0944 45.6165C72.6324 47.1378 71.8655 48.8142 70.3774 49.3653C68.8892 49.9165 67.2409 49.13 66.7029 47.6143Z" fill="#353333"/>
<path d="M97.6269 134.688C97.0889 133.172 97.8559 131.49 99.344 130.939C100.832 130.388 102.48 131.174 103.018 132.69C103.556 134.211 102.79 135.887 101.301 136.439C99.8133 136.995 98.165 136.209 97.6269 134.688Z" fill="#353333"/>
<path d="M91.5646 44.2614C91.8966 42.6827 93.419 41.678 94.9701 42.011C96.5212 42.3497 97.5056 43.9055 97.1737 45.4843C96.8417 47.063 95.3192 48.0677 93.7682 47.7347C92.2171 47.396 91.2327 45.8402 91.5646 44.2614Z" fill="#353333"/>
<path d="M46.7221 60.3991C47.0541 58.8204 48.5765 57.8157 50.1276 58.1487C51.6786 58.4874 52.6631 60.0432 52.3311 61.622C51.9992 63.2007 50.4767 64.2111 48.9256 63.8724C47.3746 63.5337 46.3901 61.9779 46.7221 60.3991Z" fill="#353333"/>
<path d="M72.5517 134.825C72.8836 133.246 74.4061 132.241 75.9572 132.574C77.5082 132.913 78.4927 134.469 78.1607 136.048C77.8287 137.627 76.3063 138.631 74.7552 138.298C73.2099 137.959 72.2197 136.404 72.5517 134.825Z" fill="#353333"/>
<path d="M112.329 53.1711C113.365 51.9483 115.174 51.8105 116.376 52.8668C117.578 53.9232 117.709 55.766 116.673 56.9946C115.637 58.2174 113.829 58.3552 112.627 57.2988C111.425 56.2425 111.293 54.3939 112.329 53.1711Z" fill="#353333"/>
<path d="M39.3099 79.4475C40.3458 78.2246 42.1544 78.0869 43.3507 79.1432C44.5526 80.1995 44.6842 82.0481 43.6483 83.2709C42.6123 84.4938 40.8037 84.6316 39.6018 83.5752C38.4113 82.5189 38.2739 80.6703 39.3099 79.4475Z" fill="#353333"/>
<path d="M53.0519 123.315C54.0879 122.092 55.8965 121.954 57.0984 123.01C58.3003 124.067 58.432 125.91 57.396 127.138C56.3601 128.361 54.5515 128.499 53.3495 127.442C52.1533 126.386 52.0159 124.543 53.0519 123.315Z" fill="#353333"/>
<path d="M126.559 71.6281C128.047 71.077 129.69 71.8635 130.233 73.3849C130.771 74.9062 130.004 76.5826 128.516 77.1337C127.028 77.6848 125.386 76.8983 124.842 75.3827C124.304 73.8556 125.071 72.1793 126.559 71.6281Z" fill="#353333"/>
<path d="M41.2098 103.18C42.6979 102.629 44.3406 103.415 44.8843 104.931C45.4223 106.452 44.6554 108.129 43.1672 108.68C41.6791 109.231 40.0365 108.444 39.4928 106.923C38.949 105.407 39.7217 103.725 41.2098 103.18Z" fill="#353333"/>
<path d="M120.641 117.097C121.837 118.153 121.969 120.002 120.933 121.225C119.897 122.447 118.083 122.579 116.887 121.523C115.69 120.467 115.559 118.618 116.595 117.395C117.631 116.173 119.439 116.04 120.641 117.097Z" fill="#353333"/>
<path d="M56.9709 99.1453C65.4417 95.4194 81.8738 88.1514 81.8738 88.1514L83.5394 92.8417L57.2285 99.9089C56.6904 100.047 56.4672 99.3635 56.9709 99.1453Z" fill="#FFBE21"/>
<path d="M74.92 58.9701C80.0941 71.8127 87.1569 89.3054 87.1569 89.3054L82.5609 91.0047L73.5235 59.4466C73.1172 58.0171 74.3649 57.5923 74.92 58.9701Z" fill="#353333"/>
<path d="M80.5984 91.7287C79.7456 89.329 80.9647 86.6767 83.317 85.8041C85.6694 84.9314 88.2736 86.1772 89.1264 88.5769C89.9792 90.9824 88.7601 93.6347 86.4077 94.5016C84.0496 95.3743 81.4512 94.1342 80.5984 91.7287Z" fill="#FFBE21"/>
</svg>
