<svg width="137" height="179" viewBox="0 0 137 179" fill="none" xmlns="http://www.w3.org/2000/svg">
<rect y="31" width="86.768" height="157.76" rx="12" transform="rotate(-20.4534 0 31)" fill="#F9C13B"/>
<rect x="5.79822" y="33.6484" width="77.7532" height="148.745" rx="8" transform="rotate(-20.4534 5.79822 33.6484)" fill="white"/>
<path d="M28.6334 23.9297L55.0288 14.0853C56.1162 17.0009 54.6341 20.2459 51.7186 21.3333L35.8813 27.2399C32.9658 28.3273 29.7207 26.8452 28.6334 23.9297Z" fill="#F9C13B"/>
<path d="M78.8405 158.546C78.2968 157.088 79.0378 155.466 80.4956 154.922L101.612 147.046C103.07 146.503 104.692 147.244 105.236 148.701C105.78 150.159 105.039 151.782 103.581 152.325L82.4644 160.201C81.0066 160.745 79.3841 160.004 78.8405 158.546Z" fill="#F9C13B"/>
<path d="M22.1754 58.2089C21.6317 56.7511 22.3727 55.1286 23.8305 54.5849L74.5097 35.6837C75.9674 35.14 77.5899 35.881 78.1336 37.3388C78.6773 38.7966 77.9363 40.4191 76.4785 40.9628L25.7993 59.864C24.3416 60.4077 22.719 59.6667 22.1754 58.2089Z" fill="#F9C13B"/>
<path d="M26.1124 68.7675C25.5687 67.3097 26.3098 65.6872 27.7675 65.1435L74.2235 47.8174C75.6812 47.2737 77.3037 48.0147 77.8474 49.4725C78.3911 50.9303 77.6501 52.5528 76.1923 53.0965L29.7364 70.4226C28.2786 70.9663 26.6561 70.2253 26.1124 68.7675Z" fill="#F9C13B"/>
<path d="M30.0516 79.3251C29.5079 77.8673 30.2489 76.2448 31.7067 75.7011L72.8835 60.3439C74.3413 59.8002 75.9638 60.5412 76.5075 61.999C77.0512 63.4568 76.3102 65.0793 74.8524 65.623L33.6756 80.9802C32.2178 81.5239 30.5953 80.7829 30.0516 79.3251Z" fill="#F9C13B"/>
<path d="M36.9409 97.8018C35.4185 93.7201 37.4934 89.177 41.5752 87.6547L86.9753 70.7224C91.0571 69.2001 95.6001 71.2749 97.1224 75.3567C98.6448 79.4385 96.5699 83.9815 92.4881 85.5038L47.088 102.436C43.0062 103.958 38.4632 101.884 36.9409 97.8018Z" fill="#6232E9"/>
</svg>
