<svg width="473" height="171" viewBox="0 0 473 171" fill="none" xmlns="http://www.w3.org/2000/svg">
<path d="M90.3753 122.471C91.7326 124.362 94.2892 124.596 96.3216 124.332C101.362 123.683 105.715 122.795 110.437 120.916C112.286 120.179 114.881 119.371 115.487 117.274C116.334 114.34 115.267 110.597 114.513 107.829L112.428 101.953C110.881 96.268 106.292 91.0738 100.751 89.1569C96.5431 87.7011 93.6412 84.9823 91.5296 81.0474L86.6173 71.675L79.5594 73.3831L82.6965 92.646C83.5162 97.7183 84.7783 101.821 86.1266 106.777L88.2897 116.595C88.8112 118.526 89.1949 120.821 90.3753 122.471Z" fill="white"/>
<path d="M92.8421 59.926L93.2904 62.678C94.3655 66.0238 96.7389 69.884 99.392 72.423L102.589 74.7297C102.933 75.058 102.682 75.814 102.219 75.9195C102.02 75.9657 101.191 75.6726 101.03 75.5472L95.8243 71.306C93.7837 69.7326 92.3624 67.9758 90.9896 65.8751L88.1629 62.3785L92.8421 59.926Z" fill="#FFB7D5"/>
<path d="M93.9033 62.5662L97.0228 60.9313C98.4563 60.5308 99.7145 59.176 99.3235 57.7342L98.1342 57.3619C97.7443 55.9164 96.367 54.6535 94.937 55.0551L91.8176 56.6901L93.9033 62.5662Z" fill="#FFB7D5"/>
<path d="M86.0108 71.7129L78.9532 73.4208C78.9532 73.4208 71.7173 67.6757 70.1025 64.1209C68.4877 60.5661 73.0299 59.9303 75.5227 59.2888L91.1977 55.0557C91.9048 54.8725 92.9969 56.2774 93.2057 56.9901L94.4727 61.3042C94.6481 61.9062 94.6407 62.2117 94.1022 62.494L91.3532 62.9391C88.1269 64.6302 86.43 68.0488 86.0108 71.7129Z" fill="white"/>
<path d="M72.2769 108.883C72.2769 108.883 32.5769 148.415 24.9231 141.283L0 128.821L11.2154 97.6674L27.4154 113.867C27.4154 113.867 43.1736 103.716 59.8154 88.9443L72.2769 108.883Z" fill="white"/>
<path d="M75.4858 77.4533C74.1633 70.6799 79.6455 62.0567 72.0037 62.7994C71.0757 63.0594 69.4333 79.6479 57.7021 90.4689L73.1727 108.748C75.0865 105.673 75.5917 102.874 75.5917 102.874C75.5917 102.874 81.5654 100.585 85.826 95.9947C85.826 95.9947 100.698 93.0777 100.951 90.0767C101.12 88.0596 93.0728 89.1212 89.7071 89.1374C89.7071 89.1374 95.2037 87.0033 96.0337 82.7606C96.2255 81.7802 95.4084 81.445 93.8274 81.0571C93.8274 81.0571 95.9498 78.4822 94.5452 77.3882C93.9644 76.923 92.7466 77.0348 92.0996 76.9077C92.0996 76.9077 100.471 72.9708 99.649 70.7712C97.7319 65.6386 82.2255 74.6386 75.4858 77.4533Z" fill="#FFC5A4"/>
<path d="M89.9158 90.695L87.231 91.4375" stroke="#DDA09C" stroke-width="1.18805" stroke-linecap="round" stroke-linejoin="round"/>
<path d="M94.4942 82.0191C94.1044 82.0103 86.7861 85.3186 84.7385 86.4521" stroke="#DDA09C" stroke-width="1.18805" stroke-linecap="round" stroke-linejoin="round"/>
<path d="M90.7793 75.5484C90.7793 75.5484 86.3581 77.998 82.2463 80.2217" stroke="#DDA09C" stroke-width="1.18805" stroke-linecap="round" stroke-linejoin="round"/>
<path d="M181.354 157.676L215.049 109.666L212.921 85.7844L210.807 87.5985C210.807 87.5985 216.943 78.7743 215.635 76.1103C214.055 72.8942 207.606 78.9922 200.653 86.0278C193.347 93.4191 174.988 116.376 173.717 117.955L150.71 150.183C157.659 157.127 172.263 156.645 181.354 157.676Z" fill="#FFC5A4"/>
<path d="M211.65 86.1731C210.14 88.2457 207.702 91.259 205.973 93.2478C205.973 93.2478 207.19 102.24 199.213 109.331" stroke="#DDA09C" stroke-width="1.10935" stroke-miterlimit="10" stroke-linecap="round"/>
<path d="M209.655 114.459C209.308 113.569 209.121 112.16 209.955 110.529C209.955 110.529 207.484 111.013 206.509 109.078C205.23 106.536 207.292 103.999 207.292 103.999C207.292 103.999 204.097 104.789 203.847 102.549C203.575 100.119 206.261 96.8045 206.261 96.8045C206.261 96.8045 204.142 96.6952 204.447 94.6886C204.829 92.1479 207.242 90.8829 209.158 89.9116" stroke="#DDA09C" stroke-width="2.21869" stroke-miterlimit="10" stroke-linecap="round"/>
<path d="M218.541 87.8288C220.329 90.2695 218.907 93.3912 218.907 93.3912C218.907 93.3912 223.775 95.0672 221.569 99.9206C221.569 99.9206 224.821 103.542 221.452 106.632C221.452 106.632 223.756 108.055 220.67 111.711C217.66 115.275 213.867 116.684 212.03 116.186C211.059 115.922 208.857 113.367 210.516 110.14C210.516 110.14 208.072 110.621 207.07 108.689C205.755 106.152 207.37 104.759 207.37 104.759C207.37 104.759 204.68 104.388 204.408 102.16C204.111 99.7434 206.339 97.5646 206.339 97.5646C206.339 97.5646 204.235 97.4402 204.525 95.4487C205.131 91.2443 211.096 89.865 212.498 89.3411L212.315 86.5599C212.315 86.5599 216.757 85.3928 218.541 87.8288Z" fill="#FFC5A4"/>
<path d="M205.49 98.1359C209.325 97.609 215.389 96.212 219.689 93.2972" stroke="#DDA09C" stroke-width="1.10935" stroke-miterlimit="10" stroke-linecap="round"/>
<path d="M206.736 104.366C212.156 103.865 217.364 102.387 222.084 100.011" stroke="#DDA09C" stroke-width="1.10935" stroke-miterlimit="10" stroke-linecap="round"/>
<path d="M210.957 111.94C213.591 111.134 217.525 109.279 221.228 106.8" stroke="#DDA09C" stroke-width="1.10935" stroke-miterlimit="10" stroke-linecap="round"/>
<path d="M272.525 60.3209L290.322 51.0353C292.763 49.7618 295.564 49.3545 298.266 49.88L323.962 54.8764C331.633 56.368 335.925 64.6062 332.751 71.7477L328.984 80.2222L326.284 89.6733C324.907 94.4936 320.712 97.9742 315.72 98.4385L283.698 101.417C276.57 102.08 270.415 96.4713 270.415 89.3122V74.7905C270.415 73.4502 270.065 72.1332 269.4 70.9696C267.233 67.1764 268.651 62.3418 272.525 60.3209Z" fill="white"/>
<path d="M311.368 23.8338C308.216 31.5753 301.917 43.43 301.917 43.43C301.917 43.43 286.201 67.086 286.011 69.0181C285.869 70.4391 289.484 71.7236 292.237 69.2528C290.699 76.1352 289.623 83.0343 291.687 84.1965C292.933 84.8968 294.177 84.2905 294.177 84.2905C294.251 85.1251 294.804 86.3438 295.331 86.828C296.593 87.9907 297.867 85.6766 297.867 85.6766C298.494 87.1139 300.54 87.0532 301.603 85.8175C304.2 82.7948 307.043 73.5522 307.043 73.5522C307.328 76.926 307.248 83.8833 309.166 83.6086C311.98 83.2044 312.207 68.7588 312.207 68.7588C315.962 63.542 316.31 58.9372 316.31 58.9372C316.31 58.9372 320.965 54.6722 333.462 33.3961C345.958 12.1201 326.768 -3.92974 318.374 2.89828C313.162 7.13646 314.523 16.0859 311.368 23.8338Z" fill="#FFC5A4"/>
<path d="M306.553 75.2369C306.607 73.2756 306.678 71.1522 306.782 69.0104" stroke="#DDA09C" stroke-width="1.01565" stroke-linecap="round" stroke-linejoin="round"/>
<path d="M299.076 86.4531C300.051 82.1844 301.835 74.6462 303.454 69.1597" stroke="#DDA09C" stroke-width="1.01565" stroke-linecap="round" stroke-linejoin="round"/>
<path d="M294.092 83.9609C294.915 78.7671 296.155 71.3128 297.224 66.6205" stroke="#DDA09C" stroke-width="1.01565" stroke-linecap="round" stroke-linejoin="round"/>
<path d="M291.6 69.0068C291.988 67.3299 292.465 65.682 293.028 64.0726" stroke="#DDA09C" stroke-width="1.01565" stroke-linecap="round" stroke-linejoin="round"/>
<path d="M415.64 104.306C414.358 100.947 413.06 98.464 411.27 95.3455C408.642 90.9183 403.775 85.4452 401.354 83.5418C398.933 81.6384 389.892 73.4704 389.716 76.7353C389.555 79.7188 394.66 84.0301 394.66 84.0301C394.66 84.0301 387.512 81.6269 385.207 81.7039C382.902 81.7809 383.513 83.9154 383.513 83.9154C380.639 86.2255 383.457 89.487 383.457 89.487C383.457 89.487 397.88 96.9727 397.882 96.3221C397.882 96.3221 392.189 96.1428 387.28 97.3274C382.535 98.4725 376.691 102.942 379.957 105.053C382.023 106.389 382.742 102.934 388.345 102.353C392.46 101.927 395.585 102.985 395.585 102.985C396.608 105.785 397.77 107.465 397.77 107.465C397.77 107.465 399.633 118.233 412.713 118.206L450.33 147.012L462.303 120.388L415.64 104.306Z" fill="#FFC5A4"/>
<path d="M388.78 108.85C390.369 109.911 394.858 106.334 397.513 106.324C408.341 109.84 427.111 116.893 411.177 117.487C391.261 118.23 390.16 116.409 387.51 115.085C384.86 113.761 377.416 105.242 380.076 103.898C382.737 102.554 386.794 107.523 388.78 108.85Z" fill="#FFC5A4"/>
<path d="M393.167 82.9501C395.568 83.914 399.485 85.5473 402.046 86.9421" stroke="#DDA09C" stroke-width="1.01565" stroke-linecap="round" stroke-linejoin="round"/>
<path d="M399.793 91.2963C393.927 87.6983 387.171 85.1074 383.701 83.8868" stroke="#DDA09C" stroke-width="1.01565" stroke-linecap="round" stroke-linejoin="round"/>
</svg>
