<svg width="156" height="155" viewBox="0 0 156 155" fill="none" xmlns="http://www.w3.org/2000/svg">
<path d="M71.2526 115.977C71.545 117.997 70.3362 119.193 68.8762 120.264C65.2576 122.922 61.2389 124.709 57.0701 126.397C55.437 127.058 53.7311 128.811 52.0583 127.857C49.719 126.521 48.5975 123.337 47.3815 121.131L44.8577 115.576C42.3612 111.048 41.9745 105.932 44.3396 101.35C46.1352 97.87 45.8495 94.2046 44.7863 90.4366L42.9683 81.0815L47.4978 77.9654L57.9279 92.0013C60.5138 95.7005 63.5455 99.2626 65.7226 103.21L69.8053 111.007C70.656 112.543 70.9954 114.218 71.2526 115.977Z" fill="white"/>
<path d="M31.0866 78.0091L32.0514 81.3224C33.4583 84.0257 34.5396 86.4933 34.4635 89.6056L33.7576 93.4054C33.7471 93.8085 34.4806 94.1921 34.8342 93.9905C34.9865 93.9046 35.4055 93.0903 35.4283 92.9189L35.6517 87.4625C35.9457 85.3048 35.8418 82.4497 35.3928 80.3494L35.5045 77.6212L31.0866 78.0091Z" fill="#FFB7D5"/>
<path d="M32.3109 79.8587L30.0461 81.4168C28.8668 82.1743 26.7464 81.9154 26.2223 80.7331L26.8164 79.6616C26.2897 78.4778 26.3448 76.616 27.5223 75.8618L30.8637 74.8888L32.3109 79.8587Z" fill="#FFB7D5"/>
<path d="M41.6654 80.4316L47.2715 77.9005C47.2715 77.9005 48.828 70.1926 47.7184 66.9877C46.6089 63.7828 44.1923 65.6682 42.224 66.7905L28.1528 74.4822L28.1393 74.4898C27.5884 74.8027 27.2655 74.9861 27.5586 75.5538L29.6 79.4521C29.8502 79.935 30.165 80.19 30.6765 80.0372L32.3472 79.5507C35.4117 78.6354 39.1984 78.4008 41.6654 80.4316Z" fill="white"/>
<path d="M71.9538 96.7219C71.9538 96.7219 123.655 98.3354 124.176 89.0775L143.213 47.0507L104.255 41.9732L104.538 72.2601C104.538 72.2601 87.7692 75.9247 67.9996 76.7464L71.9538 96.7219Z" fill="white"/>
<path d="M51.3111 76.5157C48.025 71.4834 39.8252 70.3294 45.084 66.213C45.8259 65.8193 56.4844 75.1607 70.443 74.9004L72.3253 95.6136C69.252 94.8365 67.5959 93.8159 67.5959 93.8159C67.5959 93.8159 62.0884 96.9447 56.6175 96.626C56.6175 96.626 45.2043 102.465 43.2208 100.739C41.8885 99.5772 47.7494 95.4363 49.8765 93.4287C49.8765 93.4287 45.1241 96.0927 42.0226 93.9348C41.3059 93.4362 41.6706 92.4232 42.4293 91.2326C42.4293 91.2326 39.8997 89.6589 40.1183 88.1321C40.2008 87.4928 40.4948 87.5983 40.8245 87.1309C40.8245 87.1309 33.791 89.5064 32.9706 87.6371C31.0562 83.2753 45.36 78.7945 51.3111 76.5157Z" fill="#FFC5A4"/>
<path d="M49.6818 93.7021L52.1001 92.3994" stroke="#DDA09C" stroke-width="1.0442" stroke-linecap="round" stroke-linejoin="round"/>
<path d="M41.6083 91.2321C41.8486 91.0048 48.788 89.1113 50.8748 88.7236" stroke="#DDA09C" stroke-width="1.0442" stroke-linecap="round" stroke-linejoin="round"/>
<path d="M41.389 87.0314C41.389 87.0314 45.6839 85.3859 49.6497 83.8232" stroke="#DDA09C" stroke-width="1.0442" stroke-linecap="round" stroke-linejoin="round"/>
</svg>
